{
.appVersion = "1141";
copyright = "Copyright 2011, 2017 Google Inc. All Rights Reserved.";
customParameters = (
{
name = glyphOrder;
value = (
space,
nbspace,
A,
Agrave,
Aacute,
Acircumflex,
Atilde,
Adieresis,
Aring,
Amacron,
Abreve,
Aogonek,
Aringacute,
Adblgrave,
Ainvertedbreve,
Adotbelow,
Ahookabove,
Acircumflexacute,
Acircumflexgrave,
Acircumflexhookabove,
Acircumflextilde,
Acircumflexdotbelow,
Abreveacute,
Abrevegrave,
Abrevehookabove,
Abrevetilde,
Abrevedotbelow,
B,
C,
Ccedilla,
Cacute,
Ccircumflex,
Cdotaccent,
Ccaron,
D,
Dcaron,
E,
Egrave,
Eacute,
Ecircumflex,
Edieresis,
Emacron,
Ebreve,
Edotaccent,
Eogonek,
Ecaron,
Edblgrave,
Einvertedbreve,
Edotbelow,
Ehookabove,
Etilde,
Ecircumflexacute,
Ecircumflexgrave,
Ecircumflexhookabove,
Ecircumflextilde,
Ecircumflexdotbelow,
F,
G,
Gcircumflex,
Gbreve,
Gdotaccent,
Gcommaaccent,
Gcaron,
H,
Hcircumflex,
I,
Igrave,
Iacute,
Icircumflex,
Idieresis,
Itilde,
Imacron,
Ibreve,
Iogonek,
Idotaccent,
Idblgrave,
Iinvertedbreve,
Ihookabove,
Idotbelow,
J,
Jcircumflex,
K,
Kcommaaccent,
L,
Lacute,
Lcommaaccent,
Lcaron,
M,
N,
Ntilde,
Nacute,
Ncommaaccent,
Ncaron,
O,
Ograve,
Oacute,
Ocircumflex,
Otilde,
Odieresis,
Omacron,
Obreve,
Ohungarumlaut,
Ohorn,
Oogonek,
Odblgrave,
Oinvertedbreve,
Odieresismacron,
Otildemacron,
Odotaccentmacron,
Odotbelow,
Ohookabove,
Ocircumflexacute,
Ocircumflexgrave,
Ocircumflexhookabove,
Ocircumflextilde,
Ocircumflexdotbelow,
Ohornacute,
Ohorngrave,
Ohornhookabove,
Ohorntilde,
Ohorndotbelow,
P,
Q,
R,
Racute,
Rcommaaccent,
Rcaron,
Rdblgrave,
Rinvertedbreve,
S,
Sacute,
Scircumflex,
Scedilla,
Scaron,
Scommaaccent,
T,
Tcedilla,
Tcaron,
Tcommaaccent,
U,
Ugrave,
Uacute,
Ucircumflex,
Udieresis,
Utilde,
Umacron,
Ubreve,
Uring,
Uhungarumlaut,
Uogonek,
Uhorn,
Udblgrave,
Uinvertedbreve,
Udotbelow,
Uhookabove,
Uhornacute,
Uhorngrave,
Uhornhookabove,
Uhorntilde,
Uhorndotbelow,
V,
W,
Wcircumflex,
Wgrave,
Wacute,
Wdieresis,
X,
Y,
Yacute,
Ycircumflex,
Ydieresis,
Ymacron,
Ygrave,
Ydotbelow,
Yhookabove,
Ytilde,
Z,
Zacute,

glyphs = (
{
glyphname = A;
layers = (
{
layerId = "F265E254-A92B-4432-B734-C31CE1135299";
paths = (
{
closed = 1;
nodes = (
"737 1466 LINE",
"938 1466 LINE",
"1285 0 LINE",
"1098 0 LINE",
"855 1094 LINE SMOOTH",
"845 1141 OFFCURVE",
"823 1222 OFFCURVE",
"817 1263 QCURVE",
"806 1263 LINE",
"788 1222 OFFCURVE",
"749 1139 OFFCURVE",
"723 1094 QCURVE SMOOTH",
"90 0 LINE",
"-129 0 LINE"
);
},
{
closed = 1;
nodes = (
"285 539 LINE",
"1056 539 LINE",
"1095 376 LINE",
"191 376 LINE"
);
}
);
width = 1414;
}
);
leftKerningGroup = A_UC;
rightKerningGroup = A_UC;
unicode = 0041;
},
{
glyphname = B;
layers = (
{
layerId = "F265E254-A92B-4432-B734-C31CE1135299";
paths = (
{
closed = 1;
nodes = (
"293 1456 LINE",
"828 1456 LINE SMOOTH",
"1074 1456 OFFCURVE",
"1318 1262 OFFCURVE",
"1286 1070 QCURVE SMOOTH",
"1266 950 OFFCURVE",
"1105 800 OFFCURVE",
"1001 768 QCURVE",
"1000 764 LINE",
"1115 732 OFFCURVE",
"1239 560 OFFCURVE",
"1211 396 QCURVE SMOOTH",
"1179 210 OFFCURVE",
"846 0 OFFCURVE",
"605 0 QCURVE SMOOTH",
"36 0 LINE"
);
},
{
closed = 1;
nodes = (
"632 162 LINE SMOOTH",
"809 162 OFFCURVE",
"999 292 OFFCURVE",
"1020 421 QCURVE SMOOTH",
"1041 540 OFFCURVE",
"901 678 OFFCURVE",
"725 678 QCURVE SMOOTH",
"348 678 LINE",
"256 162 LINE"
);
},
{
closed = 1;
nodes = (
"719 838 LINE SMOOTH",
"895 838 OFFCURVE",
"1072 960 OFFCURVE",
"1092 1069 QCURVE SMOOTH",
"1111 1187 OFFCURVE",
"977 1294 OFFCURVE",
"800 1294 QCURVE SMOOTH",
"457 1294 LINE",
"376 838 LINE"
);
}
);
width = 1366;
}
);
leftKerningGroup = StraightRight_UC;
unicode = 0042;
},
{
glyphname = C;
layers = (
{
layerId = "F265E254-A92B-4432-B734-C31CE1135299";
paths = (
{
closed = 1;
nodes = (
"116 759 LINE SMOOTH",
"174 1116 OFFCURVE",
"627 1486 OFFCURVE",
"917 1486 QCURVE SMOOTH",
"1206 1486 OFFCURVE",
"1443 1213 OFFCURVE",
"1443 997 QCURVE SMOOTH",
"1442 988 LINE",
"1251 988 LINE",
"1251 998 LINE SMOOTH",
"1251 1134 OFFCURVE",
"1097 1317 OFFCURVE",
"889 1317 QCURVE SMOOTH",
"680 1317 OFFCURVE",
"359 1036 OFFCURVE",
"314 759 QCURVE SMOOTH",
"304 697 LINE SMOOTH",
"258 411 OFFCURVE",
"470 139 OFFCURVE",
"679 139 QCURVE SMOOTH",
"888 139 OFFCURVE",
"1119 325 OFFCURVE",
"1156 458 QCURVE SMOOTH",
"1159 468 LINE",
"1355 468 LINE",
"1352 458 LINE SMOOTH",
"1296 242 OFFCURVE",
"938 -30 OFFCURVE",
"650 -30 QCURVE SMOOTH",
"360 -30 OFFCURVE",
"47 330 OFFCURVE",
"106 697 QCURVE SMOOTH"
);
}
);
width = 1449;
}
);
leftKerningGroup = CG_UC;
rightKerningGroup = C_UC;
unicode = 0043;
},
{
glyphname = D;
layers = (
{
layerId = "F265E254-A92B-4432-B734-C31CE1135299";
paths = (
{
closed = 1;
nodes = (
"293 1456 LINE",
"776 1456 LINE SMOOTH",
"1086 1456 OFFCURVE",
"1428 1093 OFFCURVE",
"1380 759 QCURVE SMOOTH",
"1371 697 LINE SMOOTH",
"1323 363 OFFCURVE",
"850 0 OFFCURVE",
"519 0 QCURVE SMOOTH",
"36 0 LINE"
);
},
{
closed = 1;
nodes = (
"547 163 LINE SMOOTH",
"787 163 OFFCURVE",
"1129 432 OFFCURVE",
"1172 697 QCURVE SMOOTH",
"1182 759 LINE SMOOTH",
"1225 1024 OFFCURVE",
"989 1293 OFFCURVE",
"748 1293 QCURVE SMOOTH",
"461 1293 LINE",
"260 163 LINE"
);
}
);
width = 1484;
}
);
leftKerningGroup = StraightRight_UC;
rightKerningGroup = D_UC;
unicode = 0044;
},
{
glyphname = E;
layers = (
{
layerId = "F265E254-A92B-4432-B734-C31CE1135299";
paths = (
{
closed = 1;
nodes = (
"293 1456 LINE",
"1309 1456 LINE",
"1281 1293 LINE",
"461 1293 LINE",
"378 832 LINE",
"1098 832 LINE",
"1070 670 LINE",
"351 670 LINE",
"260 163 LINE",
"1091 163 LINE",
"1063 0 LINE",
"36 0 LINE"
);
}
);
width = 1258;
}
);
leftKerningGroup = StraightRight_UC;
rightKerningGroup = E_UC;
unicode = 0045;
},
{
glyphname = F;
layers = (
{
layerId = "F265E254-A92B-4432-B734-C31CE1135299";
paths = (
{
closed = 1;
nodes = (
"293 1456 LINE",
"1296 1456 LINE",
"1268 1293 LINE",
"461 1293 LINE",
"373 801 LINE",
"1072 801 LINE",
"1044 638 LINE",
"346 638 LINE",
"232 0 LINE",
"36 0 LINE"
);
}
);
width = 1224;
}
);
leftKerningGroup = StraightRight_UC;
unicode = 0046;
},
{
glyphname = G;
layers = (
{
layerId = "F265E254-A92B-4432-B734-C31CE1135299";
paths = (
{
closed = 1;
nodes = (
"119 759 LINE SMOOTH",
"182 1116 OFFCURVE",
"627 1486 OFFCURVE",
"917 1486 QCURVE SMOOTH",
"1206 1486 OFFCURVE",
"1470 1219 OFFCURVE",
"1458 1038 QCURVE SMOOTH",
"1458 1028 LINE",
"1262 1028 LINE",
"1263 1040 LINE SMOOTH",
"1271 1140 OFFCURVE",
"1097 1317 OFFCURVE",
"888 1317 QCURVE SMOOTH",
"680 1317 OFFCURVE",
"366 1035 OFFCURVE",
"317 759 QCURVE SMOOTH",
"306 697 LINE SMOOTH",
"257 421 OFFCURVE",
"470 127 OFFCURVE",
"712 127 QCURVE SMOOTH",
"839 127 OFFCURVE",
"1035 183 OFFCURVE",
"1127 235 QCURVE",
"1187 568 LINE",
"767 568 LINE",
"794 731 LINE",
"1405 731 LINE",
"1305 162 LINE",
"1217 92 OFFCURVE",
"894 -30 OFFCURVE",
"683 -30 QCURVE SMOOTH",
"361 -30 OFFCURVE",
"45 340 OFFCURVE",
"108 697 QCURVE SMOOTH"
);
}
);
width = 1482;
}
);
leftKerningGroup = CG_UC;
rightKerningGroup = G_UC;
unicode = 0047;
},
{
glyphname = H;
layers = (
{
layerId = "F265E254-A92B-4432-B734-C31CE1135299";
paths = (
{
closed = 1;
nodes = (
"293 1456 LINE",
"489 1456 LINE",
"378 832 LINE",
"1230 832 LINE",
"1341 1456 LINE",
"1536 1456 LINE",
"1279 0 LINE",
"1084 0 LINE",
"1203 670 LINE",
"351 670 LINE",
"232 0 LINE",
"36 0 LINE"
);
}
);
width = 1573;
}
);
leftKerningGroup = StraightRight_UC;
rightKerningGroup = LeftStraight_UC;
unicode = 0048;
},
{
glyphname = I;
layers = (
{
layerId = "F265E254-A92B-4432-B734-C31CE1135299";
paths = (
{
closed = 1;
nodes = (
"297 1456 LINE",
"493 1456 LINE",
"236 0 LINE",
"41 0 LINE"
);
}
);
width = 536;
}
);
leftKerningGroup = StraightRight_UC;
rightKerningGroup = LeftStraight_UC;
unicode = 0049;
},
{
glyphname = J;
layers = (
{
layerId = "F265E254-A92B-4432-B734-C31CE1135299";
paths = (
{
closed = 1;
nodes = (
"-32 440 LINE",
"163 440 LINE",
"161 430 LINE SMOOTH",
"138 288 OFFCURVE",
"284 139 OFFCURVE",
"432 139 QCURVE SMOOTH",
"580 139 OFFCURVE",
"777 303 OFFCURVE",
"801 455 QCURVE SMOOTH",
"983 1456 LINE",
"1178 1456 LINE",
"997 455 LINE SMOOTH",
"960 231 OFFCURVE",
"631 -30 OFFCURVE",
"403 -30 QCURVE SMOOTH",
"175 -30 OFFCURVE",
"-69 216 OFFCURVE",
"-34 430 QCURVE SMOOTH"
);
}
);
width = 1201;
}
);
leftKerningGroup = J_UC;
rightKerningGroup = JU_UC;
unicode = 004A;
},
{
glyphname = K;
layers = (
{
layerId = "F265E254-A92B-4432-B734-C31CE1135299";
paths = (
{
closed = 1;
nodes = (
"293 1456 LINE",
"489 1456 LINE",
"355 708 LINE",
"1223 1456 LINE",
"1482 1456 LINE",
"320 474 LINE",
"232 0 LINE",
"36 0 LINE"
);
},
{
closed = 1;
nodes = (
"557 769 LINE",
"692 890 LINE",
"1254 0 LINE",
"1032 0 LINE"
);
}
);
width = 1384;
}
);
leftKerningGroup = StraightRight_UC;
rightKerningGroup = K_UC;
unicode = 004B;
},
{
glyphname = L;
layers = (
{
layerId = "F265E254-A92B-4432-B734-C31CE1135299";
paths = (
{
closed = 1;
nodes = (
"293 1456 LINE",
"489 1456 LINE",
"260 163 LINE",
"1045 163 LINE",
"1017 0 LINE",
"36 0 LINE"
);
}
);
width = 1169;
}
);
leftKerningGroup = StraightRight_UC;
rightKerningGroup = L_UC;
unicode = 004C;
},
{
glyphname = M;
layers = (
{
layerId = "F265E254-A92B-4432-B734-C31CE1135299";
paths = (
{
closed = 1;
nodes = (
"293 1456 LINE",
"538 1456 LINE",
"837 340 LINE SMOOTH",
"845 310 OFFCURVE",
"862 251 OFFCURVE",
"866 231 QCURVE",
"874 231 LINE",
"888 251 OFFCURVE",
"923 310 OFFCURVE",
"941 340 QCURVE SMOOTH",
"1632 1456 LINE",
"1895 1456 LINE",
"1638 0 LINE",
"1453 0 LINE",
"1638 1083 LINE SMOOTH",
"1643 1113 OFFCURVE",
"1661 1188 OFFCURVE",
"1669 1218 QCURVE",
"1661 1218 LINE",
"1649 1188 OFFCURVE",
"1610 1113 OFFCURVE",
"1591 1083 QCURVE SMOOTH",
"927 0 LINE",
"749 0 LINE",
"455 1083 LINE SMOOTH",
"447 1113 OFFCURVE",
"434 1188 OFFCURVE",
"432 1218 QCURVE",
"425 1218 LINE",
"422 1188 OFFCURVE",
"414 1113 OFFCURVE",
"409 1083 QCURVE SMOOTH",
"223 0 LINE",
"36 0 LINE"
);
}
);
width = 1932;
}
);
leftKerningGroup = StraightRight_UC;
rightKerningGroup = LeftStraight_UC;
unicode = 004D;
},
{
glyphname = N;
layers = (
{
layerId = "F265E254-A92B-4432-B734-C31CE1135299";
paths = (
{
closed = 1;
nodes = (
"293 1456 LINE",
"499 1456 LINE",
"1085 351 LINE SMOOTH",
"1101 321 OFFCURVE",
"1127 261 OFFCURVE",
"1137 237 QCURVE",
"1144 237 LINE",
"1147 267 OFFCURVE",
"1157 341 OFFCURVE",
"1162 371 QCURVE SMOOTH",
"1343 1456 LINE",
"1533 1456 LINE",
"1276 0 LINE",
"1068 0 LINE",
"491 1097 LINE SMOOTH",
"475 1127 OFFCURVE",
"446 1187 OFFCURVE",
"437 1211 QCURVE",
"429 1211 LINE",
"427 1181 OFFCURVE",
"417 1107 OFFCURVE",
"412 1077 QCURVE SMOOTH",
"224 0 LINE",
"36 0 LINE"
);
}
);
width = 1570;
}
);
leftKerningGroup = StraightRight_UC;
rightKerningGroup = LeftStraight_UC;
unicode = 004E;
},
{
glyphname = O;
layers = (
{
layerId = "F265E254-A92B-4432-B734-C31CE1135299";
paths = (
{
closed = 1;
nodes = (
"118 759 LINE SMOOTH",
"181 1116 OFFCURVE",
"627 1486 OFFCURVE",
"928 1486 QCURVE SMOOTH",
"1228 1486 OFFCURVE",
"1554 1114 OFFCURVE",
"1485 759 QCURVE SMOOTH",
"1473 697 LINE SMOOTH",
"1404 342 OFFCURVE",
"961 -30 OFFCURVE",
"661 -30 QCURVE SMOOTH",
"361 -30 OFFCURVE",
"44 340 OFFCURVE",
"107 697 QCURVE SMOOTH"
);
},
{
closed = 1;
nodes = (
"256 421 OFFCURVE",
"470 139 OFFCURVE",
"690 139 QCURVE SMOOTH",
"909 139 OFFCURVE",
"1222 423 OFFCURVE",
"1275 697 QCURVE SMOOTH",
"1287 759 LINE SMOOTH",
"1340 1033 OFFCURVE",
"1119 1317 OFFCURVE",
"899 1317 QCURVE SMOOTH",
"680 1317 OFFCURVE",
"365 1035 OFFCURVE",
"316 759 QCURVE SMOOTH",
"305 697 LINE SMOOTH"
);
}
);
width = 1590;
}
);
leftKerningGroup = CG_UC;
rightKerningGroup = D_UC;
unicode = 004F;
},
{
glyphname = P;
layers = (
{
layerId = "F265E254-A92B-4432-B734-C31CE1135299";
paths = (
{
closed = 1;
nodes = (
"293 1456 LINE",
"830 1456 LINE SMOOTH",
"1097 1456 OFFCURVE",
"1343 1224 OFFCURVE",
"1307 1012 QCURVE SMOOTH",
"1272 802 OFFCURVE",
"941 566 OFFCURVE",
"674 566 QCURVE SMOOTH",
"333 566 LINE",
"232 0 LINE",
"36 0 LINE"
);
},
{
closed = 1;
nodes = (
"702 728 LINE SMOOTH",
"901 728 OFFCURVE",
"1090 884 OFFCURVE",
"1111 1012 QCURVE SMOOTH",
"1132 1141 OFFCURVE",
"1001 1293 OFFCURVE",
"802 1293 QCURVE SMOOTH",
"461 1293 LINE",
"361 728 LINE"
);
}
);
width = 1306;
}
);
leftKerningGroup = StraightRight_UC;
unicode = 0050;
},
{
glyphname = Q;
layers = (
{
layerId = "F265E254-A92B-4432-B734-C31CE1135299";
paths = (
{
closed = 1;
nodes = (
"119 759 LINE SMOOTH",
"182 1116 OFFCURVE",
"627 1486 OFFCURVE",
"928 1486 QCURVE SMOOTH",
"1228 1486 OFFCURVE",
"1545 1116 OFFCURVE",
"1482 759 QCURVE SMOOTH",
"1471 697 LINE SMOOTH",
"1408 340 OFFCURVE",
"961 -30 OFFCURVE",
"661 -30 QCURVE SMOOTH",
"361 -30 OFFCURVE",
"45 340 OFFCURVE",
"108 697 QCURVE SMOOTH"
);
},
{
closed = 1;
nodes = (
"255 421 OFFCURVE",
"470 139 OFFCURVE",
"690 139 QCURVE SMOOTH",
"909 139 OFFCURVE",
"1228 421 OFFCURVE",
"1277 697 QCURVE SMOOTH",
"1288 759 LINE SMOOTH",
"1337 1035 OFFCURVE",
"1119 1317 OFFCURVE",
"899 1317 QCURVE SMOOTH",
"680 1317 OFFCURVE",
"364 1035 OFFCURVE",
"315 759 QCURVE SMOOTH",
"304 697 LINE SMOOTH"
);
},
{
closed = 1;
nodes = (
"807 30 LINE",
"953 154 LINE",
"1296 -122 LINE",
"1143 -252 LINE"
);
}
);
width = 1591;
}
);
leftKerningGroup = CG_UC;
unicode = 0051;
},
{
glyphname = R;
layers = (
{
layerId = "F265E254-A92B-4432-B734-C31CE1135299";
paths = (
{
closed = 1;
nodes = (
"293 1456 LINE",
"821 1456 LINE SMOOTH",
"1081 1456 OFFCURVE",
"1325 1230 OFFCURVE",
"1290 1025 QCURVE SMOOTH",
"1256 820 OFFCURVE",
"929 589 OFFCURVE",
"669 589 QCURVE SMOOTH",
"337 589 LINE",
"232 0 LINE",
"36 0 LINE"
);
},
{
closed = 1;
nodes = (
"697 750 LINE SMOOTH",
"892 750 OFFCURVE",
"1074 900 OFFCURVE",
"1094 1025 QCURVE SMOOTH",
"1115 1150 OFFCURVE",
"989 1295 OFFCURVE",
"794 1295 QCURVE SMOOTH",
"461 1295 LINE",
"364 750 LINE"
);
},
{
closed = 1;
nodes = (
"709 672 LINE",
"906 672 LINE",
"1188 0 LINE",
"981 0 LINE"
);
}
);
width = 1359;
}
);
leftKerningGroup = StraightRight_UC;
rightKerningGroup = R_UC;
unicode = 0052;
},
{
glyphname = S;
layers = (
{
layerId = "F265E254-A92B-4432-B734-C31CE1135299";
paths = (
{
closed = 1;
nodes = (
"32 412 LINE",
"228 412 LINE",
"226 398 LINE SMOOTH",
"207 268 OFFCURVE",
"385 139 OFFCURVE",
"572 139 QCURVE SMOOTH",
"759 139 OFFCURVE",
"976 234 OFFCURVE",
"996 342 QCURVE SMOOTH",
"1013 441 OFFCURVE",
"864 585 OFFCURVE",
"614 668 QCURVE SMOOTH",
"350 755 OFFCURVE",
"161 945 OFFCURVE",
"191 1117 QCURVE SMOOTH",
"221 1288 OFFCURVE",
"544 1486 OFFCURVE",
"800 1486 QCURVE SMOOTH",
"1056 1486 OFFCURVE",
"1311 1239 OFFCURVE",
"1284 1063 QCURVE SMOOTH",
"1282 1050 LINE",
"1087 1050 LINE",
"1089 1062 LINE SMOOTH",
"1108 1177 OFFCURVE",
"951 1317 OFFCURVE",
"771 1317 QCURVE SMOOTH",
"590 1317 OFFCURVE",
"404 1226 OFFCURVE",
"386 1117 QCURVE SMOOTH",
"369 1029 OFFCURVE",
"515 904 OFFCURVE",
"759 823 QCURVE SMOOTH",
"1019 737 OFFCURVE",
"1221 525 OFFCURVE",
"1189 344 QCURVE SMOOTH",
"1157 163 OFFCURVE",
"810 -30 OFFCURVE",
"543 -30 QCURVE SMOOTH",
"276 -30 OFFCURVE",
"-4 201 OFFCURVE",
"29 400 QCURVE SMOOTH"
);
}
);
width = 1334;
}
);
leftKerningGroup = S_UC;
rightKerningGroup = S_UC;
unicode = 0053;
},
{
glyphname = T;
layers = (
{
layerId = "F265E254-A92B-4432-B734-C31CE1135299";
paths = (
{
closed = 1;
nodes = (
"151 1456 LINE",
"1401 1456 LINE",
"1373 1293 LINE",
"846 1293 LINE",
"617 0 LINE",
"422 0 LINE",
"651 1293 LINE",
"123 1293 LINE"
);
}
);
width = 1296;
}
);
leftKerningGroup = T_UC;
rightKerningGroup = T_UC;
unicode = 0054;
},
{
glyphname = U;
layers = (
{
layerId = "F265E254-A92B-4432-B734-C31CE1135299";
paths = (
{
closed = 1;
nodes = (
"278 1456 LINE",
"473 1456 LINE",
"299 500 LINE SMOOTH",
"269 317 OFFCURVE",
"457 139 OFFCURVE",
"632 139 QCURVE SMOOTH",
"806 139 OFFCURVE",
"1051 317 OFFCURVE",
"1081 500 QCURVE SMOOTH",
"1255 1456 LINE",
"1451 1456 LINE",
"1278 500 LINE SMOOTH",
"1234 235 OFFCURVE",
"848 -30 OFFCURVE",
"602 -30 QCURVE SMOOTH",
"358 -30 OFFCURVE",
"60 235 OFFCURVE",
"104 500 QCURVE SMOOTH"
);
}
);
width = 1474;
}
);
leftKerningGroup = U_UC;
rightKerningGroup = JU_UC;
unicode = 0055;
},
{
glyphname = V;
layers = (
{
layerId = "F265E254-A92B-4432-B734-C31CE1135299";
paths = (
{
closed = 1;
nodes = (
"327 1456 LINE",
"558 384 LINE SMOOTH",
"567 341 OFFCURVE",
"587 246 OFFCURVE",
"596 205 QCURVE",
"603 205 LINE",
"622 246 OFFCURVE",
"669 343 OFFCURVE",
"693 384 QCURVE SMOOTH",
"1308 1456 LINE",
"1520 1456 LINE",
"666 -10 LINE",
"465 -10 LINE",
"128 1456 LINE"
);
}
);
width = 1392;
}
);
unicode = 0056;
},
{
glyphname = W;
layers = (
{
layerId = "F265E254-A92B-4432-B734-C31CE1135299";
paths = (
{
closed = 1;
nodes = (
"176 1456 LINE",
"368 1456 LINE",
"461 363 LINE SMOOTH",
"464 329 OFFCURVE",
"471 268 OFFCURVE",
"470 235 QCURVE",
"478 235 LINE",
"488 268 OFFCURVE",
"508 329 OFFCURVE",
"523 363 QCURVE SMOOTH",
"1008 1456 LINE",
"1230 1456 LINE",
"1338 363 LINE SMOOTH",
"1341 329 OFFCURVE",
"1347 268 OFFCURVE",
"1349 235 QCURVE",
"1357 235 LINE",
"1367 268 OFFCURVE",
"1387 329 OFFCURVE",
"1402 363 QCURVE SMOOTH",
"1869 1456 LINE",
"2075 1456 LINE",
"1409 -10 LINE",
"1206 -10 LINE",
"1093 1095 LINE SMOOTH",
"1090 1129 OFFCURVE",
"1079 1220 OFFCURVE",
"1078 1253 QCURVE",
"1070 1253 LINE",
"1061 1220 OFFCURVE",
"1030 1129 OFFCURVE",
"1015 1095 QCURVE SMOOTH",
"528 -10 LINE",
"325 -10 LINE"
);
}
);
width = 1996;
}
);
leftKerningGroup = W_UC;
rightKerningGroup = W_UC;
unicode = 0057;
},
{
glyphname = X;
layers = (
{
layerId = "F265E254-A92B-4432-B734-C31CE1135299";
paths = (
{
closed = 1;
nodes = (
"628 806 LINE",
"654 806 LINE",
"1219 1456 LINE",
"1452 1456 LINE",
"746 670 LINE",
"719 670 LINE",
"122 0 LINE",
"-110 0 LINE"
);
},
{
closed = 1;
nodes = (
"418 1456 LINE",
"753 806 LINE",
"755 806 LINE",
"1207 0 LINE",
"980 0 LINE",
"619 670 LINE",
"619 670 LINE",
"190 1456 LINE"
);
}
);
width = 1372;
}
);
unicode = 0058;
},
{
glyphname = Y;
layers = (
{
layerId = "F265E254-A92B-4432-B734-C31CE1135299";
paths = (
{
closed = 1;
nodes = (
"546 541 LINE",
"142 1456 LINE",
"355 1456 LINE",
"615 838 LINE SMOOTH",
"628 807 OFFCURVE",
"651 748 OFFCURVE",
"659 718 QCURVE",
"666 718 LINE",
"684 748 OFFCURVE",
"724 805 OFFCURVE",
"748 835 QCURVE SMOOTH",
"1231 1456 LINE",
"1468 1456 LINE",
"742 541 LINE",
"646 0 LINE",
"450 0 LINE"
);
}
);
width = 1356;
}
);
leftKerningGroup = Y_UC;
rightKerningGroup = Y_UC;
unicode = 0059;
},
{
glyphname = Z;
layers = (
{
layerId = "F265E254-A92B-4432-B734-C31CE1135299";
paths = (
{
closed = 1;
nodes = (
"-90 164 LINE",
"1050 1293 LINE",
"148 1293 LINE",
"175 1456 LINE",
"1299 1456 LINE",
"1294 1292 LINE",
"144 163 LINE",
"1105 163 LINE",
"1077 0 LINE",
"-95 0 LINE"
);
}
);
width = 1240;
}
);
leftKerningGroup = Z_UC;
rightKerningGroup = Z_UC;
unicode = 005A;
},
{
glyphname = AE;
layers = (
{
layerId = "F265E254-A92B-4432-B734-C31CE1135299";
paths = (
{
closed = 1;
nodes = (
"402 523 LINE",
"1155 523 LINE",
"1155 360 LINE",
"302 360 LINE"
);
},
{
closed = 1;
nodes = (
"986 1456 LINE",
"2094 1456 LINE",
"2094 1293 LINE",
"1252 1293 LINE",
"1252 832 LINE",
"1990 832 LINE",
"1990 670 LINE",
"1252 670 LINE",
"1252 163 LINE",
"2105 163 LINE",
"2105 0 LINE",
"1050 0 LINE",
"1050 1238 LINE",
"212 0 LINE",
"-15 0 LINE"
);
}
);
width = 2173;
}
);
leftKerningGroup = AE_UC;
rightKerningGroup = E_UC;
unicode = 00C6;
},
{
glyphname = Thorn;
layers = (
{
guideLines = (
{
position = "{0, 901}";
},
{
position = "{0, 555}";
}
);
layerId = "F265E254-A92B-4432-B734-C31CE1135299";
paths = (
{
closed = 1;
nodes = (
"372 1456 LINE",
"372 1165 LINE",
"720 1165 LINE SMOOTH",
"996 1165 OFFCURVE",
"1292 944 OFFCURVE",
"1292 738 QCURVE SMOOTH",
"1292 532 OFFCURVE",
"996 311 OFFCURVE",
"720 312 QCURVE SMOOTH",
"372 312 LINE",
"372 0 LINE",
"170 0 LINE",
"170 1456 LINE"
);
},
{
closed = 1;
nodes = (
"372 1010 LINE",
"372 467 LINE",
"720 467 LINE SMOOTH",
"906 467 OFFCURVE",
"1107 606 OFFCURVE",
"1107 736 QCURVE SMOOTH",
"1107 868 OFFCURVE",
"906 1010 OFFCURVE",
"720 1010 QCURVE SMOOTH"
);
}
);
width = 1342;
}
);
leftKerningGroup = StraightRight_UC;
unicode = 00DE;
userData = {
com.typemytype.robofont.guideline.magnetic.T8KKW8oxop = 5;
com.typemytype.robofont.guideline.magnetic.i9jYwjBDP4 = 5;
};
},
{
glyphname = OE;
layers = (
{
layerId = "F265E254-A92B-4432-B734-C31CE1135299";
paths = (
{
closed = 1;
nodes = (
"867 1477 OFFCURVE",
"1040 1466 OFFCURVE",
"1128 1456 QCURVE",
"2094 1456 LINE",
"2094 1293 LINE",
"1252 1293 LINE",
"1252 832 LINE",
"1990 832 LINE",
"1990 670 LINE",
"1252 670 LINE",
"1252 163 LINE",
"2105 163 LINE",
"2105 0 LINE",
"1128 0 LINE",
"1028 -10 OFFCURVE",
"833 -21 OFFCURVE",
"752 -21 QCURVE SMOOTH",
"445 -21 OFFCURVE",
"115 343 OFFCURVE",
"115 682 QCURVE SMOOTH",
"115 772 LINE SMOOTH",
"115 1112 OFFCURVE",
"466 1477 OFFCURVE",
"793 1477 QCURVE SMOOTH"
);
},
{
closed = 1;
nodes = (
"320 417 OFFCURVE",
"566 133 OFFCURVE",
"795 133 QCURVE SMOOTH",
"873 133 OFFCURVE",
"1006 141 OFFCURVE",
"1050 148 QCURVE",
"1050 1306 LINE",
"998 1313 OFFCURVE",
"867 1321 OFFCURVE",
"797 1321 QCURVE SMOOTH",
"567 1321 OFFCURVE",
"320 1038 OFFCURVE",
"320 774 QCURVE SMOOTH",
"320 682 LINE SMOOTH"
);
}
);
width = 2173;
}
);
leftKerningGroup = CG_UC;
rightKerningGroup = E_UC;
unicode = 0152;
},
{
glyphname = Schwa;
layers = (
{
layerId = "F265E254-A92B-4432-B734-C31CE1135299";
paths = (
{
closed = 1;
nodes = (
"176 1356 OFFCURVE",
"508 1519 OFFCURVE",
"756 1519 QCURVE SMOOTH",
"1136 1519 OFFCURVE",
"1553 1094 OFFCURVE",
"1553 789 QCURVE SMOOTH",
"1553 445 OFFCURVE",
"1114 -30 OFFCURVE",
"782 -30 QCURVE SMOOTH",
"466 -30 OFFCURVE",
"107 281 OFFCURVE",
"107 578 QCURVE SMOOTH",
"107 686 LINE",
"1395 686 LINE",
"1395 554 LINE",
"751 562 LINE",
"312 556 LINE",
"312 481 LINE SMOOTH",
"312 315 OFFCURVE",
"566 97 OFFCURVE",
"793 97 QCURVE SMOOTH",
"1034 97 OFFCURVE",
"1357 462 OFFCURVE",
"1354 749 QCURVE SMOOTH",
"1352 1047 OFFCURVE",
"974 1375 OFFCURVE",
"735 1375 QCURVE SMOOTH",
"527 1375 OFFCURVE",
"240 1234 OFFCURVE",
"170 1126 QCURVE",
"64 1199 LINE"
);
}
);
width = 1623;
}
);
rightKerningGroup = D_UC;
unicode = 018F;
},
{
glyphname = Germandbls;
layers = (
{
layerId = "F265E254-A92B-4432-B734-C31CE1135299";
paths = (
{
closed = 1;
nodes = (
"199 1267 OFFCURVE",
"449 1510 OFFCURVE",
"689 1510 QCURVE SMOOTH",
"944 1510 OFFCURVE",
"1150 1347 OFFCURVE",
"1150 1244 QCURVE SMOOTH",
"1150 1142 OFFCURVE",
"1033 1010 OFFCURVE",
"965 966 QCURVE SMOOTH",
"908 929 OFFCURVE",
"846 881 OFFCURVE",
"846 861 QCURVE SMOOTH",
"846 841 OFFCURVE",
"920 805 OFFCURVE",
"1135 736 QCURVE SMOOTH",
"1353 666 OFFCURVE",
"1545 486 OFFCURVE",
"1545 336 QCURVE SMOOTH",
"1545 176 OFFCURVE",
"1272 -30 OFFCURVE",
"1060 -30 QCURVE SMOOTH",
"802 -30 OFFCURVE",
"524 153 OFFCURVE",
"524 338 QCURVE SMOOTH",
"524 350 LINE",
"726 350 LINE",
"726 338 LINE SMOOTH",
"726 234 OFFCURVE",
"893 139 OFFCURVE",
"1048 139 QCURVE SMOOTH",
"1178 139 OFFCURVE",
"1345 247 OFFCURVE",
"1345 330 QCURVE SMOOTH",
"1345 427 OFFCURVE",
"1173 521 OFFCURVE",
"980 584 QCURVE SMOOTH",
"751 659 OFFCURVE",
"610 753 OFFCURVE",
"610 831 QCURVE SMOOTH",
"610 904 OFFCURVE",
"674 989 OFFCURVE",
"780 1056 QCURVE SMOOTH",
"859 1106 OFFCURVE",
"929 1172 OFFCURVE",
"929 1229 QCURVE SMOOTH",
"929 1284 OFFCURVE",
"814 1344 OFFCURVE",
"695 1344 QCURVE SMOOTH",
"559 1344 OFFCURVE",
"402 1198 OFFCURVE",
"402 1036 QCURVE SMOOTH",
"402 355 LINE SMOOTH",
"402 184 OFFCURVE",
"228 -16 OFFCURVE",
"75 -16 QCURVE SMOOTH",
"60 -16 OFFCURVE",
"30 -14 OFFCURVE",
"15 -12 QCURVE",
"13 172 LINE",
"23 169 OFFCURVE",
"45 167 OFFCURVE",
"55 167 QCURVE SMOOTH",
"123 167 OFFCURVE",
"199 264 OFFCURVE",
"199 355 QCURVE SMOOTH",
"199 1066 LINE SMOOTH"
);
}
);
width = 1625;
}
);
unicode = 1E9E;
},
{
glyphname = micro;
layers = (
{
layerId = "F265E254-A92B-4432-B734-C31CE1135299";
paths = (
{
closed = 1;
nodes = (
"438 1052 LINE",
"306 371 LINE SMOOTH",
"284 258 OFFCURVE",
"404 136 OFFCURVE",
"537 136 QCURVE SMOOTH",
"629 136 OFFCURVE",
"841 233 OFFCURVE",
"894 308 QCURVE",
"1038 1052 LINE",
"1234 1052 LINE",
"1030 0 LINE",
"852 0 LINE",
"870 135 LINE",
"864 135 LINE",
"804 74 OFFCURVE",
"565 -20 OFFCURVE",
"452 -20 QCURVE SMOOTH",
"383 -20 OFFCURVE",
"274 12 OFFCURVE",
"242 42 QCURVE",
"154 -416 LINE",
"-42 -416 LINE",
"242 1052 LINE"
);
}
);
width = 1338;
}
);
unicode = 00B5;
},
{
glyphname = a;
layers = (
{
layerId = "F265E254-A92B-4432-B734-C31CE1135299";
paths = (
{
closed = 1;
nodes = (
"41 481 OFFCURVE",
"369 650 OFFCURVE",
"599 650 QCURVE SMOOTH",
"906 650 LINE",
"919 720 LINE SMOOTH",
"935 813 OFFCURVE",
"829 930 OFFCURVE",
"673 930 QCURVE SMOOTH",
"516 930 OFFCURVE",
"365 843 OFFCURVE",
"354 769 QCURVE SMOOTH",
"353 764 LINE",
"164 764 LINE",
"165 769 LINE SMOOTH",
"187 904 OFFCURVE",
"483 1082 OFFCURVE",
"705 1082 QCURVE SMOOTH",
"927 1082 OFFCURVE",
"1141 900 OFFCURVE",
"1109 720 QCURVE SMOOTH",
"1024 240 LINE SMOOTH",
"1013 175 OFFCURVE",
"1015 60 OFFCURVE",
"1028 16 QCURVE",
"1025 0 LINE",
"842 0 LINE",
"831 25 OFFCURVE",
"818 105 OFFCURVE",
"822 145 QCURVE",
"767 78 OFFCURVE",
"538 -20 OFFCURVE",
"374 -20 QCURVE SMOOTH",
"200 -20 OFFCURVE",
"-15 140 OFFCURVE",
"13 310 QCURVE SMOOTH"
);
},
{
closed = 1;
nodes = (
"188 222 OFFCURVE",
"306 132 OFFCURVE",
"449 132 QCURVE SMOOTH",
"590 132 OFFCURVE",
"841 283 OFFCURVE",
"856 368 QCURVE",
"883 514 LINE",
"599 514 LINE SMOOTH",
"421 514 OFFCURVE",
"220 419 OFFCURVE",
"204 320 QCURVE SMOOTH"
);
}
);
width = 1258;
}
);
leftKerningGroup = a_LC;
rightKerningGroup = a_LC;
unicode = 0061;
},
{
glyphname = b;
layers = (
{
layerId = "F265E254-A92B-4432-B734-C31CE1135299";
paths = (
{
closed = 1;
nodes = (
"285 1536 LINE",
"475 1536 LINE",
"368 913 LINE",
"439 984 OFFCURVE",
"648 1072 OFFCURVE",
"787 1072 QCURVE SMOOTH",
"1020 1072 OFFCURVE",
"1247 772 OFFCURVE",
"1206 542 QCURVE SMOOTH",
"1200 510 LINE SMOOTH",
"1160 280 OFFCURVE",
"827 -20 OFFCURVE",
"594 -20 QCURVE SMOOTH",
"455 -20 OFFCURVE",
"264 81 OFFCURVE",
"223 152 QCURVE",
"220 152 LINE",
"188 0 LINE",
"15 0 LINE"
);
},
{
closed = 1;
nodes = (
"287 256 OFFCURVE",
"445 138 OFFCURVE",
"572 138 QCURVE SMOOTH",
"764 138 OFFCURVE",
"978 342 OFFCURVE",
"1006 510 QCURVE SMOOTH",
"1012 542 LINE SMOOTH",
"1040 710 OFFCURVE",
"903 914 OFFCURVE",
"711 914 QCURVE SMOOTH",
"584 914 OFFCURVE",
"387 796 OFFCURVE",
"334 720 QCURVE",
"259 332 LINE"
);
}
);
width = 1323;
}
);
leftKerningGroup = bhk_LC;
rightKerningGroup = b_LC;
unicode = 0062;
},
{
glyphname = c;
layers = (
{
layerId = "F265E254-A92B-4432-B734-C31CE1135299";
paths = (
{
closed = 1;
nodes = (
"49 542 LINE SMOOTH",
"91 780 OFFCURVE",
"447 1082 OFFCURVE",
"713 1082 QCURVE SMOOTH",
"959 1082 OFFCURVE",
"1174 854 OFFCURVE",
"1149 713 QCURVE SMOOTH",
"1148 708 LINE",
"965 708 LINE",
"966 713 LINE SMOOTH",
"980 807 OFFCURVE",
"852 925 OFFCURVE",
"686 925 QCURVE SMOOTH",
"493 925 OFFCURVE",
"271 713 OFFCURVE",
"242 542 QCURVE SMOOTH",
"237 510 LINE SMOOTH",
"208 339 OFFCURVE",
"351 127 OFFCURVE",
"543 127 QCURVE SMOOTH",
"709 127 OFFCURVE",
"884 245 OFFCURVE",
"899 339 QCURVE SMOOTH",
"900 344 LINE",
"1083 344 LINE",
"1082 339 LINE SMOOTH",
"1058 198 OFFCURVE",
"763 -30 OFFCURVE",
"517 -30 QCURVE SMOOTH",
"251 -30 OFFCURVE",
"1 272 OFFCURVE",
"43 510 QCURVE SMOOTH"
);
}
);
width = 1186;
}
);
leftKerningGroup = alpha;
rightKerningGroup = c_LC;
unicode = 0063;
},
{
glyphname = d;
layers = (
{
layerId = "F265E254-A92B-4432-B734-C31CE1135299";
paths = (
{
closed = 1;
nodes = (
"49 542 LINE SMOOTH",
"90 772 OFFCURVE",
"422 1072 OFFCURVE",
"655 1072 QCURVE SMOOTH",
"795 1072 OFFCURVE",
"976 984 OFFCURVE",
"1024 913 QCURVE",
"1131 1536 LINE",
"1321 1536 LINE",
"1050 0 LINE",
"877 0 LINE",
"892 152 LINE",
"888 152 LINE",
"826 81 OFFCURVE",
"602 -20 OFFCURVE",
"463 -20 QCURVE SMOOTH",
"230 -20 OFFCURVE",
"3 280 OFFCURVE",
"43 510 QCURVE SMOOTH"
);
},
{
closed = 1;
nodes = (
"208 342 OFFCURVE",
"348 138 OFFCURVE",
"537 138 QCURVE SMOOTH",
"665 138 OFFCURVE",
"864 256 OFFCURVE",
"915 332 QCURVE",
"990 720 LINE",
"964 796 OFFCURVE",
"804 914 OFFCURVE",
"676 914 QCURVE SMOOTH",
"487 914 OFFCURVE",
"271 710 OFFCURVE",
"242 542 QCURVE SMOOTH",
"237 510 LINE SMOOTH"
);
}
);
width = 1323;
}
);
leftKerningGroup = alpha;
unicode = 0064;
},
{
glyphname = e;
layers = (
{
layerId = "F265E254-A92B-4432-B734-C31CE1135299";
paths = (
{
closed = 1;
nodes = (
"49 542 LINE SMOOTH",
"91 780 OFFCURVE",
"449 1082 OFFCURVE",
"701 1082 QCURVE SMOOTH",
"953 1082 OFFCURVE",
"1174 800 OFFCURVE",
"1132 560 QCURVE SMOOTH",
"1118 481 LINE",
"148 481 LINE",
"174 634 LINE",
"954 634 LINE",
"958 632 LINE SMOOTH",
"978 768 OFFCURVE",
"855 924 OFFCURVE",
"674 924 QCURVE SMOOTH",
"494 924 OFFCURVE",
"269 713 OFFCURVE",
"240 542 QCURVE SMOOTH",
"235 510 LINE SMOOTH",
"206 339 OFFCURVE",
"362 128 OFFCURVE",
"566 128 QCURVE SMOOTH",
"689 128 OFFCURVE",
"883 218 OFFCURVE",
"947 279 QCURVE",
"1052 175 LINE",
"982 100 OFFCURVE",
"713 -30 OFFCURVE",
"539 -30 QCURVE SMOOTH",
"253 -30 OFFCURVE",
"1 272 OFFCURVE",
"43 510 QCURVE SMOOTH"
);
}
);
width = 1216;
}
);
leftKerningGroup = alpha;
rightKerningGroup = e_LC;
unicode = 0065;
},
{
glyphname = f;
layers = (
{
layerId = "F265E254-A92B-4432-B734-C31CE1135299";
paths = (
{
closed = 1;
nodes = (
"321 1176 LINE SMOOTH",
"351 1361 OFFCURVE",
"598 1556 OFFCURVE",
"783 1556 QCURVE SMOOTH",
"819 1556 OFFCURVE",
"894 1548 OFFCURVE",
"926 1540 QCURVE",
"889 1386 LINE",
"864 1390 OFFCURVE",
"808 1396 OFFCURVE",
"778 1396 QCURVE SMOOTH",
"666 1396 OFFCURVE",
"527 1286 OFFCURVE",
"509 1176 QCURVE SMOOTH",
"472 990 LINE",
"469 968 LINE",
"298 0 LINE",
"109 0 LINE"
);
},
{
closed = 1;
nodes = (
"81 1052 LINE",
"361 1052 LINE",
"415 1052 LINE",
"762 1052 LINE",
"737 904 LINE",
"56 904 LINE"
);
}
);
width = 696;
}
);
leftKerningGroup = f_LC;
rightKerningGroup = f_LC;
unicode = 0066;
},
{
glyphname = g;
layers = (
{
layerId = "F265E254-A92B-4432-B734-C31CE1135299";
paths = (
{
closed = 1;
nodes = (
"81 -140 LINE",
"128 -193 OFFCURVE",
"317 -270 OFFCURVE",
"444 -270 QCURVE SMOOTH",
"614 -270 OFFCURVE",
"839 -116 OFFCURVE",
"863 24 QCURVE SMOOTH",
"882 139 LINE",
"812 68 OFFCURVE",
"602 -20 OFFCURVE",
"463 -20 QCURVE SMOOTH",
"230 -20 OFFCURVE",
"3 280 OFFCURVE",
"43 510 QCURVE SMOOTH",
"49 542 LINE SMOOTH",
"90 772 OFFCURVE",
"422 1072 OFFCURVE",
"655 1072 QCURVE SMOOTH",
"795 1072 OFFCURVE",
"986 971 OFFCURVE",
"1025 900 QCURVE",
"1029 900 LINE",
"1063 1052 LINE",
"1236 1052 LINE",
"1054 24 LINE SMOOTH",
"1015 -198 OFFCURVE",
"666 -436 OFFCURVE",
"421 -436 QCURVE SMOOTH",
"269 -436 OFFCURVE",
"27 -350 OFFCURVE",
"-49 -284 QCURVE"
);
},
{
closed = 1;
nodes = (
"208 342 OFFCURVE",
"348 138 OFFCURVE",
"537 138 QCURVE SMOOTH",
"665 138 OFFCURVE",
"864 256 OFFCURVE",
"915 332 QCURVE",
"990 720 LINE",
"964 796 OFFCURVE",
"804 914 OFFCURVE",
"676 914 QCURVE SMOOTH",
"487 914 OFFCURVE",
"271 710 OFFCURVE",
"242 542 QCURVE SMOOTH",
"237 510 LINE SMOOTH"
);
}
);
width = 1323;
}
);
leftKerningGroup = alpha;
unicode = 0067;
},
{
glyphname = h;
layers = (
{
layerId = "F265E254-A92B-4432-B734-C31CE1135299";
paths = (
{
closed = 1;
nodes = (
"285 1536 LINE",
"475 1536 LINE",
"367 890 LINE",
"455 980 OFFCURVE",
"668 1072 OFFCURVE",
"794 1072 QCURVE SMOOTH",
"982 1072 OFFCURVE",
"1170 866 OFFCURVE",
"1133 624 QCURVE SMOOTH",
"1013 0 LINE",
"823 0 LINE",
"943 626 LINE SMOOTH",
"965 779 OFFCURVE",
"837 911 OFFCURVE",
"702 911 QCURVE SMOOTH",
"587 911 OFFCURVE",
"400 798 OFFCURVE",
"335 709 QCURVE",
"204 0 LINE",
"15 0 LINE"
);
}
);
width = 1276;
}
);
leftKerningGroup = bhk_LC;
rightKerningGroup = hmn_LC;
unicode = 0068;
},
{
glyphname = i;
layers = (
{
layerId = "F265E254-A92B-4432-B734-C31CE1135299";
paths = (
{
closed = 1;
nodes = (
"209 1052 LINE",
"398 1052 LINE",
"213 0 LINE",
"23 0 LINE"
);
},
{
closed = 1;
nodes = (
"249 1413 OFFCURVE",
"309 1476 OFFCURVE",
"364 1476 QCURVE SMOOTH",
"418 1476 OFFCURVE",
"474 1412 OFFCURVE",
"472 1366 QCURVE SMOOTH",
"469 1320 OFFCURVE",
"409 1258 OFFCURVE",
"355 1258 QCURVE SMOOTH",
"301 1258 OFFCURVE",
"244 1321 OFFCURVE",
"247 1368 QCURVE SMOOTH"
);
}
);
width = 494;
}
);
leftKerningGroup = i_LC;
rightKerningGroup = i_LC;
unicode = 0069;
},
{
glyphname = j;
layers = (
{
layerId = "F265E254-A92B-4432-B734-C31CE1135299";
paths = (
{
closed = 1;
nodes = (
"-328 -256 LINE",
"-306 -262 OFFCURVE",
"-222 -276 OFFCURVE",
"-188 -276 QCURVE SMOOTH",
"-112 -276 OFFCURVE",
"-14 -206 OFFCURVE",
"0 -126 QCURVE SMOOTH",
"209 1052 LINE",
"398 1052 LINE",
"197 -90 LINE SMOOTH",
"165 -270 OFFCURVE",
"-27 -436 OFFCURVE",
"-184 -436 QCURVE SMOOTH",
"-231 -436 OFFCURVE",
"-329 -418 OFFCURVE",
"-354 -410 QCURVE"
);
},
{
closed = 1;
nodes = (
"249 1413 OFFCURVE",
"309 1476 OFFCURVE",
"364 1476 QCURVE SMOOTH",
"418 1476 OFFCURVE",
"474 1412 OFFCURVE",
"472 1366 QCURVE SMOOTH",
"469 1320 OFFCURVE",
"409 1258 OFFCURVE",
"355 1258 QCURVE SMOOTH",
"301 1258 OFFCURVE",
"244 1321 OFFCURVE",
"247 1368 QCURVE SMOOTH"
);
}
);
width = 494;
}
);
rightKerningGroup = j_LC;
unicode = 006A;
},
{
glyphname = k;
layers = (
{
layerId = "F265E254-A92B-4432-B734-C31CE1135299";
paths = (
{
closed = 1;
nodes = (
"285 1536 LINE",
"475 1536 LINE",
"304 569 LINE",
"933 1052 LINE",
"1189 1052 LINE",
"266 354 LINE",
"204 0 LINE",
"15 0 LINE"
);
},
{
closed = 1;
nodes = (
"434 571 LINE",
"582 679 LINE",
"1050 0 LINE",
"828 0 LINE"
);
}
);
width = 1173;
}
);
leftKerningGroup = bhk_LC;
rightKerningGroup = k_LC;
unicode = 006B;
},
{
glyphname = l;
layers = (
{
layerId = "F265E254-A92B-4432-B734-C31CE1135299";
paths = (
{
closed = 1;
nodes = (
"293 1536 LINE",
"483 1536 LINE",
"212 0 LINE",
"22 0 LINE"
);
}
);
width = 493;
}
);
leftKerningGroup = bhk_LC;
rightKerningGroup = l_LC;
unicode = 006C;
},
{
glyphname = m;
layers = (
{
layerId = "F265E254-A92B-4432-B734-C31CE1135299";
paths = (
{
closed = 1;
nodes = (
"200 1052 LINE",
"373 1052 LINE",
"358 887 LINE",
"361 887 LINE",
"450 978 OFFCURVE",
"662 1072 OFFCURVE",
"785 1072 QCURVE SMOOTH",
"909 1072 OFFCURVE",
"1076 978 OFFCURVE",
"1105 874 QCURVE",
"1108 874 LINE",
"1207 980 OFFCURVE",
"1429 1072 OFFCURVE",
"1560 1072 QCURVE SMOOTH",
"1751 1072 OFFCURVE",
"1939 866 OFFCURVE",
"1902 624 QCURVE SMOOTH",
"1782 0 LINE",
"1594 0 LINE",
"1714 626 LINE SMOOTH",
"1734 779 OFFCURVE",
"1613 911 OFFCURVE",
"1482 911 QCURVE SMOOTH",
"1370 911 OFFCURVE",
"1190 797 OFFCURVE",
"1125 709 QCURVE",
"994 0 LINE",
"803 0 LINE",
"923 626 LINE SMOOTH",
"944 779 OFFCURVE",
"822 911 OFFCURVE",
"692 911 QCURVE SMOOTH",
"581 911 OFFCURVE",
"400 797 OFFCURVE",
"335 709 QCURVE",
"204 0 LINE",
"15 0 LINE"
);
}
);
width = 2046;
}
);
leftKerningGroup = mnpr_LC;
rightKerningGroup = hmn_LC;
unicode = 006D;
},
{
glyphname = n;
layers = (
{
layerId = "F265E254-A92B-4432-B734-C31CE1135299";
paths = (
{
closed = 1;
nodes = (
"200 1052 LINE",
"373 1052 LINE",
"358 887 LINE",
"361 887 LINE",
"451 980 OFFCURVE",
"668 1072 OFFCURVE",
"794 1072 QCURVE SMOOTH",
"982 1072 OFFCURVE",
"1170 866 OFFCURVE",
"1133 624 QCURVE SMOOTH",
"1013 0 LINE",
"823 0 LINE",
"943 626 LINE SMOOTH",
"965 778 OFFCURVE",
"837 911 OFFCURVE",
"702 911 QCURVE SMOOTH",
"588 911 OFFCURVE",
"400 798 OFFCURVE",
"335 709 QCURVE",
"204 0 LINE",
"15 0 LINE"
);
}
);
width = 1276;
}
);
leftKerningGroup = mnpr_LC;
rightKerningGroup = hmn_LC;
unicode = 006E;
},
{
glyphname = o;
layers = (
{
layerId = "F265E254-A92B-4432-B734-C31CE1135299";
paths = (
{
closed = 1;
nodes = (
"49 542 LINE SMOOTH",
"91 780 OFFCURVE",
"460 1082 OFFCURVE",
"724 1082 QCURVE SMOOTH",
"989 1082 OFFCURVE",
"1251 780 OFFCURVE",
"1209 542 QCURVE SMOOTH",
"1204 510 LINE SMOOTH",
"1162 272 OFFCURVE",
"793 -30 OFFCURVE",
"528 -30 QCURVE SMOOTH",
"264 -30 OFFCURVE",
"1 272 OFFCURVE",
"43 510 QCURVE SMOOTH"
);
},
{
closed = 1;
nodes = (
"237 510 LINE SMOOTH",
"208 340 OFFCURVE",
"364 128 OFFCURVE",
"555 128 QCURVE SMOOTH",
"747 128 OFFCURVE",
"982 340 OFFCURVE",
"1010 510 QCURVE SMOOTH",
"1016 542 LINE SMOOTH",
"1045 712 OFFCURVE",
"889 924 OFFCURVE",
"698 924 QCURVE SMOOTH",
"506 924 OFFCURVE",
"271 712 OFFCURVE",
"242 542 QCURVE SMOOTH"
);
}
);
width = 1325;
}
);
leftKerningGroup = o_LC;
rightKerningGroup = o_LC;
unicode = 006F;
},
{
glyphname = p;
layers = (
{
layerId = "F265E254-A92B-4432-B734-C31CE1135299";
paths = (
{
closed = 1;
nodes = (
"200 1052 LINE",
"373 1052 LINE",
"358 900 LINE",
"360 900 LINE",
"425 971 OFFCURVE",
"648 1072 OFFCURVE",
"787 1072 QCURVE SMOOTH",
"1020 1072 OFFCURVE",
"1247 772 OFFCURVE",
"1206 542 QCURVE SMOOTH",
"1200 510 LINE SMOOTH",
"1160 280 OFFCURVE",
"827 -20 OFFCURVE",
"594 -20 QCURVE SMOOTH",
"455 -20 OFFCURVE",
"274 68 OFFCURVE",
"226 139 QCURVE",
"131 -416 LINE",
"-59 -416 LINE"
);
},
{
closed = 1;
nodes = (
"286 256 OFFCURVE",
"445 138 OFFCURVE",
"572 138 QCURVE SMOOTH",
"763 138 OFFCURVE",
"978 342 OFFCURVE",
"1006 510 QCURVE SMOOTH",
"1012 542 LINE SMOOTH",
"1040 710 OFFCURVE",
"902 914 OFFCURVE",
"711 914 QCURVE SMOOTH",
"584 914 OFFCURVE",
"387 796 OFFCURVE",
"334 720 QCURVE",
"259 332 LINE"
);
}
);
width = 1323;
}
);
leftKerningGroup = mnpr_LC;
rightKerningGroup = b_LC;
unicode = 0070;
},
{
glyphname = q;
layers = (
{
layerId = "F265E254-A92B-4432-B734-C31CE1135299";
paths = (
{
closed = 1;
nodes = (
"49 542 LINE SMOOTH",
"90 772 OFFCURVE",
"422 1072 OFFCURVE",
"655 1072 QCURVE SMOOTH",
"795 1072 OFFCURVE",
"986 971 OFFCURVE",
"1025 900 QCURVE",
"1029 900 LINE",
"1063 1052 LINE",
"1236 1052 LINE",
"977 -416 LINE",
"787 -416 LINE",
"882 139 LINE",
"882 139 LINE",
"812 68 OFFCURVE",
"602 -20 OFFCURVE",
"463 -20 QCURVE SMOOTH",
"230 -20 OFFCURVE",
"3 280 OFFCURVE",
"43 510 QCURVE SMOOTH"
);
},
{
closed = 1;
nodes = (
"208 342 OFFCURVE",
"348 138 OFFCURVE",
"537 138 QCURVE SMOOTH",
"665 138 OFFCURVE",
"864 256 OFFCURVE",
"915 332 QCURVE",
"990 720 LINE",
"964 796 OFFCURVE",
"804 914 OFFCURVE",
"676 914 QCURVE SMOOTH",
"487 914 OFFCURVE",
"271 710 OFFCURVE",
"242 542 QCURVE SMOOTH",
"237 510 LINE SMOOTH"
);
}
);
width = 1323;
}
);
leftKerningGroup = alpha;
unicode = 0071;
},
{
glyphname = r;
layers = (
{
layerId = "F265E254-A92B-4432-B734-C31CE1135299";
paths = (
{
closed = 1;
nodes = (
"200 1052 LINE",
"373 1052 LINE",
"358 897 LINE",
"361 897 LINE",
"425 970 OFFCURVE",
"608 1082 OFFCURVE",
"722 1082 QCURVE SMOOTH",
"747 1082 OFFCURVE",
"801 1072 OFFCURVE",
"812 1068 QCURVE",
"782 890 LINE",
"759 894 OFFCURVE",
"710 898 OFFCURVE",
"680 898 QCURVE SMOOTH",
"564 898 OFFCURVE",
"387 792 OFFCURVE",
"334 714 QCURVE",
"204 0 LINE",
"15 0 LINE"
);
}
);
width = 782;
}
);
leftKerningGroup = mnpr_LC;
rightKerningGroup = r_LC;
unicode = 0072;
},
{
glyphname = s;
layers = (
{
layerId = "F265E254-A92B-4432-B734-C31CE1135299";
paths = (
{
closed = 1;
nodes = (
"183 312 LINE",
"182 306 LINE SMOOTH",
"167 217 OFFCURVE",
"333 126 OFFCURVE",
"473 126 QCURVE SMOOTH",
"616 126 OFFCURVE",
"792 207 OFFCURVE",
"804 281 QCURVE SMOOTH",
"816 350 OFFCURVE",
"701 417 OFFCURVE",
"499 462 QCURVE SMOOTH",
"298 507 OFFCURVE",
"113 674 OFFCURVE",
"136 804 QCURVE SMOOTH",
"159 935 OFFCURVE",
"432 1082 OFFCURVE",
"644 1082 QCURVE SMOOTH",
"855 1082 OFFCURVE",
"1080 907 OFFCURVE",
"1059 773 QCURVE SMOOTH",
"1056 754 LINE",
"876 754 LINE",
"878 768 LINE SMOOTH",
"889 847 OFFCURVE",
"761 926 OFFCURVE",
"617 926 QCURVE SMOOTH",
"473 926 OFFCURVE",
"331 853 OFFCURVE",
"321 789 QCURVE SMOOTH",
"310 730 OFFCURVE",
"427 667 OFFCURVE",
"629 623 QCURVE SMOOTH",
"829 579 OFFCURVE",
"1018 408 OFFCURVE",
"993 268 QCURVE SMOOTH",
"969 127 OFFCURVE",
"693 -30 OFFCURVE",
"446 -30 QCURVE SMOOTH",
"201 -30 OFFCURVE",
"-24 154 OFFCURVE",
"2 306 QCURVE SMOOTH",
"3 312 LINE"
);
}
);
width = 1152;
}
);
leftKerningGroup = s_LC;
rightKerningGroup = s_LC;
unicode = 0073;
},
{
glyphname = t;
layers = (
{
layerId = "F265E254-A92B-4432-B734-C31CE1135299";
paths = (
{
closed = 1;
nodes = (
"56 1052 LINE",
"755 1052 LINE",
"730 904 LINE",
"31 904 LINE"
);
},
{
closed = 1;
nodes = (
"270 964 LINE",
"275 994 LINE",
"331 1312 LINE",
"520 1312 LINE",
"335 264 LINE SMOOTH",
"322 194 OFFCURVE",
"378 134 OFFCURVE",
"449 134 QCURVE SMOOTH",
"482 134 OFFCURVE",
"546 146 OFFCURVE",
"580 156 QCURVE",
"553 0 LINE",
"523 -12 OFFCURVE",
"425 -30 OFFCURVE",
"369 -30 QCURVE SMOOTH",
"244 -30 OFFCURVE",
"119 112 OFFCURVE",
"145 264 QCURVE SMOOTH"
);
}
);
width = 748;
}
);
leftKerningGroup = t_LC;
rightKerningGroup = t_LC;
unicode = 0074;
},
{
glyphname = u;
layers = (
{
layerId = "F265E254-A92B-4432-B734-C31CE1135299";
paths = (
{
closed = 1;
nodes = (
"190 1052 LINE",
"380 1052 LINE",
"260 426 LINE SMOOTH",
"237 273 OFFCURVE",
"366 141 OFFCURVE",
"501 141 QCURVE SMOOTH",
"615 141 OFFCURVE",
"802 254 OFFCURVE",
"867 343 QCURVE",
"998 1052 LINE",
"1189 1052 LINE",
"1003 0 LINE",
"830 0 LINE",
"844 165 LINE",
"842 165 LINE",
"753 72 OFFCURVE",
"535 -20 OFFCURVE",
"409 -20 QCURVE SMOOTH",
"222 -20 OFFCURVE",
"33 186 OFFCURVE",
"71 428 QCURVE SMOOTH"
);
}
);
width = 1276;
}
);
leftKerningGroup = u_LC;
rightKerningGroup = u_LC;
unicode = 0075;
},
{
glyphname = v;
layers = (
{
layerId = "F265E254-A92B-4432-B734-C31CE1135299";
paths = (
{
closed = 1;
nodes = (
"237 1052 LINE",
"411 354 LINE SMOOTH",
"421 314 OFFCURVE",
"437 234 OFFCURVE",
"444 194 QCURVE",
"449 194 LINE",
"464 234 OFFCURVE",
"504 315 OFFCURVE",
"528 354 QCURVE SMOOTH",
"951 1052 LINE",
"1153 1052 LINE",
"498 0 LINE",
"341 0 LINE",
"56 1052 LINE"
);
}
);
width = 1097;
}
);
leftKerningGroup = gamma;
rightKerningGroup = gamma;
unicode = 0076;
},
{
glyphname = w;
layers = (
{
layerId = "F265E254-A92B-4432-B734-C31CE1135299";
paths = (
{
closed = 1;
nodes = (
"266 1052 LINE",
"376 354 LINE SMOOTH",
"382 314 OFFCURVE",
"397 234 OFFCURVE",
"398 194 QCURVE",
"403 194 LINE",
"418 234 OFFCURVE",
"449 314 OFFCURVE",
"472 354 QCURVE SMOOTH",
"864 1052 LINE",
"1042 1052 LINE",
"1189 354 LINE SMOOTH",
"1197 314 OFFCURVE",
"1212 234 OFFCURVE",
"1213 194 QCURVE",
"1219 194 LINE",
"1233 234 OFFCURVE",
"1267 314 OFFCURVE",
"1287 354 QCURVE SMOOTH",
"1639 1052 LINE",
"1825 1052 LINE",
"1265 0 LINE",
"1097 0 LINE",
"946 686 LINE SMOOTH",
"937 726 OFFCURVE",
"924 806 OFFCURVE",
"919 846 QCURVE",
"913 846 LINE",
"893 806 OFFCURVE",
"852 726 OFFCURVE",
"829 686 QCURVE SMOOTH",
"438 0 LINE",
"270 0 LINE",
"81 1052 LINE"
);
}
);
width = 1792;
}
);
leftKerningGroup = w_LC;
rightKerningGroup = w_LC;
unicode = 0077;
},
{
glyphname = x;
layers = (
{
layerId = "F265E254-A92B-4432-B734-C31CE1135299";
paths = (
{
closed = 1;
nodes = (
"454 582 LINE",
"471 582 LINE",
"904 1052 LINE",
"1133 1052 LINE",
"589 484 LINE",
"572 484 LINE",
"120 0 LINE",
"-110 0 LINE"
);
},
{
closed = 1;
nodes = (
"328 1052 LINE",
"594 582 LINE",
"603 582 LINE",
"961 0 LINE",
"742 0 LINE",
"463 484 LINE",
"454 484 LINE",
"109 1052 LINE"
);
}
);
width = 1120;
}
);
unicode = 0078;
},
{
glyphname = y;
layers = (
{
layerId = "F265E254-A92B-4432-B734-C31CE1135299";
paths = (
{
closed = 1;
nodes = (
"-116 -254 LINE",
"-86 -262 OFFCURVE",
"-14 -272 OFFCURVE",
"20 -272 QCURVE SMOOTH",
"105 -272 OFFCURVE",
"235 -196 OFFCURVE",
"345 9 QCURVE",
"345 10 LINE",
"66 1052 LINE",
"253 1052 LINE",
"430 354 LINE SMOOTH",
"440 314 OFFCURVE",
"458 234 OFFCURVE",
"462 194 QCURVE",
"468 194 LINE",
"484 234 OFFCURVE",
"524 315 OFFCURVE",
"547 354 QCURVE SMOOTH",
"961 1052 LINE",
"1157 1052 LINE",
"433 -140 LINE SMOOTH",
"348 -278 OFFCURVE",
"139 -436 OFFCURVE",
"5 -436 QCURVE SMOOTH",
"-42 -436 OFFCURVE",
"-112 -426 OFFCURVE",
"-144 -416 QCURVE"
);
}
);
width = 1095;
}
);
leftKerningGroup = gamma;
rightKerningGroup = gamma;
unicode = 0079;
},
{
glyphname = z;
layers = (
{
layerId = "F265E254-A92B-4432-B734-C31CE1135299";
paths = (
{
closed = 1;
nodes = (
"-37 141 LINE",
"807 894 LINE",
"107 894 LINE",
"134 1052 LINE",
"1090 1052 LINE",
"1066 914 LINE",
"219 158 LINE",
"966 158 LINE",
"939 0 LINE",
"-61 0 LINE"
);
}
);
width = 1130;
}
);
leftKerningGroup = z_LC;
rightKerningGroup = z_LC;
unicode = 007A;
},
{
glyphname = germandbls;
layers = (
{
layerId = "F265E254-A92B-4432-B734-C31CE1135299";
paths = (
{
closed = 1;
nodes = (
"351 0 LINE",
"156 0 LINE",
"156 1092 LINE SMOOTH",
"156 1295 OFFCURVE",
"385 1534 OFFCURVE",
"612 1534 QCURVE SMOOTH",
"800 1534 OFFCURVE",
"1026 1361 OFFCURVE",
"1026 1215 QCURVE SMOOTH",
"1026 1127 OFFCURVE",
"968 1016 OFFCURVE",
"926 973 QCURVE SMOOTH",
"890 935 OFFCURVE",
"822 859 OFFCURVE",
"822 830 QCURVE SMOOTH",
"822 782 OFFCURVE",
"974 681 OFFCURVE",
"1067 619 QCURVE SMOOTH",
"1156 560 OFFCURVE",
"1278 411 OFFCURVE",
"1278 282 QCURVE SMOOTH",
"1278 157 OFFCURVE",
"1029 -20 OFFCURVE",
"838 -20 QCURVE SMOOTH",
"651 -20 OFFCURVE",
"426 129 OFFCURVE",
"426 278 QCURVE SMOOTH",
"426 304 LINE",
"608 304 LINE",
"608 295 LINE SMOOTH",
"608 211 OFFCURVE",
"732 131 OFFCURVE",
"841 131 QCURVE SMOOTH",
"956 131 OFFCURVE",
"1083 218 OFFCURVE",
"1083 302 QCURVE SMOOTH",
"1083 371 OFFCURVE",
"965 466 OFFCURVE",
"900 512 QCURVE SMOOTH",
"818 569 OFFCURVE",
"622 706 OFFCURVE",
"622 797 QCURVE SMOOTH",
"622 871 OFFCURVE",
"716 982 OFFCURVE",
"753 1026 QCURVE SMOOTH",
"786 1066 OFFCURVE",
"826 1149 OFFCURVE",
"826 1204 QCURVE SMOOTH",
"826 1293 OFFCURVE",
"701 1383 OFFCURVE",
"608 1383 QCURVE SMOOTH",
"490 1383 OFFCURVE",
"351 1241 OFFCURVE",
"351 1092 QCURVE {name = hr00;}"
);
}
);
width = 1319;
}
);
unicode = 00DF;
},
{
glyphname = ae;
layers = (
{
layerId = "F265E254-A92B-4432-B734-C31CE1135299";
paths = (
{
closed = 1;
nodes = (
"285 222 OFFCURVE",
"424 132 OFFCURVE",
"570 132 QCURVE SMOOTH",
"714 132 OFFCURVE",
"944 283 OFFCURVE",
"944 368 QCURVE",
"944 514 LINE",
"654 514 LINE SMOOTH",
"472 514 OFFCURVE",
"285 419 OFFCURVE",
"285 320 QCURVE SMOOTH"
);
},
{
closed = 1;
nodes = (
"90 481 OFFCURVE",
"394 650 OFFCURVE",
"630 650 QCURVE SMOOTH",
"944 650 LINE",
"944 720 LINE SMOOTH",
"944 813 OFFCURVE",
"814 930 OFFCURVE",
"654 930 QCURVE SMOOTH",
"494 930 OFFCURVE",
"357 843 OFFCURVE",
"357 769 QCURVE SMOOTH",
"357 764 LINE",
"163 764 LINE",
"163 769 LINE SMOOTH",
"163 904 OFFCURVE",
"432 1082 OFFCURVE",
"660 1082 QCURVE SMOOTH",
"814 1082 OFFCURVE",
"1031 999 OFFCURVE",
"1086 918 QCURVE",
"1160 995 OFFCURVE",
"1380 1082 OFFCURVE",
"1515 1082 QCURVE SMOOTH",
"1773 1082 OFFCURVE",
"2051 800 OFFCURVE",
"2051 560 QCURVE SMOOTH",
"2051 481 LINE",
"1057 481 LINE",
"1057 634 LINE",
"1855 634 LINE",
"1855 640 LINE",
"1854 769 OFFCURVE",
"1699 924 OFFCURVE",
"1515 924 QCURVE SMOOTH",
"1331 924 OFFCURVE",
"1141 713 OFFCURVE",
"1141 542 QCURVE SMOOTH",
"1141 510 LINE SMOOTH",
"1141 339 OFFCURVE",
"1341 128 OFFCURVE",
"1550 128 QCURVE SMOOTH",
"1676 128 OFFCURVE",
"1859 218 OFFCURVE",
"1914 279 QCURVE",
"2039 175 LINE",
"1981 100 OFFCURVE",
"1729 -30 OFFCURVE",
"1550 -30 QCURVE SMOOTH",
"1363 -30 OFFCURVE",
"1097 98 OFFCURVE",
"1026 209 QCURVE",
"947 86 OFFCURVE",
"689 -20 OFFCURVE",
"520 -20 QCURVE SMOOTH",
"342 -20 OFFCURVE",
"90 140 OFFCURVE",
"90 310 QCURVE SMOOTH"
);
}
);
width = 2107;
}
);
leftKerningGroup = a_LC;
rightKerningGroup = e_LC;
unicode = 00E6;
},
{
glyphname = eth;
layers = (
{
layerId = "F265E254-A92B-4432-B734-C31CE1135299";
paths = (
{
closed = 1;
nodes = (
"281 1581 LINE",
"618 1506 OFFCURVE",
"1169 1008 OFFCURVE",
"1169 633 QCURVE",
"1169 535 LINE",
"1169 293 OFFCURVE",
"866 -20 OFFCURVE",
"631 -20 QCURVE SMOOTH",
"393 -20 OFFCURVE",
"85 255 OFFCURVE",
"85 468 QCURVE SMOOTH",
"85 691 OFFCURVE",
"377 978 OFFCURVE",
"603 978 QCURVE SMOOTH",
"804 978 OFFCURVE",
"1063 772 OFFCURVE",
"1063 613 QCURVE",
"994 614 LINE",
"994 707 OFFCURVE",
"798 826 OFFCURVE",
"647 826 QCURVE SMOOTH",
"487 826 OFFCURVE",
"281 624 OFFCURVE",
"281 468 QCURVE SMOOTH",
"281 321 OFFCURVE",
"481 132 OFFCURVE",
"635 132 QCURVE SMOOTH",
"782 132 OFFCURVE",
"973 359 OFFCURVE",
"973 535 QCURVE SMOOTH",
"973 635 LINE SMOOTH",
"973 984 OFFCURVE",
"478 1355 OFFCURVE",
"224 1421 QCURVE"
);
},
{
closed = 1;
nodes = (
"410 1061 LINE",
"327 1181 LINE",
"984 1546 LINE",
"1067 1427 LINE"
);
}
);
width = 1227;
}
);
unicode = 00F0;
},
{
glyphname = thorn;
layers = (
{
layerId = "F265E254-A92B-4432-B734-C31CE1135299";
paths = (
{
closed = 1;
nodes = (
"148 1536 LINE",
"338 1536 LINE",
"338 900 LINE",
"392 971 OFFCURVE",
"604 1072 OFFCURVE",
"746 1072 QCURVE SMOOTH",
"985 1072 OFFCURVE",
"1272 772 OFFCURVE",
"1272 542 QCURVE SMOOTH",
"1272 510 LINE SMOOTH",
"1272 280 OFFCURVE",
"985 -20 OFFCURVE",
"746 -20 QCURVE SMOOTH",
"604 -20 OFFCURVE",
"404 68 OFFCURVE",
"347 139 QCURVE",
"343 139 LINE",
"343 -416 LINE",
"148 -416 LINE"
);
},
{
closed = 1;
nodes = (
"383 256 OFFCURVE",
"566 138 OFFCURVE",
"696 138 QCURVE SMOOTH",
"891 138 OFFCURVE",
"1072 342 OFFCURVE",
"1072 510 QCURVE SMOOTH",
"1072 542 LINE SMOOTH",
"1072 710 OFFCURVE",
"891 914 OFFCURVE",
"696 914 QCURVE SMOOTH",
"566 914 OFFCURVE",
"384 796 OFFCURVE",
"343 720 QCURVE",
"343 332 LINE"
);
}
);
width = 1358;
}
);
rightKerningGroup = b_LC;
unicode = 00FE;
},
{
glyphname = kgreenlandic;
layers = (
{
layerId = "F265E254-A92B-4432-B734-C31CE1135299";
paths = (
{
closed = 1;
nodes = (
"343 0 LINE",
"148 0 LINE",
"148 1052 LINE",
"343 1052 LINE"
);
},
{
closed = 1;
nodes = (
"647 462 LINE",
"250 462 LINE",
"250 624 LINE",
"553 624 LINE",
"923 1052 LINE",
"1156 1052 LINE"
);
},
{
closed = 1;
nodes = (
"534 490 LINE",
"662 624 LINE",
"1218 0 LINE",
"975 0 LINE"
);
}
);
width = 1204;
}
);
leftKerningGroup = mnpr_LC;
rightKerningGroup = k_LC;
unicode = 0138;
},
{
glyphname = oe;
layers = (
{
layerId = "F265E254-A92B-4432-B734-C31CE1135299";
paths = (
{
closed = 1;
nodes = (
"284 510 LINE SMOOTH",
"284 340 OFFCURVE",
"484 128 OFFCURVE",
"680 128 QCURVE SMOOTH",
"876 128 OFFCURVE",
"1076 340 OFFCURVE",
"1076 510 QCURVE SMOOTH",
"1076 542 LINE SMOOTH",
"1076 712 OFFCURVE",
"876 924 OFFCURVE",
"680 924 QCURVE SMOOTH",
"484 924 OFFCURVE",
"284 712 OFFCURVE",
"284 542 QCURVE SMOOTH"
);
},
{
closed = 1;
nodes = (
"1237 984 OFFCURVE",
"1486 1109 OFFCURVE",
"1649 1109 QCURVE SMOOTH",
"1907 1109 OFFCURVE",
"2185 827 OFFCURVE",
"2185 587 QCURVE SMOOTH",
"2185 508 LINE",
"1191 508 LINE",
"1191 661 LINE",
"1989 661 LINE",
"1989 667 LINE",
"1988 796 OFFCURVE",
"1833 951 OFFCURVE",
"1649 951 QCURVE SMOOTH",
"1465 951 OFFCURVE",
"1275 740 OFFCURVE",
"1275 569 QCURVE SMOOTH",
"1275 537 LINE SMOOTH",
"1275 366 OFFCURVE",
"1475 155 OFFCURVE",
"1684 155 QCURVE SMOOTH",
"1810 155 OFFCURVE",
"1993 245 OFFCURVE",
"2048 306 QCURVE",
"2173 202 LINE",
"2115 127 OFFCURVE",
"1863 -3 OFFCURVE",
"1684 -3 QCURVE SMOOTH",
"1512 -3 OFFCURVE",
"1259 106 OFFCURVE",
"1184 201 QCURVE",
"1110 94 OFFCURVE",
"850 -30 OFFCURVE",
"680 -30 QCURVE SMOOTH",
"409 -30 OFFCURVE",
"85 272 OFFCURVE",
"85 510 QCURVE SMOOTH",
"85 542 LINE SMOOTH",
"85 780 OFFCURVE",
"409 1082 OFFCURVE",
"680 1082 QCURVE SMOOTH",
"840 1082 OFFCURVE",
"1089 972 OFFCURVE",
"1165 876 QCURVE"
);
}
);
width = 2241;
}
);
leftKerningGroup = alpha;
rightKerningGroup = e_LC;
unicode = 0153;
},
{
glyphname = schwa;
layers = (
{
layerId = "F265E254-A92B-4432-B734-C31CE1135299";
paths = (
{
closed = 1;
nodes = (
"1163 510 LINE SMOOTH",
"1163 272 OFFCURVE",
"850 -30 OFFCURVE",
"592 -30 QCURVE SMOOTH",
"334 -30 OFFCURVE",
"56 252 OFFCURVE",
"56 492 QCURVE SMOOTH",
"56 571 LINE",
"1050 571 LINE",
"1050 418 LINE",
"252 418 LINE",
"252 420 LINE",
"252 284 OFFCURVE",
"407 128 OFFCURVE",
"592 128 QCURVE SMOOTH",
"776 128 OFFCURVE",
"966 339 OFFCURVE",
"966 510 QCURVE SMOOTH",
"966 542 LINE SMOOTH",
"966 713 OFFCURVE",
"766 924 OFFCURVE",
"557 924 QCURVE SMOOTH",
"431 924 OFFCURVE",
"248 834 OFFCURVE",
"193 773 QCURVE",
"68 877 LINE",
"126 952 OFFCURVE",
"378 1082 OFFCURVE",
"557 1082 QCURVE SMOOTH",
"850 1082 OFFCURVE",
"1163 780 OFFCURVE",
"1163 542 QCURVE SMOOTH"
);
}
);
width = 1248;
}
);
rightKerningGroup = o_LC;
unicode = 0259;
},
{
glyphname = primemod;
layers = (
{
layerId = "F265E254-A92B-4432-B734-C31CE1135299";
paths = (
{
closed = 1;
nodes = (
"413 1502 LINE",
"294 991 LINE",
"172 996 LINE",
"224 1502 LINE"
);
}
);
width = 600;
}
);
unicode = 02B9;
},
{
glyphname = doubleprimemod;
layers = (
{
layerId = "F265E254-A92B-4432-B734-C31CE1135299";
paths = (
{
closed = 1;
nodes = (
"413 1502 LINE",
"295 1004 LINE",
"173 1009 LINE",
"224 1502 LINE"
);
},
{
closed = 1;
nodes = (
"713 1502 LINE",
"595 1004 LINE",
"473 1009 LINE",
"524 1502 LINE"
);
}
);
width = 788;
}
);
unicode = 02BA;
},
{
glyphname = apostrophemod;
layers = (
{
layerId = "F265E254-A92B-4432-B734-C31CE1135299";
paths = (
{
closed = 1;
nodes = (
"195 1092 OFFCURVE",
"299 1210 OFFCURVE",
"314 1277 QCURVE",
"243 1277 OFFCURVE",
"163 1352 OFFCURVE",
"163 1411 QCURVE SMOOTH",
"163 1469 OFFCURVE",
"244 1546 OFFCURVE",
"307 1546 QCURVE SMOOTH",
"366 1546 OFFCURVE",
"462 1450 OFFCURVE",
"462 1373 QCURVE SMOOTH",
"462 1251 OFFCURVE",
"303 1063 OFFCURVE",
"198 1013 QCURVE",
"155 1062 LINE"
);
}
);
width = 600;
}
);
leftKerningGroup = minute;
rightKerningGroup = minute;
unicode = 02BC;
},
{
glyphname = ordfeminine;
layers = (
{
guideLines = (
{
position = "{0, 1681}";
},
{
position = "{0, 909}";
}
);
layerId = "F265E254-A92B-4432-B734-C31CE1135299";
paths = (
{
closed = 1;
nodes = (
"721 821 OFFCURVE",
"741 736 OFFCURVE",
"764 706 QCURVE",
"909 706 LINE",
"895 749 OFFCURVE",
"883 838 OFFCURVE",
"883 887 QCURVE SMOOTH",
"883 1201 LINE SMOOTH",
"883 1334 OFFCURVE",
"697 1477 OFFCURVE",
"524 1477 QCURVE SMOOTH",
"344 1477 OFFCURVE",
"156 1365 OFFCURVE",
"160 1261 QCURVE SMOOTH",
"160 1234 LINE",
"325 1234 LINE",
"325 1247 LINE SMOOTH",
"325 1292 OFFCURVE",
"429 1340 OFFCURVE",
"526 1340 QCURVE SMOOTH",
"620 1340 OFFCURVE",
"721 1268 OFFCURVE",
"721 1202 QCURVE SMOOTH",
"721 862 LINE"
);
},
{
closed = 1;
nodes = (
"537 1152 LINE SMOOTH",
"344 1152 OFFCURVE",
"136 1031 OFFCURVE",
"136 918 QCURVE SMOOTH",
"136 809 OFFCURVE",
"297 692 OFFCURVE",
"447 692 QCURVE SMOOTH",
"548 692 OFFCURVE",
"739 788 OFFCURVE",
"761 837 QCURVE",
"743 955 LINE",
"743 905 OFFCURVE",
"586 828 OFFCURVE",
"486 828 QCURVE SMOOTH",
"398 828 OFFCURVE",
"303 877 OFFCURVE",
"303 922 QCURVE SMOOTH",
"303 978 OFFCURVE",
"425 1039 OFFCURVE",
"538 1039 QCURVE SMOOTH",
"755 1039 LINE",
"755 1152 LINE"
);
}
);
width = 1029;
}
);
unicode = 00AA;
userData = {
com.typemytype.robofont.guideline.magnetic.3CJlALCfkl = 5;
com.typemytype.robofont.guideline.magnetic.Zdl6NZVQAy = 5;
};
},
{
glyphname = ordmasculine;
layers = (
{
guideLines = (
{
position = "{0, 1975}";
}
);
layerId = "F265E254-A92B-4432-B734-C31CE1135299";
paths = (
{
closed = 1;
nodes = (
"123 1124 LINE",
"123 1278 OFFCURVE",
"355 1477 OFFCURVE",
"535 1477 QCURVE SMOOTH",
"715 1477 OFFCURVE",
"947 1278 OFFCURVE",
"947 1124 QCURVE",
"947 1043 LINE",
"947 889 OFFCURVE",
"716 691 OFFCURVE",
"537 691 QCURVE SMOOTH",
"356 691 OFFCURVE",
"123 889 OFFCURVE",
"123 1043 QCURVE"
);
},
{
closed = 1;
nodes = (
"296 1043 LINE",
"296 953 OFFCURVE",
"432 836 OFFCURVE",
"537 836 QCURVE SMOOTH",
"641 836 OFFCURVE",
"775 953 OFFCURVE",
"775 1043 QCURVE",
"775 1124 LINE",
"775 1213 OFFCURVE",
"640 1329 OFFCURVE",
"535 1329 QCURVE SMOOTH",
"431 1329 OFFCURVE",
"296 1213 OFFCURVE",
"296 1124 QCURVE"
);
}
);
width = 1070;
}
);
unicode = 00BA;
userData = {
com.typemytype.robofont.guideline.magnetic.Jnt0R9CyOf = 5;
};
},
{
glyphname = hookabovecomb;
layers = (
{
layerId = "F265E254-A92B-4432-B734-C31CE1135299";
paths = (
{
closed = 1;
nodes = (
"454 1186 LINE SMOOTH",
"454 1238 OFFCURVE",
"513 1308 OFFCURVE",
"589 1319 QCURVE SMOOTH",
"645 1327 OFFCURVE",
"685 1359 OFFCURVE",
"685 1400 QCURVE SMOOTH",
"685 1439 OFFCURVE",
"626 1475 OFFCURVE",
"572 1475 QCURVE SMOOTH",
"508 1475 OFFCURVE",
"396 1442 OFFCURVE",
"386 1434 QCURVE",
"332 1559 LINE",
"367 1578 OFFCURVE",
"521 1619 OFFCURVE",
"603 1619 QCURVE SMOOTH",
"723 1619 OFFCURVE",
"848 1505 OFFCURVE",
"848 1409 QCURVE SMOOTH",
"848 1308 OFFCURVE",
"720 1189 OFFCURVE",
"577 1178 QCURVE",
"577 1147 LINE",
"454 1147 LINE"
);
}
);
width = 1024;
}
);
unicode = 0309;
},
{
glyphname = breveinvertedcomb;
layers = (
{
layerId = "F265E254-A92B-4432-B734-C31CE1135299";
paths = (
{
closed = 1;
nodes = (
"177 1252 LINE",
"212 1351 OFFCURVE",
"387 1518 OFFCURVE",
"513 1518 QCURVE SMOOTH",
"626 1518 OFFCURVE",
"807 1365 OFFCURVE",
"849 1251 QCURVE",
"745 1198 LINE",
"710 1255 OFFCURVE",
"591 1354 OFFCURVE",
"512 1354 QCURVE SMOOTH",
"428 1354 OFFCURVE",
"308 1259 OFFCURVE",
"272 1198 QCURVE"
);
}
);
width = 1024;
}
);
unicode = 030F;
},
{
glyphname = horncomb;
layers = (
{
layerId = "F265E254-A92B-4432-B734-C31CE1135299";
paths = (
{
closed = 1;
nodes = (
"84 998 LINE SMOOTH",
"132 998 OFFCURVE",
"204 1032 OFFCURVE",
"204 1084 QCURVE SMOOTH",
"204 1130 OFFCURVE",
"191 1203 OFFCURVE",
"181 1239 QCURVE",
"327 1239 LINE",
"347 1206 OFFCURVE",
"380 1103 OFFCURVE",
"380 1039 QCURVE SMOOTH",
"380 951 OFFCURVE",
"240 866 OFFCURVE",
"144 866 QCURVE SMOOTH",
"98 866 OFFCURVE",
"26 878 OFFCURVE",
"0 887 QCURVE",
"0 998 LINE"
);
}
);
width = 1024;
}
);
unicode = 031B;
},
{
glyphname = dotbelowcomb;
layers = (
{
layerId = "F265E254-A92B-4432-B734-C31CE1135299";
paths = (
{
closed = 1;
nodes = (
"394 -224 OFFCURVE",
"454 -164 OFFCURVE",
"512 -164 QCURVE SMOOTH",
"566 -164 OFFCURVE",
"630 -228 OFFCURVE",
"630 -279 QCURVE SMOOTH",
"630 -335 OFFCURVE",
"570 -395 OFFCURVE",
"512 -395 QCURVE SMOOTH",
"458 -395 OFFCURVE",
"394 -331 OFFCURVE",
"394 -279 QCURVE SMOOTH"
);
}
);
width = 1024;
}
);
unicode = 0323;
},
{
glyphname = dieresisbelowcomb;
layers = (
{
layerId = "F265E254-A92B-4432-B734-C31CE1135299";
paths = (
{
closed = 1;
nodes = (
"166 -273 OFFCURVE",
"226 -214 OFFCURVE",
"282 -214 QCURVE SMOOTH",
"335 -214 OFFCURVE",
"398 -277 OFFCURVE",
"398 -328 QCURVE SMOOTH",
"398 -382 OFFCURVE",
"339 -441 OFFCURVE",
"282 -441 QCURVE SMOOTH",
"229 -441 OFFCURVE",
"166 -379 OFFCURVE",
"166 -328 QCURVE SMOOTH"
);
},
{
closed = 1;
nodes = (
"626 -273 OFFCURVE",
"686 -214 OFFCURVE",
"742 -214 QCURVE SMOOTH",
"795 -214 OFFCURVE",
"858 -277 OFFCURVE",
"858 -328 QCURVE SMOOTH",
"858 -382 OFFCURVE",
"799 -441 OFFCURVE",
"742 -441 QCURVE SMOOTH",
"689 -441 OFFCURVE",
"626 -379 OFFCURVE",
"626 -328 QCURVE SMOOTH"
);
}
);
width = 1024;
}
);
unicode = 0324;
},
{
glyphname = commaaccentcomb;
layers = (
{
layerId = "F265E254-A92B-4432-B734-C31CE1135299";
paths = (
{
closed = 1;
nodes = (
"404 -424 OFFCURVE",
"440 -284 OFFCURVE",
"463 -156 QCURVE",
"665 -154 LINE",
"538 -531 LINE",
"375 -528 LINE"
);
}
);
width = 1024;
}
);
unicode = 0326;
},
{
glyphname = brevebelowcomb;
layers = (
{
layerId = "F265E254-A92B-4432-B734-C31CE1135299";
paths = (
{
closed = 1;
nodes = (
"896 -197 LINE",
"857 -296 OFFCURVE",
"656 -463 OFFCURVE",
"512 -463 QCURVE SMOOTH",
"384 -463 OFFCURVE",
"177 -310 OFFCURVE",
"129 -196 QCURVE",
"229 -127 LINE",
"272 -190 OFFCURVE",
"417 -294 OFFCURVE",
"512 -294 QCURVE SMOOTH",
"614 -294 OFFCURVE",
"760 -195 OFFCURVE",
"803 -127 QCURVE"
);
}
);
width = 1024;
}
);
unicode = 032E;
},
{
glyphname = macronbelowcomb;
layers = (
{
layerId = "F265E254-A92B-4432-B734-C31CE1135299";
paths = (
{
closed = 1;
nodes = (
"216 -103 LINE",
"808 -103 LINE",
"808 -259 LINE",
"216 -259 LINE"
);
}
);
width = 1024;
}
);
unicode = 0331;
},
{
glyphname = zero;
layers = (
{
layerId = "F265E254-A92B-4432-B734-C31CE1135299";
paths = (
{
closed = 1;
nodes = (
"142 936 LINE SMOOTH",
"197 1182 OFFCURVE",
"506 1486 OFFCURVE",
"752 1486 QCURVE SMOOTH",
"995 1486 OFFCURVE",
"1243 1182 OFFCURVE",
"1188 936 QCURVE SMOOTH",
"1095 520 LINE SMOOTH",
"1040 272 OFFCURVE",
"728 -30 OFFCURVE",
"484 -30 QCURVE SMOOTH",
"239 -30 OFFCURVE",
"-6 272 OFFCURVE",
"49 520 QCURVE SMOOTH"
);
},
{
closed = 1;
nodes = (
"209 345 OFFCURVE",
"346 134 OFFCURVE",
"512 134 QCURVE SMOOTH",
"678 134 OFFCURVE",
"855 344 OFFCURVE",
"893 510 QCURVE SMOOTH",
"994 946 LINE SMOOTH",
"1032 1110 OFFCURVE",
"890 1322 OFFCURVE",
"724 1322 QCURVE SMOOTH",
"558 1322 OFFCURVE",
"380 1110 OFFCURVE",
"343 946 QCURVE SMOOTH",
"246 510 LINE SMOOTH"
);
}
);
width = 1239;
}
);
unicode = 0030;
},
{
glyphname = one;
layers = (
{
layerId = "F265E254-A92B-4432-B734-C31CE1135299";
paths = (
{
closed = 1;
nodes = (
"670 1248 LINE",
"216 1086 LINE",
"249 1276 LINE",
"864 1476 LINE",
"907 1476 LINE",
"647 0 LINE",
"451 0 LINE"
);
}
);
width = 1238;
}
);
unicode = 0031;
},
{
glyphname = two;
layers = (
{
layerId = "F265E254-A92B-4432-B734-C31CE1135299";
paths = (
{
closed = 1;
nodes = (
"-2 170 LINE",
"684 721 LINE SMOOTH",
"803 816 OFFCURVE",
"970 995 OFFCURVE",
"987 1091 QCURVE SMOOTH",
"1005 1189 OFFCURVE",
"874 1322 OFFCURVE",
"732 1322 QCURVE SMOOTH",
"582 1322 OFFCURVE",
"368 1159 OFFCURVE",
"344 1028 QCURVE SMOOTH",
"342 1018 LINE",
"148 1018 LINE",
"149 1028 LINE SMOOTH",
"185 1222 OFFCURVE",
"526 1486 OFFCURVE",
"759 1486 QCURVE SMOOTH",
"983 1486 OFFCURVE",
"1216 1248 OFFCURVE",
"1187 1088 QCURVE SMOOTH",
"1162 945 OFFCURVE",
"951 711 OFFCURVE",
"799 590 QCURVE SMOOTH",
"259 162 LINE",
"1067 162 LINE",
"1038 0 LINE",
"-31 0 LINE"
);
}
);
width = 1238;
}
);
unicode = 0032;
},
{
glyphname = three;
layers = (
{
layerId = "F265E254-A92B-4432-B734-C31CE1135299";
paths = (
{
closed = 1;
nodes = (
"7 392 LINE",
"198 392 LINE",
"196 382 LINE SMOOTH",
"175 263 OFFCURVE",
"340 133 OFFCURVE",
"495 133 QCURVE SMOOTH",
"650 133 OFFCURVE",
"859 264 OFFCURVE",
"884 402 QCURVE SMOOTH",
"909 540 OFFCURVE",
"726 679 OFFCURVE",
"551 679 QCURVE SMOOTH",
"419 679 LINE",
"446 838 LINE",
"567 838 LINE SMOOTH",
"729 838 OFFCURVE",
"930 970 OFFCURVE",
"951 1089 QCURVE SMOOTH",
"972 1207 OFFCURVE",
"837 1323 OFFCURVE",
"706 1323 QCURVE SMOOTH",
"576 1323 OFFCURVE",
"386 1206 OFFCURVE",
"367 1098 QCURVE SMOOTH",
"365 1088 LINE",
"174 1088 LINE",
"176 1100 LINE SMOOTH",
"203 1261 OFFCURVE",
"521 1486 OFFCURVE",
"734 1486 QCURVE SMOOTH",
"947 1486 OFFCURVE",
"1179 1269 OFFCURVE",
"1149 1099 QCURVE SMOOTH",
"1132 1000 OFFCURVE",
"978 816 OFFCURVE",
"841 766 QCURVE",
"840 762 LINE",
"973 730 OFFCURVE",
"1107 541 OFFCURVE",
"1082 402 QCURVE SMOOTH",
"1047 201 OFFCURVE",
"701 -30 OFFCURVE",
"467 -30 QCURVE SMOOTH",
"233 -30 OFFCURVE",
"-26 201 OFFCURVE",
"6 382 QCURVE SMOOTH"
);
}
);
width = 1238;
}
);
unicode = 0033;
},
{
glyphname = four;
layers = (
{
layerId = "F265E254-A92B-4432-B734-C31CE1135299";
paths = (
{
closed = 1;
nodes = (
"747 398 LINE",
"757 450 LINE",
"880 1170 LINE",
"868 1170 LINE",
"233 504 LINE",
"799 504 LINE",
"884 504 LINE",
"1174 504 LINE",
"1146 341 LINE",
"-28 341 LINE",
"-6 474 LINE",
"938 1456 LINE",
"1120 1456 LINE",
"863 0 LINE",
"677 0 LINE"
);
}
);
width = 1239;
}
);
unicode = 0034;
},
{
glyphname = five;
layers = (
{
layerId = "F265E254-A92B-4432-B734-C31CE1135299";
paths = (
{
closed = 1;
nodes = (
"24 377 LINE",
"213 377 LINE",
"211 367 LINE SMOOTH",
"191 258 OFFCURVE",
"352 133 OFFCURVE",
"505 133 QCURVE SMOOTH",
"658 133 OFFCURVE",
"885 308 OFFCURVE",
"913 465 QCURVE SMOOTH",
"941 623 OFFCURVE",
"775 788 OFFCURVE",
"622 788 QCURVE SMOOTH",
"522 788 OFFCURVE",
"360 722 OFFCURVE",
"280 658 QCURVE",
"141 728 LINE",
"341 1456 LINE",
"1198 1456 LINE",
"1168 1280 LINE",
"471 1280 LINE",
"356 860 LINE",
"417 894 OFFCURVE",
"589 952 OFFCURVE",
"687 952 QCURVE SMOOTH",
"897 952 OFFCURVE",
"1148 695 OFFCURVE",
"1107 465 QCURVE SMOOTH",
"1067 235 OFFCURVE",
"711 -30 OFFCURVE",
"478 -30 QCURVE SMOOTH",
"243 -30 OFFCURVE",
"-8 196 OFFCURVE",
"22 367 QCURVE SMOOTH"
);
}
);
width = 1238;
}
);
unicode = 0035;
},
{
glyphname = six;
layers = (
{
layerId = "F265E254-A92B-4432-B734-C31CE1135299";
paths = (
{
closed = 1;
nodes = (
"52 644 LINE SMOOTH",
"119 1024 OFFCURVE",
"661 1486 OFFCURVE",
"1087 1486 QCURVE SMOOTH",
"1108 1486 LINE",
"1080 1322 LINE",
"1059 1322 LINE SMOOTH",
"737 1322 OFFCURVE",
"308 1001 OFFCURVE",
"246 654 QCURVE SMOOTH",
"237 604 LINE SMOOTH",
"191 347 OFFCURVE",
"369 133 OFFCURVE",
"532 133 QCURVE SMOOTH",
"696 133 OFFCURVE",
"909 307 OFFCURVE",
"937 464 QCURVE SMOOTH",
"965 622 OFFCURVE",
"815 794 OFFCURVE",
"650 794 QCURVE SMOOTH",
"499 794 OFFCURVE",
"235 622 OFFCURVE",
"207 464 QCURVE",
"135 464 LINE",
"174 685 OFFCURVE",
"494 957 OFFCURVE",
"722 957 QCURVE SMOOTH",
"946 957 OFFCURVE",
"1170 685 OFFCURVE",
"1131 464 QCURVE SMOOTH",
"1093 244 OFFCURVE",
"738 -30 OFFCURVE",
"505 -30 QCURVE SMOOTH",
"270 -30 OFFCURVE",
"-13 274 OFFCURVE",
"47 614 QCURVE SMOOTH"
);
}
);
width = 1238;
}
);
unicode = 0036;
},
{
glyphname = seven;
layers = (
{
layerId = "F265E254-A92B-4432-B734-C31CE1135299";
paths = (
{
closed = 1;
nodes = (
"1040 1292 LINE",
"169 1292 LINE",
"197 1456 LINE",
"1276 1456 LINE",
"1258 1345 LINE",
"404 0 LINE",
"202 0 LINE"
);
}
);
width = 1238;
}
);
unicode = 0037;
},
{
glyphname = eight;
layers = (
{
layerId = "F265E254-A92B-4432-B734-C31CE1135299";
paths = (
{
closed = 1;
nodes = (
"53 516 OFFCURVE",
"245 700 OFFCURVE",
"374 743 QCURVE",
"374 747 LINE",
"290 788 OFFCURVE",
"183 967 OFFCURVE",
"204 1087 QCURVE SMOOTH",
"236 1267 OFFCURVE",
"555 1486 OFFCURVE",
"753 1486 QCURVE SMOOTH",
"950 1486 OFFCURVE",
"1193 1267 OFFCURVE",
"1160 1087 QCURVE SMOOTH",
"1139 967 OFFCURVE",
"972 788 OFFCURVE",
"871 747 QCURVE",
"871 743 LINE",
"983 700 OFFCURVE",
"1111 516 OFFCURVE",
"1089 386 QCURVE SMOOTH",
"1054 188 OFFCURVE",
"704 -30 OFFCURVE",
"485 -30 QCURVE SMOOTH",
"266 -30 OFFCURVE",
"-5 188 OFFCURVE",
"30 386 QCURVE SMOOTH"
);
},
{
closed = 1;
nodes = (
"203 279 OFFCURVE",
"365 132 OFFCURVE",
"513 132 QCURVE SMOOTH",
"662 132 OFFCURVE",
"877 278 OFFCURVE",
"898 397 QCURVE SMOOTH",
"919 515 OFFCURVE",
"757 664 OFFCURVE",
"608 664 QCURVE SMOOTH",
"460 664 OFFCURVE",
"245 516 OFFCURVE",
"224 397 QCURVE SMOOTH"
);
},
{
closed = 1;
nodes = (
"371 968 OFFCURVE",
"510 826 OFFCURVE",
"636 826 QCURVE SMOOTH",
"763 826 OFFCURVE",
"951 968 OFFCURVE",
"970 1076 QCURVE SMOOTH",
"990 1184 OFFCURVE",
"851 1324 OFFCURVE",
"725 1324 QCURVE SMOOTH",
"599 1324 OFFCURVE",
"410 1184 OFFCURVE",
"391 1076 QCURVE SMOOTH"
);
}
);
width = 1239;
}
);
unicode = 0038;
},
{
glyphname = nine;
layers = (
{
layerId = "F265E254-A92B-4432-B734-C31CE1135299";
paths = (
{
closed = 1;
nodes = (
"146 1218 OFFCURVE",
"499 1486 OFFCURVE",
"732 1486 QCURVE SMOOTH",
"966 1486 OFFCURVE",
"1241 1163 OFFCURVE",
"1187 842 QCURVE SMOOTH",
"1182 812 LINE SMOOTH",
"1119 431 OFFCURVE",
"576 -30 OFFCURVE",
"150 -30 QCURVE SMOOTH",
"128 -30 LINE",
"156 134 LINE",
"178 134 LINE SMOOTH",
"500 134 OFFCURVE",
"931 455 OFFCURVE",
"993 802 QCURVE SMOOTH",
"1002 852 LINE SMOOTH",
"1048 1109 OFFCURVE",
"868 1323 OFFCURVE",
"704 1323 QCURVE SMOOTH",
"540 1323 OFFCURVE",
"323 1156 OFFCURVE",
"296 1004 QCURVE SMOOTH",
"268 851 OFFCURVE",
"425 682 OFFCURVE",
"590 682 QCURVE SMOOTH",
"742 682 OFFCURVE",
"1007 849 OFFCURVE",
"1034 1002 QCURVE",
"1107 1002 LINE",
"1069 785 OFFCURVE",
"745 519 OFFCURVE",
"517 519 QCURVE SMOOTH",
"296 519 OFFCURVE",
"69 786 OFFCURVE",
"108 1002 QCURVE SMOOTH"
);
}
);
width = 1238;
}
);
unicode = 0039;
},
{
glyphname = onesuperior;
layers = (
{
layerId = "F265E254-A92B-4432-B734-C31CE1135299";
paths = (
{
closed = 1;
nodes = (
"123 1370 LINE",
"577 1486 LINE",
"631 1486 LINE",
"631 697 LINE",
"459 697 LINE",
"459 1282 LINE",
"123 1205 LINE"
);
}
);
width = 871;
}
);
unicode = 00B9;
},
{
glyphname = twosuperior;
layers = (
{
layerId = "F265E254-A92B-4432-B734-C31CE1135299";
paths = (
{
closed = 1;
nodes = (
"85 805 LINE",
"433 1066 LINE SMOOTH",
"507 1121 OFFCURVE",
"601 1216 OFFCURVE",
"601 1249 QCURVE SMOOTH",
"601 1293 OFFCURVE",
"512 1341 OFFCURVE",
"430 1341 QCURVE SMOOTH",
"335 1341 OFFCURVE",
"234 1267 OFFCURVE",
"235 1198 QCURVE",
"67 1198 LINE",
"66 1337 OFFCURVE",
"252 1487 OFFCURVE",
"426 1487 QCURVE SMOOTH",
"593 1487 OFFCURVE",
"772 1365 OFFCURVE",
"772 1251 QCURVE SMOOTH",
"772 1171 OFFCURVE",
"634 1039 OFFCURVE",
"538 971 QCURVE SMOOTH",
"368 851 LINE",
"803 851 LINE",
"803 697 LINE",
"85 697 LINE"
);
}
);
width = 860;
}
);
unicode = 00B2;
},
{
glyphname = threesuperior;
layers = (
{
layerId = "F265E254-A92B-4432-B734-C31CE1135299";
paths = (
{
closed = 1;
nodes = (
"230 920 LINE",
"230 877 OFFCURVE",
"337 830 OFFCURVE",
"436 830 QCURVE SMOOTH",
"529 830 OFFCURVE",
"629 879 OFFCURVE",
"629 925 QCURVE SMOOTH",
"629 975 OFFCURVE",
"521 1029 OFFCURVE",
"420 1029 QCURVE SMOOTH",
"276 1029 LINE",
"276 1151 LINE",
"420 1151 LINE SMOOTH",
"514 1151 OFFCURVE",
"616 1205 OFFCURVE",
"616 1255 QCURVE SMOOTH",
"616 1297 OFFCURVE",
"521 1343 OFFCURVE",
"433 1343 QCURVE SMOOTH",
"340 1343 OFFCURVE",
"241 1298 OFFCURVE",
"241 1256 QCURVE",
"74 1256 LINE",
"74 1367 OFFCURVE",
"258 1487 OFFCURVE",
"430 1487 QCURVE SMOOTH",
"606 1487 OFFCURVE",
"796 1371 OFFCURVE",
"796 1263 QCURVE SMOOTH",
"796 1207 OFFCURVE",
"727 1122 OFFCURVE",
"663 1098 QCURVE",
"732 1075 OFFCURVE",
"807 981 OFFCURVE",
"807 917 QCURVE SMOOTH",
"807 806 OFFCURVE",
"612 686 OFFCURVE",
"431 686 QCURVE SMOOTH",
"254 686 OFFCURVE",
"63 807 OFFCURVE",
"63 920 QCURVE"
);
}
);
width = 864;
}
);
unicode = 00B3;
},
{
glyphname = foursuperior;
layers = (
{
layerId = "F265E254-A92B-4432-B734-C31CE1135299";
paths = (
{
closed = 1;
nodes = (
"54 982 LINE",
"552 1496 LINE",
"718 1496 LINE",
"502 1270 LINE",
"254 1010 LINE",
"820 1010 LINE",
"820 880 LINE",
"61 880 LINE"
);
},
{
closed = 1;
nodes = (
"712 697 LINE",
"555 697 LINE",
"555 1496 LINE",
"712 1496 LINE"
);
}
);
width = 871;
}
);
unicode = 2074;
},
{
glyphname = underscore;
layers = (
{
layerId = "F265E254-A92B-4432-B734-C31CE1135299";
paths = (
{
closed = 1;
nodes = (
"-172 -100 LINE",
"837 -100 LINE",
"807 -270 LINE",
"-202 -270 LINE"
);
}
);
width = 1009;
}
);
unicode = 005F;
},
{
glyphname = hyphen;
layers = (
{
layerId = "F265E254-A92B-4432-B734-C31CE1135299";
paths = (
{
closed = 1;
nodes = (
"35 718 LINE",
"659 718 LINE",
"628 542 LINE",
"5 542 LINE"
);
}
);
width = 699;
}
);
leftKerningGroup = emdash;
rightKerningGroup = emdash;
unicode = 002D;
},
{
glyphname = endash;
layers = (
{
layerId = "F265E254-A92B-4432-B734-C31CE1135299";
paths = (
{
closed = 1;
nodes = (
"0 700 LINE",
"1144 700 LINE",
"1144 532 LINE",
"0 532 LINE"
);
}
);
width = 1144;
}
);
leftKerningGroup = emdash;
rightKerningGroup = emdash;
unicode = 2013;
},
{
glyphname = emdash;
layers = (
{
layerId = "F265E254-A92B-4432-B734-C31CE1135299";
paths = (
{
closed = 1;
nodes = (
"260 700 LINE",
"1908 700 LINE",
"1908 532 LINE",
"260 532 LINE"
);
}
);
width = 2168;
}
);
leftKerningGroup = emdash;
rightKerningGroup = emdash;
unicode = 2014;
},
{
glyphname = horizontalbar;
layers = (
{
layerId = "F265E254-A92B-4432-B734-C31CE1135299";
paths = (
{
closed = 1;
nodes = (
"20 792 LINE",
"745 792 LINE",
"745 626 LINE",
"20 626 LINE"
);
}
);
width = 765;
}
);
leftKerningGroup = emdash;
rightKerningGroup = emdash;
unicode = 2015;
},
{
glyphname = parenleft;
layers = (
{
layerId = "F265E254-A92B-4432-B734-C31CE1135299";
paths = (
{
closed = 1;
nodes = (
"279 -346 OFFCURVE",
"15 122 OFFCURVE",
"84 515 QCURVE SMOOTH",
"91 555 LINE SMOOTH",
"160 948 OFFCURVE",
"584 1400 OFFCURVE",
"831 1476 QCURVE",
"820 1310 LINE",
"654 1240 OFFCURVE",
"342 876 OFFCURVE",
"285 532 QCURVE SMOOTH",
"281 508 LINE SMOOTH",
"224 164 OFFCURVE",
"380 -188 OFFCURVE",
"546 -270 QCURVE",
"514 -436 LINE"
);
}
);
width = 687;
}
);
rightKerningGroup = parens;
unicode = 0028;
},
{
glyphname = parenright;
layers = (
{
layerId = "F265E254-A92B-4432-B734-C31CE1135299";
paths = (
{
closed = 1;
nodes = (
"-207 -270 LINE",
"-23 -206 OFFCURVE",
"287 162 OFFCURVE",
"330 508 QCURVE SMOOTH",
"333 532 LINE SMOOTH",
"376 878 OFFCURVE",
"201 1240 OFFCURVE",
"66 1310 QCURVE",
"98 1476 LINE",
"326 1390 OFFCURVE",
"591 888 OFFCURVE",
"529 525 QCURVE SMOOTH",
"520 472 LINE SMOOTH",
"453 75 OFFCURVE",
"48 -349 OFFCURVE",
"-215 -433 QCURVE"
);
}
);
width = 687;
}
);
leftKerningGroup = parens;
unicode = 0029;
},
{
glyphname = bracketleft;
layers = (
{
layerId = "F265E254-A92B-4432-B734-C31CE1135299";
paths = (
{
closed = 1;
nodes = (
"267 1456 LINE",
"798 1456 LINE",
"770 1292 LINE",
"428 1292 LINE",
"173 -146 LINE",
"515 -146 LINE",
"487 -310 LINE",
"-44 -310 LINE"
);
}
);
width = 639;
}
);
rightKerningGroup = parens;
unicode = 005B;
},
{
glyphname = bracketright;
layers = (
{
layerId = "F265E254-A92B-4432-B734-C31CE1135299";
paths = (
{
closed = 1;
nodes = (
"-216 -310 LINE",
"-188 -146 LINE",
"154 -146 LINE",
"409 1292 LINE",
"67 1292 LINE",
"95 1456 LINE",
"627 1456 LINE",
"316 -310 LINE"
);
}
);
width = 639;
}
);
leftKerningGroup = parens;
unicode = 005D;
},
{
glyphname = braceleft;
layers = (
{
layerId = "F265E254-A92B-4432-B734-C31CE1135299";
paths = (
{
closed = 1;
nodes = (
"255 -312 OFFCURVE",
"32 -32 OFFCURVE",
"108 143 QCURVE SMOOTH",
"196 332 LINE SMOOTH",
"242 439 OFFCURVE",
"117 506 OFFCURVE",
"-3 506 QCURVE",
"20 642 LINE",
"141 642 OFFCURVE",
"289 709 OFFCURVE",
"280 816 QCURVE SMOOTH",
"267 1005 LINE SMOOTH",
"245 1180 OFFCURVE",
"567 1460 OFFCURVE",
"834 1460 QCURVE",
"809 1310 LINE",
"618 1310 OFFCURVE",
"440 1140 OFFCURVE",
"456 1003 QCURVE SMOOTH",
"471 814 LINE SMOOTH",
"478 731 OFFCURVE",
"384 595 OFFCURVE",
"287 574 QCURVE",
"375 553 OFFCURVE",
"422 418 OFFCURVE",
"386 334 QCURVE SMOOTH",
"297 145 LINE SMOOTH",
"238 8 OFFCURVE",
"357 -162 OFFCURVE",
"548 -162 QCURVE",
"522 -312 LINE"
);
}
);
width = 687;
}
);
rightKerningGroup = parens;
unicode = 007B;
},
{
glyphname = braceright;
layers = (
{
layerId = "F265E254-A92B-4432-B734-C31CE1135299";
paths = (
{
closed = 1;
nodes = (
"-178 -162 LINE",
"12 -162 OFFCURVE",
"192 8 OFFCURVE",
"174 145 QCURVE SMOOTH",
"161 334 LINE SMOOTH",
"154 418 OFFCURVE",
"246 553 OFFCURVE",
"345 574 QCURVE",
"255 595 OFFCURVE",
"209 730 OFFCURVE",
"245 814 QCURVE SMOOTH",
"333 1003 LINE SMOOTH",
"394 1140 OFFCURVE",
"273 1310 OFFCURVE",
"83 1310 QCURVE",
"109 1460 LINE",
"376 1460 OFFCURVE",
"600 1180 OFFCURVE",
"524 1005 QCURVE SMOOTH",
"435 816 LINE SMOOTH",
"389 709 OFFCURVE",
"513 642 OFFCURVE",
"635 642 QCURVE",
"611 506 LINE",
"490 506 OFFCURVE",
"342 439 OFFCURVE",
"350 332 QCURVE SMOOTH",
"364 143 LINE SMOOTH",
"386 -32 OFFCURVE",
"63 -312 OFFCURVE",
"-204 -312 QCURVE"
);
}
);
width = 687;
}
);
leftKerningGroup = parens;
unicode = 007D;
},
{
glyphname = leftanglebracket;
layers = (
{
layerId = "F265E254-A92B-4432-B734-C31CE1135299";
paths = (
{
closed = 1;
nodes = (
"-16 665 LINE",
"706 1499 LINE",
"819 1413 LINE",
"175 604 LINE",
"818 -219 LINE",
"706 -304 LINE",
"-16 536 LINE"
);
}
);
width = 820;
}
);
rightKerningGroup = parens;
unicode = 27E8;
},
{
glyphname = rightanglebracket;
layers = (
{
layerId = "F265E254-A92B-4432-B734-C31CE1135299";
paths = (
{
closed = 1;
nodes = (
"628 591 LINE",
"-15 1414 LINE",
"97 1499 LINE",
"819 659 LINE",
"819 530 LINE",
"97 -304 LINE",
"-16 -218 LINE"
);
}
);
width = 820;
}
);
leftKerningGroup = parens;
unicode = 27E9;
},
{
glyphname = numbersign;
layers = (
{
layerId = "F265E254-A92B-4432-B734-C31CE1135299";
paths = (
{
closed = 1;
nodes = (
"823 1476 LINE",
"970 1476 LINE",
"195 -20 LINE",
"49 -20 LINE"
);
},
{
closed = 1;
nodes = (
"1401 1476 LINE",
"1549 1476 LINE",
"773 -20 LINE",
"626 -20 LINE"
);
},
{
closed = 1;
nodes = (
"-19 544 LINE",
"1462 544 LINE",
"1438 401 LINE",
"-44 401 LINE"
);
},
{
closed = 1;
nodes = (
"159 1055 LINE",
"1639 1055 LINE",
"1615 912 LINE",
"135 912 LINE"
);
}
);
width = 1591;
}
);
unicode = 0023;
},
{
glyphname = quotesingle;
layers = (
{
layerId = "F265E254-A92B-4432-B734-C31CE1135299";
paths = (
{
closed = 1;
nodes = (
"201 1317 LINE",
"225 1456 LINE",
"426 1456 LINE",
"402 1317 LINE",
"315 955 LINE",
"164 955 LINE"
);
}
);
width = 395;
}
);
leftKerningGroup = minute;
rightKerningGroup = minute;
unicode = 0027;
},
{
glyphname = quotedbl;
layers = (
{
layerId = "F265E254-A92B-4432-B734-C31CE1135299";
paths = (
{
closed = 1;
nodes = (
"201 1317 LINE",
"225 1456 LINE",
"405 1456 LINE",
"381 1317 LINE",
"304 955 LINE",
"154 955 LINE"
);
},
{
closed = 1;
nodes = (
"575 1317 LINE",
"599 1456 LINE",
"781 1456 LINE",
"757 1317 LINE",
"680 955 LINE",
"528 955 LINE"
);
}
);
width = 750;
}
);
leftKerningGroup = minute;
rightKerningGroup = minute;
unicode = 0022;
},
{
glyphname = quoteleft;
layers = (
{
layerId = "F265E254-A92B-4432-B734-C31CE1135299";
paths = (
{
closed = 1;
nodes = (
"92 1194 LINE SMOOTH",
"92 1284 OFFCURVE",
"183 1488 OFFCURVE",
"266 1556 QCURVE",
"371 1483 LINE",
"325 1417 OFFCURVE",
"275 1278 OFFCURVE",
"275 1197 QCURVE SMOOTH",
"275 1073 LINE",
"92 1073 LINE"
);
}
);
width = 410;
}
);
leftKerningGroup = minute;
rightKerningGroup = minute;
unicode = 2018;
},
{
glyphname = quoteright;
layers = (
{
layerId = "F265E254-A92B-4432-B734-C31CE1135299";
paths = (
{
closed = 1;
nodes = (
"318 1330 LINE SMOOTH",
"318 1240 OFFCURVE",
"227 1036 OFFCURVE",
"145 968 QCURVE",
"39 1041 LINE",
"86 1107 OFFCURVE",
"134 1246 OFFCURVE",
"134 1327 QCURVE SMOOTH",
"134 1458 LINE",
"318 1458 LINE"
);
}
);
width = 410;
}
);
leftKerningGroup = minute;
rightKerningGroup = minute;
unicode = 2019;
},
{
glyphname = quotedblleft;
layers = (
{
layerId = "F265E254-A92B-4432-B734-C31CE1135299";
paths = (
{
closed = 1;
nodes = (
"92 1194 LINE SMOOTH",
"92 1284 OFFCURVE",
"183 1488 OFFCURVE",
"266 1556 QCURVE",
"371 1483 LINE",
"325 1417 OFFCURVE",
"275 1278 OFFCURVE",
"275 1197 QCURVE SMOOTH",
"275 1073 LINE",
"92 1073 LINE"
);
},
{
closed = 1;
nodes = (
"512 1194 LINE SMOOTH",
"512 1284 OFFCURVE",
"603 1488 OFFCURVE",
"686 1556 QCURVE",
"791 1483 LINE",
"745 1417 OFFCURVE",
"695 1278 OFFCURVE",
"695 1197 QCURVE SMOOTH",
"695 1073 LINE",
"512 1073 LINE"
);
}
);
width = 830;
}
);
leftKerningGroup = minute;
rightKerningGroup = minute;
unicode = 201C;
},
{
glyphname = quotedblright;
layers = (
{
layerId = "F265E254-A92B-4432-B734-C31CE1135299";
paths = (
{
closed = 1;
nodes = (
"318 1330 LINE SMOOTH",
"318 1240 OFFCURVE",
"227 1036 OFFCURVE",
"145 968 QCURVE",
"39 1041 LINE",
"86 1107 OFFCURVE",
"134 1246 OFFCURVE",
"134 1327 QCURVE SMOOTH",
"134 1458 LINE",
"318 1458 LINE"
);
},
{
closed = 1;
nodes = (
"738 1330 LINE SMOOTH",
"738 1240 OFFCURVE",
"647 1036 OFFCURVE",
"565 968 QCURVE",
"459 1041 LINE",
"506 1107 OFFCURVE",
"554 1246 OFFCURVE",
"554 1327 QCURVE SMOOTH",
"554 1458 LINE",
"738 1458 LINE"
);
}
);
width = 830;
}
);
leftKerningGroup = minute;
rightKerningGroup = minute;
unicode = 201D;
},
{
glyphname = quotesinglbase;
layers = (
{
layerId = "F265E254-A92B-4432-B734-C31CE1135299";
paths = (
{
closed = 1;
nodes = (
"318 92 LINE SMOOTH",
"318 2 OFFCURVE",
"227 -202 OFFCURVE",
"145 -270 QCURVE",
"39 -197 LINE",
"86 -131 OFFCURVE",
"134 8 OFFCURVE",
"134 89 QCURVE SMOOTH",
"134 220 LINE",
"318 220 LINE"
);
}
);
width = 410;
}
);
leftKerningGroup = comma;
rightKerningGroup = comma;
unicode = 201A;
},
{
glyphname = quotedblbase;
layers = (
{
layerId = "F265E254-A92B-4432-B734-C31CE1135299";
paths = (
{
closed = 1;
nodes = (
"318 92 LINE SMOOTH",
"318 2 OFFCURVE",
"227 -202 OFFCURVE",
"145 -270 QCURVE",
"39 -197 LINE",
"86 -131 OFFCURVE",
"134 8 OFFCURVE",
"134 89 QCURVE SMOOTH",
"134 220 LINE",
"318 220 LINE"
);
},
{
closed = 1;
nodes = (
"738 92 LINE SMOOTH",
"738 2 OFFCURVE",
"647 -202 OFFCURVE",
"565 -270 QCURVE",
"459 -197 LINE",
"506 -131 OFFCURVE",
"554 8 OFFCURVE",
"554 89 QCURVE SMOOTH",
"554 220 LINE",
"738 220 LINE"
);
}
);
width = 830;
}
);
leftKerningGroup = comma;
rightKerningGroup = comma;
unicode = 201E;
},
{
glyphname = guilsinglleft;
layers = (
{
guideLines = (
{
position = "{0, 901}";
},
{
position = "{0, 555}";
}
);
layerId = "F265E254-A92B-4432-B734-C31CE1135299";
paths = (
{
closed = 1;
nodes = (
"108 581 LINE",
"463 949 LINE",
"635 949 LINE",
"317 551 LINE",
"635 153 LINE",
"463 153 LINE",
"108 522 LINE"
);
}
);
width = 715;
}
);
leftKerningGroup = guillemotleft;
rightKerningGroup = guillemotleft;
unicode = 2039;
userData = {
com.typemytype.robofont.guideline.magnetic.Amp5Ormvx4 = 5;
com.typemytype.robofont.guideline.magnetic.JDX5vz3jKp = 5;
};
},
{
glyphname = guilsinglright;
layers = (
{
guideLines = (
{
position = "{0, 901}";
},
{
position = "{0, 555}";
}
);
layerId = "F265E254-A92B-4432-B734-C31CE1135299";
paths = (
{
closed = 1;
nodes = (
"398 551 LINE",
"80 949 LINE",
"252 949 LINE",
"607 580 LINE",
"607 521 LINE",
"252 153 LINE",
"80 153 LINE"
);
}
);
width = 715;
}
);
leftKerningGroup = guillemotright;
rightKerningGroup = guillemotright;
unicode = 203A;
userData = {
com.typemytype.robofont.guideline.magnetic.Amp5Ormvx4 = 5;
com.typemytype.robofont.guideline.magnetic.JDX5vz3jKp = 5;
};
},
{
glyphname = guillemotleft;
layers = (
{
guideLines = (
{
position = "{0, 901}";
},
{
position = "{0, 555}";
}
);
layerId = "F265E254-A92B-4432-B734-C31CE1135299";
paths = (
{
closed = 1;
nodes = (
"108 581 LINE",
"463 949 LINE",
"635 949 LINE",
"317 551 LINE",
"635 153 LINE",
"463 153 LINE",
"108 522 LINE"
);
},
{
closed = 1;
nodes = (
"558 581 LINE",
"913 949 LINE",
"1085 949 LINE",
"767 551 LINE",
"1085 153 LINE",
"913 153 LINE",
"558 522 LINE"
);
}
);
width = 1165;
}
);
leftKerningGroup = guillemotleft;
rightKerningGroup = guillemotleft;
unicode = 00AB;
userData = {
com.typemytype.robofont.guideline.magnetic.MVJpdoVRVd = 5;
com.typemytype.robofont.guideline.magnetic.ZftBQarVKw = 5;
};
},
{
glyphname = guillemotright;
layers = (
{
guideLines = (
{
position = "{0, 98}";
},
{
position = "{0, 443}";
}
);
layerId = "F265E254-A92B-4432-B734-C31CE1135299";
paths = (
{
closed = 1;
nodes = (
"848 551 LINE",
"530 949 LINE",
"702 949 LINE",
"1057 580 LINE",
"1057 521 LINE",
"702 153 LINE",
"530 153 LINE"
);
},
{
closed = 1;
nodes = (
"398 551 LINE",
"80 949 LINE",
"252 949 LINE",
"607 580 LINE",
"607 521 LINE",
"252 153 LINE",
"80 153 LINE"
);
}
);
width = 1165;
}
);
leftKerningGroup = guillemotright;
rightKerningGroup = guillemotright;
unicode = 00BB;
userData = {
com.typemytype.robofont.guideline.magnetic.G9bQni2n1K = 5;
com.typemytype.robofont.guideline.magnetic.MTEldNnfdj = 5;
};
},
{
glyphname = asterisk;
layers = (
{
layerId = "F265E254-A92B-4432-B734-C31CE1135299";
paths = (
{
closed = 1;
nodes = (
"206 1222 LINE",
"546 1057 LINE",
"579 1476 LINE",
"773 1476 LINE",
"666 1057 LINE",
"1076 1222 LINE",
"1105 1035 LINE",
"691 941 LINE",
"907 625 LINE",
"732 509 LINE",
"583 871 LINE",
"312 509 LINE",
"175 625 LINE",
"496 941 LINE",
"114 1035 LINE"
);
}
);
width = 1104;
}
);
unicode = 002A;
},
{
glyphname = dagger;
layers = (
{
layerId = "F265E254-A92B-4432-B734-C31CE1135299";
paths = (
{
closed = 1;
nodes = (
"462 8 LINE",
"483 748 LINE",
"483 852 LINE",
"72 852 LINE",
"72 1025 LINE",
"479 1025 LINE",
"466 1508 LINE",
"657 1508 LINE",
"644 1025 LINE",
"1051 1025 LINE",
"1051 852 LINE",
"640 852 LINE",
"640 748 LINE",
"661 8 LINE",
"657 -274 LINE",
"584 -415 OFFCURVE",
"540 -416 OFFCURVE",
"466 -274 QCURVE"
);
}
);
width = 1128;
}
);
unicode = 2020;
},
{
glyphname = daggerdbl;
layers = (
{
layerId = "F265E254-A92B-4432-B734-C31CE1135299";
paths = (
{
closed = 1;
nodes = (
"77 204 LINE",
"488 204 LINE",
"468 534 LINE",
"483 855 LINE",
"77 855 LINE",
"77 1022 LINE",
"469 1022 LINE",
"466 1508 LINE",
"657 1508 LINE",
"654 1022 LINE",
"1046 1022 LINE",
"1046 855 LINE",
"640 855 LINE",
"655 534 LINE",
"635 204 LINE",
"1046 204 LINE",
"1046 38 LINE",
"649 38 LINE",
"652 -452 LINE",
"471 -452 LINE",
"474 38 LINE",
"77 38 LINE"
);
}
);
width = 1123;
}
);
unicode = 2021;
},
{
glyphname = period;
layers = (
{
layerId = "F265E254-A92B-4432-B734-C31CE1135299";
paths = (
{
closed = 1;
nodes = (
"46 161 OFFCURVE",
"116 235 OFFCURVE",
"181 235 QCURVE SMOOTH",
"244 235 OFFCURVE",
"309 159 OFFCURVE",
"308 106 QCURVE SMOOTH",
"306 52 OFFCURVE",
"236 -22 OFFCURVE",
"171 -22 QCURVE SMOOTH",
"108 -22 OFFCURVE",
"43 54 OFFCURVE",
"44 107 QCURVE SMOOTH"
);
}
);
width = 574;
}
);
leftKerningGroup = comma;
rightKerningGroup = comma;
unicode = 002E;
},
{
glyphname = comma;
layers = (
{
layerId = "F265E254-A92B-4432-B734-C31CE1135299";
paths = (
{
closed = 1;
nodes = (
"-3 -155 OFFCURVE",
"71 -19 OFFCURVE",
"87 72 QCURVE SMOOTH",
"113 226 LINE",
"296 226 LINE",
"270 72 LINE SMOOTH",
"250 -40 OFFCURVE",
"122 -227 OFFCURVE",
"31 -295 QCURVE",
"-63 -220 LINE"
);
}
);
width = 571;
}
);
leftKerningGroup = comma;
rightKerningGroup = comma;
unicode = 002C;
},
{
glyphname = colon;
layers = (
{
layerId = "F265E254-A92B-4432-B734-C31CE1135299";
paths = (
{
closed = 1;
nodes = (
"60 151 OFFCURVE",
"128 222 OFFCURVE",
"189 222 QCURVE SMOOTH",
"250 222 OFFCURVE",
"311 149 OFFCURVE",
"309 99 QCURVE SMOOTH",
"308 49 OFFCURVE",
"240 -22 OFFCURVE",
"179 -22 QCURVE SMOOTH",
"119 -22 OFFCURVE",
"57 51 OFFCURVE",
"59 101 QCURVE SMOOTH"
);
},
{
closed = 1;
nodes = (
"211 998 OFFCURVE",
"278 1068 OFFCURVE",
"339 1068 QCURVE SMOOTH",
"401 1068 OFFCURVE",
"461 996 OFFCURVE",
"460 945 QCURVE SMOOTH",
"458 895 OFFCURVE",
"391 824 OFFCURVE",
"329 824 QCURVE SMOOTH",
"269 824 OFFCURVE",
"207 897 OFFCURVE",
"209 947 QCURVE SMOOTH"
);
}
);
width = 592;
}
);
leftKerningGroup = colon;
rightKerningGroup = colon;
unicode = 003A;
},
{
glyphname = semicolon;
layers = (
{
layerId = "F265E254-A92B-4432-B734-C31CE1135299";
paths = (
{
closed = 1;
nodes = (
"9 -155 OFFCURVE",
"83 -19 OFFCURVE",
"99 72 QCURVE SMOOTH",
"125 225 LINE",
"306 225 LINE",
"279 72 LINE SMOOTH",
"260 -40 OFFCURVE",
"133 -227 OFFCURVE",
"43 -295 QCURVE",
"-51 -220 LINE"
);
},
{
closed = 1;
nodes = (
"211 998 OFFCURVE",
"278 1068 OFFCURVE",
"339 1068 QCURVE SMOOTH",
"401 1068 OFFCURVE",
"461 996 OFFCURVE",
"460 945 QCURVE SMOOTH",
"458 895 OFFCURVE",
"391 824 OFFCURVE",
"329 824 QCURVE SMOOTH",
"269 824 OFFCURVE",
"207 897 OFFCURVE",
"209 947 QCURVE SMOOTH"
);
}
);
width = 592;
}
);
leftKerningGroup = colon;
rightKerningGroup = colon;
unicode = 003B;
},
{
glyphname = exclam;
layers = (
{
layerId = "F265E254-A92B-4432-B734-C31CE1135299";
paths = (
{
closed = 1;
nodes = (
"71 151 OFFCURVE",
"140 222 OFFCURVE",
"201 222 QCURVE SMOOTH",
"262 221 OFFCURVE",
"322 149 OFFCURVE",
"319 99 QCURVE SMOOTH",
"316 49 OFFCURVE",
"248 -22 OFFCURVE",
"187 -22 QCURVE SMOOTH",
"127 -21 OFFCURVE",
"66 51 OFFCURVE",
"69 101 QCURVE SMOOTH"
);
},
{
closed = 1;
nodes = (
"334 1456 LINE",
"533 1456 LINE",
"334 414 LINE",
"165 414 LINE"
);
}
);
width = 612;
}
);
unicode = 0021;
},
{
glyphname = exclamdown;
layers = (
{
layerId = "F265E254-A92B-4432-B734-C31CE1135299";
paths = (
{
closed = 1;
nodes = (
"434 1004 OFFCURVE",
"370 934 OFFCURVE",
"310 934 QCURVE SMOOTH",
"250 934 OFFCURVE",
"186 1004 OFFCURVE",
"186 1053 QCURVE SMOOTH",
"186 1102 OFFCURVE",
"250 1172 OFFCURVE",
"310 1172 QCURVE SMOOTH",
"370 1172 OFFCURVE",
"434 1102 OFFCURVE",
"434 1053 QCURVE SMOOTH"
);
},
{
closed = 1;
nodes = (
"407 -306 LINE",
"213 -306 LINE",
"228 740 LINE",
"392 740 LINE"
);
}
);
width = 620;
}
);
unicode = 00A1;
},
{
glyphname = question;
layers = (
{
layerId = "F265E254-A92B-4432-B734-C31CE1135299";
paths = (
{
closed = 1;
nodes = (
"204 151 OFFCURVE",
"273 222 OFFCURVE",
"334 222 QCURVE SMOOTH",
"394 222 OFFCURVE",
"456 149 OFFCURVE",
"454 99 QCURVE SMOOTH",
"452 49 OFFCURVE",
"384 -22 OFFCURVE",
"324 -22 QCURVE SMOOTH",
"263 -22 OFFCURVE",
"201 51 OFFCURVE",
"203 101 QCURVE SMOOTH"
);
},
{
closed = 1;
nodes = (
"78 1112 LINE SMOOTH",
"107 1272 OFFCURVE",
"388 1476 OFFCURVE",
"601 1476 QCURVE SMOOTH",
"813 1476 OFFCURVE",
"1017 1262 OFFCURVE",
"987 1098 QCURVE SMOOTH",
"963 967 OFFCURVE",
"771 760 OFFCURVE",
"678 696 QCURVE SMOOTH",
"564 613 OFFCURVE",
"486 494 OFFCURVE",
"473 422 QCURVE SMOOTH",
"471 412 LINE",
"280 412 LINE",
"282 422 LINE SMOOTH",
"304 548 OFFCURVE",
"410 696 OFFCURVE",
"528 782 QCURVE SMOOTH",
"636 864 OFFCURVE",
"779 999 OFFCURVE",
"796 1098 QCURVE SMOOTH",
"814 1192 OFFCURVE",
"704 1310 OFFCURVE",
"573 1310 QCURVE SMOOTH",
"441 1310 OFFCURVE",
"285 1202 OFFCURVE",
"268 1112 QCURVE SMOOTH",
"265 1092 LINE",
"74 1092 LINE"
);
}
);
width = 960;
}
);
unicode = 003F;
},
{
glyphname = questiondown;
layers = (
{
guideLines = (
{
position = "{0, -181}";
},
{
position = "{0, 921}";
}
);
layerId = "F265E254-A92B-4432-B734-C31CE1135299";
paths = (
{
closed = 1;
nodes = (
"636 998 OFFCURVE",
"569 926 OFFCURVE",
"506 926 QCURVE SMOOTH",
"444 926 OFFCURVE",
"377 998 OFFCURVE",
"377 1048 QCURVE SMOOTH",
"377 1098 OFFCURVE",
"444 1170 OFFCURVE",
"506 1170 QCURVE SMOOTH",
"569 1170 OFFCURVE",
"636 1098 OFFCURVE",
"636 1048 QCURVE SMOOTH"
);
},
{
closed = 1;
nodes = (
"948 36 LINE SMOOTH",
"948 -124 OFFCURVE",
"695 -328 OFFCURVE",
"476 -328 QCURVE SMOOTH",
"258 -328 OFFCURVE",
"12 -114 OFFCURVE",
"12 50 QCURVE SMOOTH",
"12 181 OFFCURVE",
"172 388 OFFCURVE",
"256 452 QCURVE SMOOTH",
"359 535 OFFCURVE",
"416 654 OFFCURVE",
"416 726 QCURVE SMOOTH",
"416 736 LINE",
"613 736 LINE",
"613 726 LINE SMOOTH",
"613 600 OFFCURVE",
"530 452 OFFCURVE",
"426 366 QCURVE SMOOTH",
"330 284 OFFCURVE",
"208 149 OFFCURVE",
"208 50 QCURVE SMOOTH",
"208 -44 OFFCURVE",
"341 -162 OFFCURVE",
"476 -162 QCURVE SMOOTH",
"611 -162 OFFCURVE",
"752 -54 OFFCURVE",
"752 36 QCURVE SMOOTH",
"752 56 LINE",
"948 56 LINE"
);
}
);
width = 989;
}
);
unicode = 00BF;
userData = {
com.typemytype.robofont.guideline.magnetic.5ZPZZL8Rim = 5;
com.typemytype.robofont.guideline.magnetic.apukwP5ffL = 5;
};
},
{
glyphname = slash;
layers = (
{
layerId = "F265E254-A92B-4432-B734-C31CE1135299";
paths = (
{
closed = 1;
nodes = (
"704 1456 LINE",
"905 1456 LINE",
"-59 -125 LINE",
"-258 -125 LINE"
);
}
);
width = 670;
}
);
unicode = 002F;
},
{
glyphname = backslash;
layers = (
{
layerId = "F265E254-A92B-4432-B734-C31CE1135299";
paths = (
{
closed = 1;
nodes = (
"220 1456 LINE",
"626 -125 LINE",
"426 -125 LINE",
"21 1456 LINE"
);
}
);
width = 670;
}
);
unicode = 005C;
},
{
glyphname = fraction;
layers = (
{
guideLines = (
{
position = "{0, 901}";
},
{
position = "{0, 555}";
}
);
layerId = "F265E254-A92B-4432-B734-C31CE1135299";
paths = (
{
closed = 1;
nodes = (
"-388 -43 LINE",
"-506 47 LINE",
"732 1512 LINE",
"846 1415 LINE"
);
}
);
width = 342;
}
);
unicode = 2044;
userData = {
com.typemytype.robofont.guideline.magnetic.0lx51aIE0d = 5;
com.typemytype.robofont.guideline.magnetic.tcCoNUQTdD = 5;
};
},
{
glyphname = bar;
layers = (
{
layerId = "F265E254-A92B-4432-B734-C31CE1135299";
paths = (
{
closed = 1;
nodes = (
"346 1456 LINE",
"518 1456 LINE",
"174 -416 LINE",
"1 -416 LINE"
);
}
);
width = 580;
}
);
unicode = 007C;
},
{
glyphname = brokenbar;
layers = (
{
guideLines = (
{
position = "{0, 901}";
},
{
position = "{0, 555}";
}
);
layerId = "F265E254-A92B-4432-B734-C31CE1135299";
paths = (
{
closed = 1;
nodes = (
"205 -416 LINE",
"205 359 LINE",
"397 359 LINE",
"397 -416 LINE"
);
},
{
closed = 1;
nodes = (
"397 761 LINE",
"205 761 LINE",
"205 1536 LINE",
"397 1536 LINE"
);
}
);
width = 602;
}
);
unicode = 00A6;
userData = {
com.typemytype.robofont.guideline.magnetic.Z0RZpP7MTi = 5;
com.typemytype.robofont.guideline.magnetic.jmguX8NWKI = 5;
};
},
{
glyphname = at;
layers = (
{
layerId = "F265E254-A92B-4432-B734-C31CE1135299";
paths = (
{
closed = 1;
nodes = (
"658 680 OFFCURVE",
"1052 1052 OFFCURVE",
"1263 1052 QCURVE SMOOTH",
"1362 1052 OFFCURVE",
"1513 985 OFFCURVE",
"1562 946 QCURVE",
"1667 946 LINE",
"1430 350 LINE SMOOTH",
"1383 232 OFFCURVE",
"1458 139 OFFCURVE",
"1546 139 QCURVE SMOOTH",
"1709 139 OFFCURVE",
"1965 422 OFFCURVE",
"2005 650 QCURVE SMOOTH",
"2053 918 OFFCURVE",
"1698 1326 OFFCURVE",
"1313 1326 QCURVE SMOOTH",
"927 1326 OFFCURVE",
"316 818 OFFCURVE",
"252 460 QCURVE SMOOTH",
"189 102 OFFCURVE",
"575 -286 OFFCURVE",
"917 -286 QCURVE SMOOTH",
"1070 -286 OFFCURVE",
"1292 -232 OFFCURVE",
"1371 -196 QCURVE",
"1343 -356 LINE",
"1259 -400 OFFCURVE",
"1042 -446 OFFCURVE",
"889 -446 QCURVE SMOOTH",
"488 -446 OFFCURVE",
"-11 40 OFFCURVE",
"63 460 QCURVE SMOOTH",
"137 880 OFFCURVE",
"895 1486 OFFCURVE",
"1340 1486 QCURVE SMOOTH",
"1785 1486 OFFCURVE",
"2251 1000 OFFCURVE",
"2190 650 QCURVE SMOOTH",
"2139 360 OFFCURVE",
"1765 0 OFFCURVE",
"1541 0 QCURVE SMOOTH",
"1421 0 OFFCURVE",
"1259 101 OFFCURVE",
"1229 180 QCURVE",
"1159 98 OFFCURVE",
"975 0 OFFCURVE",
"880 0 QCURVE SMOOTH",
"724 0 OFFCURVE",
"577 220 OFFCURVE",
"609 400 QCURVE SMOOTH"
);
},
{
closed = 1;
nodes = (
"780 281 OFFCURVE",
"863 159 OFFCURVE",
"962 159 QCURVE SMOOTH",
"1047 159 OFFCURVE",
"1205 262 OFFCURVE",
"1258 392 QCURVE SMOOTH",
"1450 866 LINE",
"1416 888 OFFCURVE",
"1320 908 OFFCURVE",
"1270 908 QCURVE SMOOTH",
"1106 908 OFFCURVE",
"840 618 OFFCURVE",
"801 400 QCURVE SMOOTH"
);
}
);
width = 2315;
}
);
unicode = 0040;
},
{
glyphname = ampersand;
layers = (
{
layerId = "F265E254-A92B-4432-B734-C31CE1135299";
paths = (
{
closed = 1;
nodes = (
"44 539 OFFCURVE",
"297 756 OFFCURVE",
"515 863 QCURVE SMOOTH",
"716 962 LINE SMOOTH",
"817 1012 OFFCURVE",
"906 1106 OFFCURVE",
"917 1168 QCURVE SMOOTH",
"929 1240 OFFCURVE",
"835 1329 OFFCURVE",
"737 1329 QCURVE SMOOTH",
"635 1329 OFFCURVE",
"494 1230 OFFCURVE",
"482 1158 QCURVE SMOOTH",
"469 1087 OFFCURVE",
"543 954 OFFCURVE",
"631 836 QCURVE SMOOTH",
"1257 0 LINE",
"1021 0 LINE",
"469 738 LINE SMOOTH",
"372 867 OFFCURVE",
"278 1058 OFFCURVE",
"295 1158 QCURVE SMOOTH",
"320 1302 OFFCURVE",
"590 1486 OFFCURVE",
"764 1486 QCURVE SMOOTH",
"933 1486 OFFCURVE",
"1122 1314 OFFCURVE",
"1099 1178 QCURVE SMOOTH",
"1078 1057 OFFCURVE",
"920 898 OFFCURVE",
"810 843 QCURVE SMOOTH",
"600 738 LINE SMOOTH",
"405 639 OFFCURVE",
"223 491 OFFCURVE",
"204 381 QCURVE SMOOTH",
"185 272 OFFCURVE",
"343 137 OFFCURVE",
"494 137 QCURVE SMOOTH",
"701 137 OFFCURVE",
"1051 422 OFFCURVE",
"1096 674 QCURVE",
"1273 674 LINE",
"1221 380 OFFCURVE",
"757 -20 OFFCURVE",
"467 -20 QCURVE SMOOTH",
"223 -20 OFFCURVE",
"-15 200 OFFCURVE",
"16 380 QCURVE SMOOTH"
);
}
);
width = 1410;
}
);
unicode = 0026;
},
{
glyphname = section;
layers = (
{
guideLines = (
{
position = "{0, 1658}";
},
{
position = "{0, 578}";
}
);
layerId = "F265E254-A92B-4432-B734-C31CE1135299";
paths = (
{
closed = 1;
nodes = (
"758 252 LINE",
"914 252 OFFCURVE",
"1081 361 OFFCURVE",
"1081 463 QCURVE",
"1081 556 OFFCURVE",
"854 669 OFFCURVE",
"673 731 QCURVE SMOOTH",
"404 815 OFFCURVE",
"193 986 OFFCURVE",
"193 1129 QCURVE SMOOTH",
"193 1302 OFFCURVE",
"455 1490 OFFCURVE",
"690 1491 QCURVE SMOOTH",
"920 1492 OFFCURVE",
"1177 1290 OFFCURVE",
"1176 1100 QCURVE",
"1001 1100 LINE",
"1002 1214 OFFCURVE",
"841 1337 OFFCURVE",
"690 1337 QCURVE SMOOTH",
"535 1337 OFFCURVE",
"368 1235 OFFCURVE",
"368 1140 QCURVE SMOOTH",
"368 1071 OFFCURVE",
"532 970 OFFCURVE",
"751 900 QCURVE SMOOTH",
"935 842 OFFCURVE",
"1272 652 OFFCURVE",
"1272 478 QCURVE SMOOTH",
"1272 312 OFFCURVE",
"1001 133 OFFCURVE",
"758 133 QCURVE"
);
},
{
closed = 1;
nodes = (
"603 756 LINE",
"461 756 OFFCURVE",
"308 658 OFFCURVE",
"308 567 QCURVE SMOOTH",
"308 487 OFFCURVE",
"514 390 OFFCURVE",
"703 320 QCURVE SMOOTH",
"973 220 OFFCURVE",
"1185 33 OFFCURVE",
"1185 -113 QCURVE SMOOTH",
"1185 -304 OFFCURVE",
"911 -509 OFFCURVE",
"666 -509 QCURVE SMOOTH",
"412 -509 OFFCURVE",
"128 -283 OFFCURVE",
"128 -72 QCURVE",
"302 -70 LINE",
"302 -207 OFFCURVE",
"491 -355 OFFCURVE",
"666 -355 QCURVE SMOOTH",
"832 -355 OFFCURVE",
"1011 -242 OFFCURVE",
"1011 -136 QCURVE SMOOTH",
"1011 -43 OFFCURVE",
"838 81 OFFCURVE",
"607 158 QCURVE SMOOTH",
"422 219 OFFCURVE",
"116 420 OFFCURVE",
"116 577 QCURVE SMOOTH",
"116 730 OFFCURVE",
"374 894 OFFCURVE",
"604 894 QCURVE"
);
}
);
width = 1388;
}
);
unicode = 00A7;
userData = {
com.typemytype.robofont.guideline.magnetic.9Hxjf2sdFw = 5;
com.typemytype.robofont.guideline.magnetic.QzZ5gIiCyn = 5;
};
},
{
glyphname = paragraph;
layers = (
{
guideLines = (
{
position = "{0, 901}";
},
{
position = "{0, 555}";
}
);
layerId = "F265E254-A92B-4432-B734-C31CE1135299";
paths = (
{
closed = 1;
nodes = (
"667 -146 LINE",
"667 690 LINE",
"520 690 LINE SMOOTH",
"296 690 OFFCURVE",
"56 888 OFFCURVE",
"56 1073 QCURVE SMOOTH",
"56 1258 OFFCURVE",
"296 1456 OFFCURVE",
"520 1456 QCURVE SMOOTH",
"863 1456 LINE",
"863 -146 LINE"
);
},
{
closed = 1;
nodes = (
"1201 1459 LINE",
"1201 -146 LINE",
"1005 -146 LINE",
"1005 1459 LINE"
);
}
);
width = 1401;
}
);
unicode = 00B6;
userData = {
com.typemytype.robofont.guideline.magnetic.27539Lsr1A = 5;
com.typemytype.robofont.guideline.magnetic.e34wUdCmXR = 5;
};
},
{
glyphname = numero;
layers = (
{
layerId = "F265E254-A92B-4432-B734-C31CE1135299";
paths = (
{
closed = 1;
nodes = (
"160 1456 LINE",
"365 1456 LINE",
"1087 396 LINE SMOOTH",
"1107 367 OFFCURVE",
"1141 306 OFFCURVE",
"1153 281 QCURVE",
"1163 281 LINE",
"1159 311 OFFCURVE",
"1157 386 OFFCURVE",
"1157 416 QCURVE SMOOTH",
"1157 1456 LINE",
"1334 1456 LINE",
"1334 0 LINE",
"1137 0 LINE",
"407 1048 LINE SMOOTH",
"386 1078 OFFCURVE",
"362 1138 OFFCURVE",
"355 1165 QCURVE",
"345 1165 LINE",
"349 1135 OFFCURVE",
"350 1060 OFFCURVE",
"350 1030 QCURVE SMOOTH",
"350 0 LINE",
"160 0 LINE"
);
},
{
closed = 1;
nodes = (
"1473 1019 LINE SMOOTH",
"1473 1217 OFFCURVE",
"1753 1473 OFFCURVE",
"1969 1473 QCURVE SMOOTH",
"2186 1473 OFFCURVE",
"2466 1217 OFFCURVE",
"2466 1019 QCURVE SMOOTH",
"2466 992 LINE SMOOTH",
"2466 794 OFFCURVE",
"2186 539 OFFCURVE",
"1969 539 QCURVE SMOOTH",
"1753 539 OFFCURVE",
"1473 794 OFFCURVE",
"1473 992 QCURVE SMOOTH"
);
},
{
closed = 1;
nodes = (
"1671 991 LINE SMOOTH",
"1671 864 OFFCURVE",
"1839 699 OFFCURVE",
"1969 699 QCURVE SMOOTH",
"2099 699 OFFCURVE",
"2268 864 OFFCURVE",
"2268 991 QCURVE SMOOTH",
"2268 1016 LINE SMOOTH",
"2268 1143 OFFCURVE",
"2099 1308 OFFCURVE",
"1969 1308 QCURVE SMOOTH",
"1839 1308 OFFCURVE",
"1671 1143 OFFCURVE",
"1671 1016 QCURVE SMOOTH"
);
},
{
closed = 1;
nodes = (
"1513 414 LINE",
"2426 414 LINE",
"2426 232 LINE",
"1513 232 LINE"
);
}
);
width = 2575;
}
);
unicode = 2116;
},
{
glyphname = periodcentered;
layers = (
{
layerId = "F265E254-A92B-4432-B734-C31CE1135299";
paths = (
{
closed = 1;
nodes = (
"176 798 OFFCURVE",
"240 868 OFFCURVE",
"300 868 QCURVE SMOOTH",
"360 868 OFFCURVE",
"424 798 OFFCURVE",
"424 749 QCURVE SMOOTH",
"424 700 OFFCURVE",
"360 630 OFFCURVE",
"300 630 QCURVE SMOOTH",
"240 630 OFFCURVE",
"176 700 OFFCURVE",
"176 749 QCURVE SMOOTH"
);
}
);
width = 600;
}
);
unicode = 00B7;
},
{
glyphname = bullet;
layers = (
{
layerId = "F265E254-A92B-4432-B734-C31CE1135299";
paths = (
{
closed = 1;
nodes = (
"104 889 OFFCURVE",
"266 1061 OFFCURVE",
"392 1061 QCURVE SMOOTH",
"518 1061 OFFCURVE",
"680 889 OFFCURVE",
"680 773 QCURVE SMOOTH",
"680 659 OFFCURVE",
"518 487 OFFCURVE",
"392 487 QCURVE SMOOTH",
"266 487 OFFCURVE",
"104 659 OFFCURVE",
"104 773 QCURVE SMOOTH"
);
}
);
width = 784;
}
);
unicode = 2022;
},
{
glyphname = minute;
layers = (
{
layerId = "F265E254-A92B-4432-B734-C31CE1135299";
paths = (
{
closed = 1;
nodes = (
"395 1559 LINE",
"588 1452 LINE",
"231 884 LINE",
"100 964 LINE"
);
}
);
width = 654;
}
);
leftKerningGroup = minute;
rightKerningGroup = minute;
unicode = 2032;
},
{
glyphname = second;
layers = (
{
layerId = "F265E254-A92B-4432-B734-C31CE1135299";
paths = (
{
closed = 1;
nodes = (
"395 1559 LINE",
"588 1452 LINE",
"231 884 LINE",
"100 964 LINE"
);
},
{
closed = 1;
nodes = (
"795 1559 LINE",
"988 1452 LINE",
"631 884 LINE",
"500 964 LINE"
);
}
);
width = 1054;
}
);
leftKerningGroup = minute;
rightKerningGroup = minute;
unicode = 2033;
},
{
glyphname = plus;
layers = (
{
layerId = "F265E254-A92B-4432-B734-C31CE1135299";
paths = (
{
closed = 1;
nodes = (
"29 758 LINE",
"1118 758 LINE",
"1089 590 LINE",
"0 590 LINE"
);
},
{
closed = 1;
nodes = (
"553 1218 LINE",
"737 1218 LINE",
"566 130 LINE",
"381 130 LINE"
);
}
);
width = 1139;
}
);
unicode = 002B;
},
{
glyphname = minus;
layers = (
{
layerId = "F265E254-A92B-4432-B734-C31CE1135299";
paths = (
{
closed = 1;
nodes = (
"57 768 LINE",
"967 768 LINE",
"967 588 LINE",
"57 588 LINE"
);
}
);
width = 1024;
}
);
unicode = 2212;
},
{
glyphname = plusminus;
layers = (
{
layerId = "F265E254-A92B-4432-B734-C31CE1135299";
paths = (
{
closed = 1;
nodes = (
"57 778 LINE",
"1087 778 LINE",
"1087 608 LINE",
"57 608 LINE"
);
},
{
closed = 1;
nodes = (
"477 1160 LINE",
"667 1160 LINE",
"667 248 LINE",
"477 248 LINE"
);
},
{
closed = 1;
nodes = (
"57 171 LINE",
"1087 171 LINE",
"1087 1 LINE",
"57 1 LINE"
);
}
);
width = 1144;
}
);
unicode = 00B1;
},
{
glyphname = divide;
layers = (
{
layerId = "F265E254-A92B-4432-B734-C31CE1135299";
paths = (
{
closed = 1;
nodes = (
"446 1118 OFFCURVE",
"509 1188 OFFCURVE",
"571 1188 QCURVE SMOOTH",
"632 1188 OFFCURVE",
"697 1118 OFFCURVE",
"697 1065 QCURVE SMOOTH",
"697 1014 OFFCURVE",
"632 945 OFFCURVE",
"571 945 QCURVE SMOOTH",
"509 945 OFFCURVE",
"446 1014 OFFCURVE",
"446 1065 QCURVE SMOOTH"
);
},
{
closed = 1;
nodes = (
"446 340 OFFCURVE",
"509 411 OFFCURVE",
"571 411 QCURVE SMOOTH",
"632 411 OFFCURVE",
"697 340 OFFCURVE",
"697 288 QCURVE SMOOTH",
"697 237 OFFCURVE",
"632 167 OFFCURVE",
"571 167 QCURVE SMOOTH",
"509 167 OFFCURVE",
"446 237 OFFCURVE",
"446 288 QCURVE SMOOTH"
);
},
{
closed = 1;
nodes = (
"57 768 LINE",
"1087 768 LINE",
"1087 588 LINE",
"57 588 LINE"
);
}
);
width = 1144;
}
);
unicode = 00F7;
},
{
glyphname = multiply;
layers = (
{
layerId = "F265E254-A92B-4432-B734-C31CE1135299";
paths = (
{
closed = 1;
nodes = (
"82 349 LINE",
"940 1104 LINE",
"1048 991 LINE",
"190 237 LINE"
);
},
{
closed = 1;
nodes = (
"85 980 LINE",
"204 1104 LINE",
"1051 360 LINE",
"932 237 LINE"
);
}
);
width = 1133;
}
);
unicode = 00D7;
},
{
glyphname = equal;
layers = (
{
layerId = "F265E254-A92B-4432-B734-C31CE1135299";
paths = (
{
closed = 1;
nodes = (
"118 556 LINE",
"1065 556 LINE",
"1035 387 LINE",
"88 387 LINE"
);
},
{
closed = 1;
nodes = (
"188 961 LINE",
"1135 961 LINE",
"1105 792 LINE",
"158 792 LINE"
);
}
);
width = 1247;
}
);
unicode = 003D;
},
{
glyphname = less;
layers = (
{
layerId = "F265E254-A92B-4432-B734-C31CE1135299";
paths = (
{
closed = 1;
nodes = (
"144 599 LINE",
"169 749 LINE",
"1135 1130 LINE",
"1101 934 LINE",
"393 674 LINE",
"1012 414 LINE",
"976 218 LINE"
);
}
);
width = 1241;
}
);
unicode = 003C;
},
{
glyphname = greater;
layers = (
{
layerId = "F265E254-A92B-4432-B734-C31CE1135299";
paths = (
{
closed = 1;
nodes = (
"119 414 LINE",
"828 674 LINE",
"208 934 LINE",
"244 1130 LINE",
"1076 749 LINE",
"1051 599 LINE",
"85 218 LINE"
);
}
);
width = 1242;
}
);
unicode = 003E;
},
{
glyphname = lessequal;
layers = (
{
layerId = "F265E254-A92B-4432-B734-C31CE1135299";
paths = (
{
closed = 1;
nodes = (
"170 599 LINE",
"170 749 LINE",
"1094 1130 LINE",
"1094 934 LINE",
"412 674 LINE",
"1094 414 LINE",
"1094 218 LINE"
);
},
{
closed = 1;
nodes = (
"152 170 LINE",
"1122 170 LINE",
"1122 1 LINE",
"152 1 LINE"
);
}
);
width = 1272;
}
);
unicode = 2264;
},
{
glyphname = greaterequal;
layers = (
{
layerId = "F265E254-A92B-4432-B734-C31CE1135299";
paths = (
{
closed = 1;
nodes = (
"178 414 LINE",
"860 674 LINE",
"178 934 LINE",
"178 1130 LINE",
"1102 749 LINE",
"1102 599 LINE",
"178 218 LINE"
);
},
{
closed = 1;
nodes = (
"150 1 LINE",
"150 170 LINE",
"1120 170 LINE",
"1120 1 LINE"
);
}
);
width = 1272;
}
);
unicode = 2265;
},
{
glyphname = approxequal;
layers = (
{
layerId = "F265E254-A92B-4432-B734-C31CE1135299";
paths = (
{
closed = 1;
nodes = (
"107 901 LINE",
"160 952 OFFCURVE",
"310 1010 OFFCURVE",
"384 1011 QCURVE SMOOTH",
"474 1012 OFFCURVE",
"579 969 OFFCURVE",
"651 938 QCURVE SMOOTH",
"718 908 OFFCURVE",
"815 868 OFFCURVE",
"899 868 QCURVE SMOOTH",
"973 868 OFFCURVE",
"1115 936 OFFCURVE",
"1168 996 QCURVE",
"1168 799 LINE",
"1115 748 OFFCURVE",
"974 690 OFFCURVE",
"900 690 QCURVE SMOOTH",
"816 690 OFFCURVE",
"719 729 OFFCURVE",
"652 759 QCURVE SMOOTH",
"580 790 OFFCURVE",
"474 832 OFFCURVE",
"384 832 QCURVE SMOOTH",
"310 832 OFFCURVE",
"160 764 OFFCURVE",
"107 704 QCURVE"
);
},
{
closed = 1;
nodes = (
"106 484 LINE",
"159 535 OFFCURVE",
"309 592 OFFCURVE",
"383 593 QCURVE SMOOTH",
"473 594 OFFCURVE",
"578 551 OFFCURVE",
"650 520 QCURVE SMOOTH",
"717 490 OFFCURVE",
"813 451 OFFCURVE",
"898 451 QCURVE SMOOTH",
"972 451 OFFCURVE",
"1114 519 OFFCURVE",
"1167 579 QCURVE",
"1167 381 LINE",
"1114 330 OFFCURVE",
"973 272 OFFCURVE",
"899 272 QCURVE SMOOTH",
"815 272 OFFCURVE",
"718 311 OFFCURVE",
"651 341 QCURVE SMOOTH",
"579 372 OFFCURVE",
"473 414 OFFCURVE",
"383 414 QCURVE SMOOTH",
"309 414 OFFCURVE",
"159 347 OFFCURVE",
"106 287 QCURVE"
);
}
);
width = 1272;
}
);
unicode = 2248;
},
{
glyphname = notequal;
layers = (
{
layerId = "F265E254-A92B-4432-B734-C31CE1135299";
paths = (
{
closed = 1;
nodes = (
"830 861 LINE",
"803 832 LINE",
"589 461 LINE",
"585 437 LINE",
"384 89 LINE",
"246 169 LINE",
"406 447 LINE",
"429 469 LINE",
"636 828 LINE",
"647 864 LINE",
"872 1261 LINE",
"1010 1181 LINE"
);
},
{
closed = 1;
nodes = (
"152 556 LINE",
"1126 556 LINE",
"1126 387 LINE",
"152 387 LINE"
);
},
{
closed = 1;
nodes = (
"152 961 LINE",
"1126 961 LINE",
"1126 792 LINE",
"152 792 LINE"
);
}
);
width = 1278;
}
);
unicode = 2260;
},
{
glyphname = logicalnot;
layers = (
{
layerId = "F265E254-A92B-4432-B734-C31CE1135299";
paths = (
{
closed = 1;
nodes = (
"1058 376 LINE",
"863 376 LINE",
"863 634 LINE",
"58 634 LINE",
"58 804 LINE",
"1058 804 LINE"
);
}
);
width = 1154;
}
);
unicode = 00AC;
},
{
glyphname = commercialMinusSign;
layers = (
{
layerId = "F265E254-A92B-4432-B734-C31CE1135299";
paths = (
{
closed = 1;
nodes = (
"646 1501 LINE",
"814 1458 LINE",
"229 -45 LINE",
"61 -2 LINE"
);
},
{
closed = 1;
nodes = (
"505 213 OFFCURVE",
"596 310 OFFCURVE",
"667 310 QCURVE SMOOTH",
"738 310 OFFCURVE",
"829 213 OFFCURVE",
"829 148 QCURVE SMOOTH",
"829 84 OFFCURVE",
"738 -13 OFFCURVE",
"667 -13 QCURVE SMOOTH",
"596 -13 OFFCURVE",
"505 84 OFFCURVE",
"505 148 QCURVE SMOOTH"
);
},
{
closed = 1;
nodes = (
"60 1369 OFFCURVE",
"151 1466 OFFCURVE",
"222 1466 QCURVE SMOOTH",
"293 1466 OFFCURVE",
"384 1369 OFFCURVE",
"384 1304 QCURVE SMOOTH",
"384 1240 OFFCURVE",
"293 1143 OFFCURVE",
"222 1143 QCURVE SMOOTH",
"151 1143 OFFCURVE",
"60 1240 OFFCURVE",
"60 1304 QCURVE SMOOTH"
);
}
);
width = 889;
}
);
unicode = 2052;
},
{
glyphname = divisionslash;
layers = (
{
layerId = "F265E254-A92B-4432-B734-C31CE1135299";
paths = (
{
closed = 1;
nodes = (
"554 1555 LINE",
"695 1512 LINE",
"79 -161 LINE",
"-62 -118 LINE"
);
}
);
width = 656;
}
);
unicode = 2215;
},
{
glyphname = bulletoperator;
layers = (
{
layerId = "F265E254-A92B-4432-B734-C31CE1135299";
paths = (
{
closed = 1;
nodes = (
"368 732 OFFCURVE",
"449 818 OFFCURVE",
"512 818 QCURVE SMOOTH",
"575 818 OFFCURVE",
"656 732 OFFCURVE",
"656 674 QCURVE SMOOTH",
"656 617 OFFCURVE",
"575 531 OFFCURVE",
"512 531 QCURVE SMOOTH",
"449 531 OFFCURVE",
"368 617 OFFCURVE",
"368 674 QCURVE SMOOTH"
);
}
);
width = 1024;
}
);
unicode = 2219;
},
{
glyphname = dollar;
layers = (
{
layerId = "F265E254-A92B-4432-B734-C31CE1135299";
paths = (
{
closed = 1;
nodes = (
"-34 425 LINE",
"154 425 LINE",
"152 413 LINE SMOOTH",
"131 292 OFFCURVE",
"309 162 OFFCURVE",
"490 162 QCURVE SMOOTH",
"666 162 OFFCURVE",
"876 253 OFFCURVE",
"894 353 QCURVE SMOOTH",
"910 458 OFFCURVE",
"795 597 OFFCURVE",
"516 671 QCURVE SMOOTH",
"302 728 OFFCURVE",
"105 946 OFFCURVE",
"132 1111 QCURVE SMOOTH",
"160 1265 OFFCURVE",
"457 1456 OFFCURVE",
"711 1456 QCURVE SMOOTH",
"957 1456 OFFCURVE",
"1210 1210 OFFCURVE",
"1182 1049 QCURVE SMOOTH",
"1180 1037 LINE",
"991 1037 LINE",
"993 1049 LINE SMOOTH",
"1012 1154 OFFCURVE",
"858 1294 OFFCURVE",
"685 1294 QCURVE SMOOTH",
"510 1294 OFFCURVE",
"335 1211 OFFCURVE",
"317 1111 QCURVE SMOOTH",
"303 1025 OFFCURVE",
"431 882 OFFCURVE",
"683 809 QCURVE SMOOTH",
"920 740 OFFCURVE",
"1109 530 OFFCURVE",
"1081 376 QCURVE SMOOTH",
"1052 189 OFFCURVE",
"722 0 OFFCURVE",
"464 0 QCURVE SMOOTH",
"206 0 OFFCURVE",
"-67 232 OFFCURVE",
"-35 413 QCURVE SMOOTH"
);
},
{
closed = 1;
nodes = (
"522 728 LINE",
"664 728 LINE",
"545 100 LINE",
"554 90 LINE",
"511 -150 LINE",
"358 -150 LINE"
);
},
{
closed = 1;
nodes = (
"641 1356 LINE",
"632 1366 LINE",
"666 1606 LINE",
"819 1606 LINE",
"673 728 LINE",
"530 728 LINE"
);
}
);
width = 1165;
}
);
unicode = 0024;
},
{
glyphname = cent;
layers = (
{
layerId = "F265E254-A92B-4432-B734-C31CE1135299";
paths = (
{
closed = 1;
nodes = (
"838 288 OFFCURVE",
"993 407 OFFCURVE",
"993 507 QCURVE",
"1182 507 LINE",
"1182 360 OFFCURVE",
"921 130 OFFCURVE",
"668 130 QCURVE SMOOTH",
"396 130 OFFCURVE",
"85 434 OFFCURVE",
"85 675 QCURVE SMOOTH",
"85 707 LINE SMOOTH",
"85 947 OFFCURVE",
"396 1252 OFFCURVE",
"668 1252 QCURVE SMOOTH",
"921 1252 OFFCURVE",
"1182 1022 OFFCURVE",
"1182 874 QCURVE",
"993 874 LINE",
"993 974 OFFCURVE",
"838 1093 OFFCURVE",
"668 1093 QCURVE SMOOTH",
"471 1093 OFFCURVE",
"284 880 OFFCURVE",
"284 707 QCURVE SMOOTH",
"284 675 LINE SMOOTH",
"284 502 OFFCURVE",
"471 288 OFFCURVE",
"668 288 QCURVE SMOOTH"
);
},
{
closed = 1;
nodes = (
"566 237 LINE",
"571 251 LINE",
"571 708 LINE",
"711 708 LINE",
"711 250 LINE",
"716 240 LINE",
"716 0 LINE",
"566 0 LINE"
);
},
{
closed = 1;
nodes = (
"571 1182 LINE",
"566 1192 LINE",
"566 1402 LINE",
"716 1402 LINE",
"716 1192 LINE",
"711 1179 LINE",
"711 708 LINE",
"571 708 LINE"
);
}
);
width = 1218;
}
);
unicode = 00A2;
},
{
glyphname = sterling;
layers = (
{
layerId = "F265E254-A92B-4432-B734-C31CE1135299";
paths = (
{
closed = 1;
nodes = (
"36 0 LINE",
"36 166 LINE",
"92 166 LINE SMOOTH",
"184 166 OFFCURVE",
"264 324 OFFCURVE",
"250 467 QCURVE SMOOTH",
"195 1039 LINE SMOOTH",
"175 1250 OFFCURVE",
"406 1476 OFFCURVE",
"641 1476 QCURVE SMOOTH",
"864 1476 OFFCURVE",
"1104 1283 OFFCURVE",
"1104 1103 QCURVE SMOOTH",
"1104 1087 LINE",
"912 1087 LINE",
"912 1103 LINE SMOOTH",
"912 1202 OFFCURVE",
"773 1303 OFFCURVE",
"643 1303 QCURVE SMOOTH",
"505 1303 OFFCURVE",
"381 1169 OFFCURVE",
"393 1039 QCURVE SMOOTH",
"444 508 LINE SMOOTH",
"457 372 OFFCURVE",
"392 213 OFFCURVE",
"322 172 QCURVE",
"1148 172 LINE",
"1148 0 LINE"
);
},
{
closed = 1;
nodes = (
"52 622 LINE",
"52 783 LINE",
"944 783 LINE",
"944 622 LINE"
);
}
);
width = 1171;
}
);
unicode = 00A3;
},
{
glyphname = currency;
layers = (
{
guideLines = (
{
position = "{0, 901}";
},
{
position = "{0, 555}";
}
);
layerId = "F265E254-A92B-4432-B734-C31CE1135299";
paths = (
{
closed = 1;
nodes = (
"329 564 OFFCURVE",
"530 379 OFFCURVE",
"694 379 QCURVE SMOOTH",
"857 379 OFFCURVE",
"1057 564 OFFCURVE",
"1057 712 QCURVE SMOOTH",
"1057 859 OFFCURVE",
"857 1043 OFFCURVE",
"694 1043 QCURVE SMOOTH",
"530 1043 OFFCURVE",
"329 859 OFFCURVE",
"329 712 QCURVE"
);
},
{
closed = 1;
nodes = (
"136 939 OFFCURVE",
"450 1225 OFFCURVE",
"693 1225 QCURVE SMOOTH",
"936 1225 OFFCURVE",
"1250 939 OFFCURVE",
"1250 718 QCURVE SMOOTH",
"1250 496 OFFCURVE",
"936 209 OFFCURVE",
"693 209 QCURVE SMOOTH",
"450 209 OFFCURVE",
"136 496 OFFCURVE",
"136 718 QCURVE"
);
},
{
closed = 1;
nodes = (
"1095 970 LINE",
"973 1097 LINE",
"1175 1303 LINE",
"1297 1176 LINE"
);
},
{
closed = 1;
nodes = (
"191 148 LINE",
"70 274 LINE",
"272 479 LINE",
"393 354 LINE"
);
},
{
closed = 1;
nodes = (
"999 361 LINE",
"1122 487 LINE",
"1324 282 LINE",
"1201 155 LINE"
);
},
{
closed = 1;
nodes = (
"87 1190 LINE",
"208 1316 LINE",
"410 1110 LINE",
"289 984 LINE"
);
}
);
width = 1394;
}
);
unicode = 00A4;
userData = {
com.typemytype.robofont.guideline.magnetic.917FhrihjR = 5;
com.typemytype.robofont.guideline.magnetic.bRYxxRaQQf = 5;
};
},
{
glyphname = yen;
layers = (
{
layerId = "F265E254-A92B-4432-B734-C31CE1135299";
paths = (
{
closed = 1;
nodes = (
"127 470 LINE",
"1273 470 LINE",
"1273 311 LINE",
"127 311 LINE"
);
},
{
closed = 1;
nodes = (
"127 775 LINE",
"593 775 LINE",
"646 669 LINE",
"755 669 LINE",
"803 775 LINE",
"1273 775 LINE",
"1273 621 LINE",
"127 621 LINE"
);
},
{
closed = 1;
nodes = (
"598 548 LINE",
"33 1456 LINE",
"248 1456 LINE",
"624 849 LINE SMOOTH",
"643 819 OFFCURVE",
"676 746 OFFCURVE",
"688 709 QCURVE",
"708 709 LINE",
"727 765 OFFCURVE",
"754 821 OFFCURVE",
"772 849 QCURVE SMOOTH",
"1152 1456 LINE",
"1359 1456 LINE",
"794 548 LINE",
"794 0 LINE",
"598 0 LINE"
);
}
);
width = 1326;
}
);
unicode = 00A5;
},
{
glyphname = coloncurrency;
layers = (
{
guideLines = (
{
position = "{0, 1570}";
}
);
layerId = "F265E254-A92B-4432-B734-C31CE1135299";
paths = (
{
closed = 1;
nodes = (
"993 1324 LINE",
"980 1301 LINE",
"808 68 LINE",
"814 43 LINE",
"790 -125 LINE",
"631 -125 LINE",
"654 40 LINE",
"668 66 LINE",
"853 1361 LINE",
"846 1381 LINE",
"874 1570 LINE",
"1032 1570 LINE"
);
},
{
closed = 1;
nodes = (
"735 1395 LINE",
"722 1374 LINE",
"535 66 LINE",
"541 39 LINE",
"518 -125 LINE",
"359 -125 LINE",
"394 122 LINE",
"408 148 LINE",
"584 1376 LINE",
"577 1399 LINE",
"602 1570 LINE",
"760 1570 LINE"
);
},
{
closed = 1;
nodes = (
"85 844 LINE SMOOTH",
"85 1153 OFFCURVE",
"399 1486 OFFCURVE",
"691 1486 QCURVE SMOOTH",
"967 1486 OFFCURVE",
"1263 1255 OFFCURVE",
"1263 1040 QCURVE SMOOTH",
"1263 990 LINE",
"1071 990 LINE",
"1071 1041 LINE SMOOTH",
"1071 1181 OFFCURVE",
"874 1332 OFFCURVE",
"691 1332 QCURVE SMOOTH",
"493 1332 OFFCURVE",
"281 1079 OFFCURVE",
"281 844 QCURVE SMOOTH",
"281 592 LINE SMOOTH",
"281 362 OFFCURVE",
"499 114 OFFCURVE",
"701 114 QCURVE SMOOTH",
"882 114 OFFCURVE",
"1076 268 OFFCURVE",
"1076 412 QCURVE SMOOTH",
"1076 466 LINE",
"1273 466 LINE",
"1273 426 LINE SMOOTH",
"1273 206 OFFCURVE",
"977 -30 OFFCURVE",
"701 -30 QCURVE SMOOTH",
"404 -30 OFFCURVE",
"85 303 OFFCURVE",
"85 612 QCURVE SMOOTH"
);
}
);
width = 1294;
}
);
unicode = 20A1;
userData = {
com.typemytype.robofont.guideline.magnetic.0DwZ2nfhdf = 5;
};
},
{
glyphname = franc;
layers = (
{
layerId = "F265E254-A92B-4432-B734-C31CE1135299";
paths = (
{
closed = 1;
nodes = (
"170 1456 LINE",
"1122 1456 LINE",
"1122 1293 LINE",
"372 1293 LINE",
"372 864 LINE",
"1033 864 LINE",
"1033 701 LINE",
"372 701 LINE",
"372 0 LINE",
"170 0 LINE"
);
},
{
closed = 1;
nodes = (
"20 459 LINE",
"845 459 LINE",
"845 292 LINE",
"20 292 LINE"
);
}
);
width = 1144;
}
);
unicode = 20A3;
},
{
glyphname = lira;
layers = (
{
layerId = "F265E254-A92B-4432-B734-C31CE1135299";
paths = (
{
closed = 1;
nodes = (
"36 0 LINE",
"36 166 LINE",
"92 166 LINE SMOOTH",
"184 166 OFFCURVE",
"264 324 OFFCURVE",
"250 467 QCURVE SMOOTH",
"195 1039 LINE SMOOTH",
"175 1250 OFFCURVE",
"406 1476 OFFCURVE",
"641 1476 QCURVE SMOOTH",
"864 1476 OFFCURVE",
"1104 1283 OFFCURVE",
"1104 1103 QCURVE SMOOTH",
"1104 1087 LINE",
"912 1087 LINE",
"912 1103 LINE SMOOTH",
"912 1202 OFFCURVE",
"773 1303 OFFCURVE",
"643 1303 QCURVE SMOOTH",
"505 1303 OFFCURVE",
"381 1169 OFFCURVE",
"393 1039 QCURVE SMOOTH",
"444 508 LINE SMOOTH",
"457 372 OFFCURVE",
"392 213 OFFCURVE",
"322 172 QCURVE",
"1148 172 LINE",
"1148 0 LINE"
);
},
{
closed = 1;
nodes = (
"52 757 LINE",
"52 918 LINE",
"944 918 LINE",
"944 757 LINE"
);
},
{
closed = 1;
nodes = (
"52 426 LINE",
"52 587 LINE",
"944 587 LINE",
"944 426 LINE"
);
}
);
width = 1171;
}
);
unicode = 20A4;
},
{
glyphname = naira;
layers = (
{
layerId = "F265E254-A92B-4432-B734-C31CE1135299";
paths = (
{
closed = 1;
nodes = (
"-21 987 LINE",
"171 987 LINE",
"171 977 LINE",
"957 977 LINE",
"957 987 LINE",
"1159 989 LINE",
"1159 852 LINE",
"957 850 LINE",
"957 855 LINE",
"171 855 LINE",
"171 850 LINE",
"-21 850 LINE"
);
},
{
closed = 1;
nodes = (
"-21 677 LINE",
"171 677 LINE",
"171 672 LINE",
"957 672 LINE",
"957 677 LINE",
"1159 679 LINE",
"1159 542 LINE",
"957 540 LINE",
"957 550 LINE",
"171 550 LINE",
"171 540 LINE",
"-21 540 LINE"
);
},
{
closed = 1;
nodes = (
"1046 0 LINE",
"855 0 LINE",
"264 1142 LINE",
"242 1253 LINE",
"230 1253 LINE",
"243 1125 LINE",
"243 0 LINE",
"83 0 LINE",
"83 1456 LINE",
"279 1456 LINE",
"853 347 LINE",
"882 227 LINE",
"896 230 LINE",
"886 351 LINE",
"886 1456 LINE",
"1046 1456 LINE"
);
}
);
width = 1138;
}
);
unicode = 20A6;
},
{
glyphname = peseta;
layers = (
{
layerId = "F265E254-A92B-4432-B734-C31CE1135299";
paths = (
{
closed = 1;
nodes = (
"311 566 LINE",
"311 728 LINE",
"722 728 LINE",
"926 728 OFFCURVE",
"1090 884 OFFCURVE",
"1090 1012 QCURVE",
"1090 1141 OFFCURVE",
"926 1293 OFFCURVE",
"722 1293 QCURVE",
"372 1293 LINE",
"372 0 LINE",
"170 0 LINE",
"170 1456 LINE",
"722 1456 LINE",
"996 1456 OFFCURVE",
"1292 1224 OFFCURVE",
"1292 1012 QCURVE",
"1292 802 OFFCURVE",
"996 566 OFFCURVE",
"722 566 QCURVE"
);
},
{
closed = 1;
nodes = (
"1961 904 LINE",
"1244 904 LINE",
"1244 1052 LINE",
"1961 1052 LINE"
);
},
{
closed = 1;
nodes = (
"1673 1345 LINE",
"1673 264 LINE",
"1673 194 OFFCURVE",
"1741 134 OFFCURVE",
"1814 134 QCURVE SMOOTH",
"1848 134 OFFCURVE",
"1911 146 OFFCURVE",
"1944 156 QCURVE",
"1944 0 LINE",
"1915 -12 OFFCURVE",
"1818 -30 OFFCURVE",
"1760 -30 QCURVE SMOOTH",
"1632 -30 OFFCURVE",
"1478 112 OFFCURVE",
"1478 264 QCURVE",
"1478 1345 LINE"
);
}
);
width = 2011;
}
);
unicode = 20A7;
},
{
glyphname = won;
layers = (
{
layerId = "F265E254-A92B-4432-B734-C31CE1135299";
paths = (
{
closed = 1;
nodes = (
"48 1021 LINE",
"336 1021 LINE",
"336 1011 LINE",
"1552 1011 LINE",
"1552 1021 LINE",
"1828 1023 LINE",
"1828 880 LINE",
"1552 878 LINE",
"1552 883 LINE",
"336 883 LINE",
"336 878 LINE",
"48 878 LINE"
);
},
{
closed = 1;
nodes = (
"79 659 LINE",
"427 659 LINE",
"427 654 LINE",
"1473 654 LINE",
"1473 659 LINE",
"1789 661 LINE",
"1789 516 LINE",
"1473 514 LINE",
"1473 524 LINE",
"427 524 LINE",
"427 514 LINE",
"79 514 LINE"
);
},
{
closed = 1;
nodes = (
"115 1456 LINE",
"289 1456 LINE",
"558 378 LINE",
"576 250 LINE",
"582 250 LINE",
"600 378 LINE SMOOTH",
"838 1456 LINE",
"1036 1456 LINE",
"1304 378 LINE",
"1322 250 LINE",
"1328 250 LINE",
"1346 378 LINE SMOOTH",
"1585 1456 LINE",
"1747 1456 LINE",
"1409 -10 LINE",
"1231 -10 LINE",
"965 1100 LINE",
"944 1228 LINE",
"938 1228 LINE",
"917 1100 LINE SMOOTH",
"671 -10 LINE",
"493 -10 LINE"
);
}
);
width = 1876;
}
);
unicode = 20A9;
},
{
glyphname = dong;
layers = (
{
layerId = "F265E254-A92B-4432-B734-C31CE1135299";
paths = (
{
closed = 1;
nodes = (
"85 502 LINE SMOOTH",
"85 738 OFFCURVE",
"381 992 OFFCURVE",
"611 992 QCURVE SMOOTH",
"754 992 OFFCURVE",
"954 904 OFFCURVE",
"1014 833 QCURVE",
"1014 1456 LINE",
"1210 1456 LINE",
"1210 0 LINE",
"1032 0 LINE",
"1022 152 LINE",
"1018 152 LINE",
"966 81 OFFCURVE",
"754 -20 OFFCURVE",
"611 -20 QCURVE SMOOTH",
"372 -20 OFFCURVE",
"85 240 OFFCURVE",
"85 470 QCURVE SMOOTH"
);
},
{
closed = 1;
nodes = (
"284 302 OFFCURVE",
"466 138 OFFCURVE",
"660 138 QCURVE SMOOTH",
"791 138 OFFCURVE",
"974 256 OFFCURVE",
"1014 332 QCURVE",
"1014 640 LINE",
"974 716 OFFCURVE",
"791 834 OFFCURVE",
"660 834 QCURVE SMOOTH",
"479 834 OFFCURVE",
"284 647 OFFCURVE",
"284 502 QCURVE SMOOTH",
"284 470 LINE SMOOTH"
);
},
{
closed = 1;
nodes = (
"305 1156 LINE",
"305 1308 LINE",
"1321 1308 LINE",
"1321 1156 LINE"
);
},
{
closed = 1;
nodes = (
"47 -272 LINE",
"47 -128 LINE",
"1271 -128 LINE",
"1271 -272 LINE"
);
}
);
width = 1358;
}
);
unicode = 20AB;
},
{
glyphname = Euro;
layers = (
{
layerId = "F265E254-A92B-4432-B734-C31CE1135299";
paths = (
{
closed = 1;
nodes = (
"927 827 LINE",
"22 827 LINE",
"22 987 LINE",
"924 987 LINE"
);
},
{
closed = 1;
nodes = (
"927 502 LINE",
"22 502 LINE",
"22 661 LINE",
"927 661 LINE"
);
},
{
closed = 1;
nodes = (
"193 903 LINE SMOOTH",
"193 1183 OFFCURVE",
"463 1484 OFFCURVE",
"714 1484 QCURVE SMOOTH",
"854 1484 OFFCURVE",
"1074 1408 OFFCURVE",
"1138 1337 QCURVE",
"1021 1200 LINE",
"977 1248 OFFCURVE",
"825 1300 OFFCURVE",
"728 1300 QCURVE SMOOTH",
"561 1300 OFFCURVE",
"382 1096 OFFCURVE",
"382 906 QCURVE SMOOTH",
"382 541 LINE SMOOTH",
"382 353 OFFCURVE",
"572 151 OFFCURVE",
"749 151 QCURVE SMOOTH",
"842 151 OFFCURVE",
"997 201 OFFCURVE",
"1048 248 QCURVE",
"1151 126 LINE",
"1090 51 OFFCURVE",
"865 -30 OFFCURVE",
"716 -30 QCURVE SMOOTH",
"464 -30 OFFCURVE",
"193 267 OFFCURVE",
"193 544 QCURVE SMOOTH"
);
}
);
width = 1144;
}
);
unicode = 20AC;
},
{
glyphname = florin;
layers = (
{
layerId = "F265E254-A92B-4432-B734-C31CE1135299";
paths = (
{
closed = 1;
nodes = (
"988 738 LINE",
"615 738 LINE",
"615 111 LINE SMOOTH",
"615 -153 OFFCURVE",
"360 -437 OFFCURVE",
"123 -437 QCURVE SMOOTH",
"92 -437 OFFCURVE",
"19 -430 OFFCURVE",
"-9 -420 QCURVE",
"5 -267 LINE",
"20 -273 OFFCURVE",
"109 -280 OFFCURVE",
"123 -280 QCURVE SMOOTH",
"274 -280 OFFCURVE",
"433 -77 OFFCURVE",
"430 111 QCURVE SMOOTH",
"430 738 LINE",
"139 738 LINE",
"139 887 LINE",
"430 887 LINE",
"430 1126 LINE SMOOTH",
"430 1284 OFFCURVE",
"626 1487 OFFCURVE",
"808 1487 QCURVE SMOOTH",
"894 1487 OFFCURVE",
"1043 1434 OFFCURVE",
"1083 1404 QCURVE",
"1002 1255 LINE",
"963 1286 OFFCURVE",
"859 1316 OFFCURVE",
"812 1316 QCURVE SMOOTH",
"729 1316 OFFCURVE",
"619 1218 OFFCURVE",
"615 1126 QCURVE SMOOTH",
"615 887 LINE",
"988 887 LINE"
);
}
);
width = 1084;
}
);
unicode = 0192;
},
{
glyphname = uni20AD;
layers = (
{
layerId = "F265E254-A92B-4432-B734-C31CE1135299";
paths = (
{
closed = 1;
nodes = (
"130 1456 LINE",
"317 1456 LINE",
"317 769 LINE",
"835 1456 LINE",
"1037 1456 LINE",
"317 500 LINE",
"317 0 LINE",
"130 0 LINE"
);
},
{
closed = 1;
nodes = (
"441 756 LINE",
"557 901 LINE",
"1061 0 LINE",
"845 0 LINE"
);
},
{
closed = 1;
nodes = (
"-9 661 LINE",
"-9 809 LINE",
"267 809 LINE",
"267 661 LINE"
);
},
{
closed = 1;
nodes = (
"1021 661 LINE",
"590 661 LINE",
"590 809 LINE",
"1021 809 LINE"
);
}
);
width = 1024;
}
);
unicode = 20AD;
},
{
glyphname = uni20B1;
layers = (
{
layerId = "F265E254-A92B-4432-B734-C31CE1135299";
paths = (
{
closed = 1;
nodes = (
"247 421 LINE",
"247 577 LINE",
"622 577 LINE SMOOTH",
"776 577 OFFCURVE",
"888 759 OFFCURVE",
"888 945 QCURVE SMOOTH",
"888 1131 OFFCURVE",
"776 1300 OFFCURVE",
"622 1300 QCURVE SMOOTH",
"342 1300 LINE",
"342 0 LINE",
"140 0 LINE",
"140 1456 LINE",
"625 1456 LINE SMOOTH",
"860 1456 OFFCURVE",
"1074 1203 OFFCURVE",
"1074 955 QCURVE SMOOTH",
"1074 725 OFFCURVE",
"859 421 OFFCURVE",
"624 421 QCURVE SMOOTH"
);
},
{
closed = 1;
nodes = (
"-1 1137 LINE",
"261 1137 LINE",
"261 1112 LINE",
"967 1112 LINE",
"967 1137 LINE",
"1199 1139 LINE",
"1199 982 LINE",
"987 980 LINE",
"987 995 LINE",
"261 995 LINE",
"261 980 LINE",
"-1 980 LINE"
);
},
{
closed = 1;
nodes = (
"-1 867 LINE",
"261 867 LINE",
"261 852 LINE",
"987 852 LINE",
"987 867 LINE",
"1199 869 LINE",
"1199 712 LINE",
"947 710 LINE",
"947 734 LINE",
"261 734 LINE",
"261 710 LINE",
"-1 710 LINE"
);
}
);
width = 1139;
}
);
unicode = 20B1;
},
{
glyphname = uni20B2;
layers = (
{
layerId = "F265E254-A92B-4432-B734-C31CE1135299";
paths = (
{
closed = 1;
nodes = (
"534 57 LINE",
"552 71 LINE",
"552 708 LINE",
"692 708 LINE",
"692 70 LINE",
"714 60 LINE",
"714 -190 LINE",
"534 -190 LINE"
);
},
{
closed = 1;
nodes = (
"552 1342 LINE",
"537 1352 LINE",
"537 1582 LINE",
"707 1582 LINE",
"707 1352 LINE",
"692 1339 LINE",
"692 708 LINE",
"552 708 LINE"
);
},
{
closed = 1;
nodes = (
"1125 452 LINE SMOOTH",
"1125 253 OFFCURVE",
"847 -5 OFFCURVE",
"631 -5 QCURVE SMOOTH",
"392 -5 OFFCURVE",
"84 303 OFFCURVE",
"84 542 QCURVE SMOOTH",
"84 897 LINE SMOOTH",
"84 1180 OFFCURVE",
"380 1485 OFFCURVE",
"609 1485 QCURVE SMOOTH",
"787 1485 OFFCURVE",
"1052 1371 OFFCURVE",
"1119 1265 QCURVE",
"993 1131 LINE",
"931 1213 OFFCURVE",
"737 1302 OFFCURVE",
"617 1302 QCURVE SMOOTH",
"458 1302 OFFCURVE",
"288 1075 OFFCURVE",
"288 899 QCURVE SMOOTH",
"288 544 LINE SMOOTH",
"288 376 OFFCURVE",
"489 158 OFFCURVE",
"645 158 QCURVE SMOOTH",
"775 158 OFFCURVE",
"943 313 OFFCURVE",
"943 433 QCURVE SMOOTH",
"943 569 LINE",
"816 569 LINE",
"816 725 LINE",
"1125 725 LINE"
);
}
);
width = 1147;
}
);
unicode = 20B2;
},
{
glyphname = uni20B5;
layers = (
{
guideLines = (
{
position = "{0, -125}";
}
);
layerId = "F265E254-A92B-4432-B734-C31CE1135299";
paths = (
{
closed = 1;
nodes = (
"533 37 LINE",
"546 51 LINE",
"546 708 LINE",
"691 708 LINE",
"691 50 LINE",
"703 40 LINE",
"703 -190 LINE",
"533 -190 LINE"
);
},
{
closed = 1;
nodes = (
"546 1362 LINE",
"536 1372 LINE",
"536 1582 LINE",
"696 1582 LINE",
"696 1372 LINE",
"691 1359 LINE",
"691 708 LINE",
"546 708 LINE"
);
},
{
closed = 1;
nodes = (
"941 460 LINE",
"1140 458 LINE",
"1139 436 LINE SMOOTH",
"1130 235 OFFCURVE",
"840 -25 OFFCURVE",
"625 -25 QCURVE SMOOTH",
"392 -25 OFFCURVE",
"92 249 OFFCURVE",
"92 462 QCURVE SMOOTH",
"92 1002 LINE SMOOTH",
"92 1213 OFFCURVE",
"391 1485 OFFCURVE",
"623 1485 QCURVE SMOOTH",
"839 1485 OFFCURVE",
"1130 1229 OFFCURVE",
"1139 1030 QCURVE SMOOTH",
"1140 1008 LINE",
"936 1006 LINE",
"936 1030 LINE SMOOTH",
"936 1158 OFFCURVE",
"761 1323 OFFCURVE",
"626 1323 QCURVE SMOOTH",
"482 1323 OFFCURVE",
"296 1143 OFFCURVE",
"296 1004 QCURVE SMOOTH",
"296 464 LINE SMOOTH",
"296 317 OFFCURVE",
"489 128 OFFCURVE",
"639 128 QCURVE SMOOTH",
"771 128 OFFCURVE",
"941 302 OFFCURVE",
"941 436 QCURVE SMOOTH"
);
}
);
width = 1146;
}
);
unicode = 20B5;
userData = {
com.typemytype.robofont.guideline.magnetic.1Am3eQoiKr = 5;
};
},
{
glyphname = rupeeIndian;
layers = (
{
layerId = "F265E254-A92B-4432-B734-C31CE1135299";
paths = (
{
closed = 1;
nodes = (
"19 1089 LINE",
"1060 1089 LINE",
"1060 934 LINE",
"19 934 LINE"
);
},
{
closed = 1;
nodes = (
"720 267 LINE SMOOTH",
"626 439 OFFCURVE",
"352 563 OFFCURVE",
"162 571 QCURVE SMOOTH",
"19 576 LINE",
"19 735 LINE",
"337 735 LINE SMOOTH",
"528 735 OFFCURVE",
"713 885 OFFCURVE",
"713 1019 QCURVE SMOOTH",
"713 1145 OFFCURVE",
"522 1294 OFFCURVE",
"351 1295 QCURVE SMOOTH",
"19 1295 LINE",
"19 1456 LINE",
"1069 1456 LINE",
"1069 1296 LINE",
"824 1296 LINE",
"747 1304 LINE",
"749 1296 LINE",
"806 1268 OFFCURVE",
"908 1112 OFFCURVE",
"908 1019 QCURVE SMOOTH",
"908 831 OFFCURVE",
"697 662 OFFCURVE",
"535 642 QCURVE",
"629 619 OFFCURVE",
"835 463 OFFCURVE",
"909 317 QCURVE SMOOTH",
"1079 0 LINE",
"866 0 LINE"
);
}
);
width = 1093;
}
);
unicode = 20B9;
},
{
glyphname = liraTurkish;
layers = (
{
layerId = "F265E254-A92B-4432-B734-C31CE1135299";
paths = (
{
closed = 1;
nodes = (
"6 502 LINE",
"926 876 LINE",
"920 709 LINE",
"6 334 LINE"
);
},
{
closed = 1;
nodes = (
"176 1456 LINE",
"367 1456 LINE",
"367 153 LINE",
"469 153 LINE SMOOTH",
"679 153 OFFCURVE",
"905 344 OFFCURVE",
"905 521 QCURVE SMOOTH",
"905 558 LINE",
"1085 558 LINE",
"1085 523 LINE SMOOTH",
"1085 298 OFFCURVE",
"757 -5 OFFCURVE",
"432 -2 QCURVE SMOOTH",
"176 0 LINE"
);
},
{
closed = 1;
nodes = (
"6 862 LINE",
"926 1236 LINE",
"920 1069 LINE",
"6 694 LINE"
);
}
);
width = 1094;
}
);
unicode = 20BA;
},
{
glyphname = manat;
layers = (
{
layerId = "F265E254-A92B-4432-B734-C31CE1135299";
paths = (
{
closed = 1;
nodes = (
"1137 0 LINE",
"945 0 LINE",
"945 916 LINE SMOOTH",
"945 1086 OFFCURVE",
"744 1252 OFFCURVE",
"605 1252 QCURVE SMOOTH",
"466 1252 OFFCURVE",
"265 1086 OFFCURVE",
"265 916 QCURVE SMOOTH",
"265 0 LINE",
"73 0 LINE",
"73 916 LINE SMOOTH",
"73 1166 OFFCURVE",
"396 1416 OFFCURVE",
"605 1416 QCURVE SMOOTH",
"815 1416 OFFCURVE",
"1140 1166 OFFCURVE",
"1137 916 QCURVE SMOOTH"
);
},
{
closed = 1;
nodes = (
"520 0 LINE",
"520 1582 LINE",
"690 1582 LINE",
"690 0 LINE"
);
}
);
width = 1210;
}
);
unicode = 20BC;
},
{
glyphname = ruble;
layers = (
{
layerId = "F265E254-A92B-4432-B734-C31CE1135299";
paths = (
{
closed = 1;
nodes = (
"30 611 LINE",
"30 768 LINE",
"596 768 LINE SMOOTH",
"759 768 OFFCURVE",
"912 913 OFFCURVE",
"912 1033 QCURVE SMOOTH",
"912 1138 OFFCURVE",
"765 1298 OFFCURVE",
"596 1298 QCURVE SMOOTH",
"372 1298 LINE",
"372 0 LINE",
"171 0 LINE",
"171 1456 LINE",
"596 1456 LINE SMOOTH",
"842 1456 OFFCURVE",
"1104 1217 OFFCURVE",
"1104 1035 QCURVE SMOOTH",
"1104 835 OFFCURVE",
"842 611 OFFCURVE",
"596 611 QCURVE SMOOTH"
);
},
{
closed = 1;
nodes = (
"824 266 LINE",
"30 266 LINE",
"30 424 LINE",
"824 424 LINE"
);
}
);
width = 1128;
}
);
unicode = 20BD;
},
{
glyphname = asciicircum;
layers = (
{
layerId = "F265E254-A92B-4432-B734-C31CE1135299";
paths = (
{
closed = 1;
nodes = (
"683 1456 LINE",
"860 1456 LINE",
"1261 720 LINE",
"1067 720 LINE",
"754 1302 LINE",
"240 720 LINE",
"22 720 LINE"
);
}
);
width = 1287;
}
);
unicode = 005E;
},
{
glyphname = asciitilde;
layers = (
{
layerId = "F265E254-A92B-4432-B734-C31CE1135299";
paths = (
{
closed = 1;
nodes = (
"147 734 LINE",
"206 785 OFFCURVE",
"357 842 OFFCURVE",
"426 843 QCURVE SMOOTH",
"479 844 OFFCURVE",
"600 797 OFFCURVE",
"661 769 QCURVE SMOOTH",
"717 744 OFFCURVE",
"832 701 OFFCURVE",
"881 701 QCURVE SMOOTH",
"950 701 OFFCURVE",
"1096 769 OFFCURVE",
"1156 829 QCURVE",
"1120 626 LINE",
"1061 575 OFFCURVE",
"919 517 OFFCURVE",
"850 517 QCURVE SMOOTH",
"799 517 OFFCURVE",
"684 560 OFFCURVE",
"627 585 QCURVE SMOOTH",
"567 613 OFFCURVE",
"445 659 OFFCURVE",
"394 659 QCURVE SMOOTH",
"324 659 OFFCURVE",
"172 592 OFFCURVE",
"111 532 QCURVE"
);
}
);
width = 1285;
}
);
unicode = 007E;
},
{
glyphname = acute;
layers = (
{
layerId = "F265E254-A92B-4432-B734-C31CE1135299";
paths = (
{
closed = 1;
nodes = (
"596 1584 LINE",
"749 1479 LINE",
"450 1204 LINE",
"355 1290 LINE"
);
}
);
width = 1024;
}
);
unicode = 00B4;
},
{
glyphname = grave;
layers = (
{
layerId = "F265E254-A92B-4432-B734-C31CE1135299";
paths = (
{
closed = 1;
nodes = (
"402 1479 LINE",
"569 1584 LINE",
"760 1283 LINE",
"644 1204 LINE"
);
}
);
width = 1031;
}
);
unicode = 0060;
},
{
glyphname = hungarumlaut;
layers = (
{
layerId = "F265E254-A92B-4432-B734-C31CE1135299";
paths = (
{
closed = 1;
nodes = (
"544 1584 LINE",
"703 1479 LINE",
"370 1204 LINE",
"276 1290 LINE"
);
},
{
closed = 1;
nodes = (
"889 1584 LINE",
"1048 1479 LINE",
"715 1204 LINE",
"621 1290 LINE"
);
}
);
width = 1024;
}
);
unicode = 02DD;
},
{
glyphname = circumflex;
layers = (
{
layerId = "F265E254-A92B-4432-B734-C31CE1135299";
paths = (
{
closed = 1;
nodes = (
"816 1203 LINE",
"662 1203 LINE",
"512 1362 LINE",
"363 1203 LINE",
"211 1203 LINE",
"456 1516 LINE",
"568 1516 LINE"
);
}
);
width = 1024;
}
);
unicode = 02C6;
},
{
glyphname = caron;
layers = (
{
layerId = "F265E254-A92B-4432-B734-C31CE1135299";
paths = (
{
closed = 1;
nodes = (
"211 1496 LINE",
"365 1496 LINE",
"515 1337 LINE",
"664 1496 LINE",
"816 1496 LINE",
"571 1183 LINE",
"459 1183 LINE"
);
}
);
width = 1024;
}
);
unicode = 02C7;
},
{
glyphname = breve;
layers = (
{
layerId = "F265E254-A92B-4432-B734-C31CE1135299";
paths = (
{
closed = 1;
nodes = (
"849 1464 LINE",
"814 1365 OFFCURVE",
"639 1198 OFFCURVE",
"513 1198 QCURVE SMOOTH",
"400 1198 OFFCURVE",
"219 1351 OFFCURVE",
"177 1465 QCURVE",
"281 1518 LINE",
"316 1461 OFFCURVE",
"435 1362 OFFCURVE",
"514 1362 QCURVE SMOOTH",
"598 1362 OFFCURVE",
"718 1457 OFFCURVE",
"754 1518 QCURVE"
);
}
);
width = 1022;
}
);
unicode = 02D8;
},
{
glyphname = tilde;
layers = (
{
layerId = "F265E254-A92B-4432-B734-C31CE1135299";
paths = (
{
closed = 1;
nodes = (
"189 1359 OFFCURVE",
"327 1457 OFFCURVE",
"394 1457 QCURVE SMOOTH",
"435 1457 OFFCURVE",
"510 1432 OFFCURVE",
"547 1408 QCURVE SMOOTH",
"581 1386 OFFCURVE",
"659 1342 OFFCURVE",
"697 1342 QCURVE SMOOTH",
"737 1342 OFFCURVE",
"807 1395 OFFCURVE",
"830 1431 QCURVE",
"911 1333 LINE",
"873 1262 OFFCURVE",
"740 1190 OFFCURVE",
"683 1190 QCURVE SMOOTH",
"634 1190 OFFCURVE",
"540 1233 OFFCURVE",
"509 1250 QCURVE SMOOTH",
"475 1269 OFFCURVE",
"407 1303 OFFCURVE",
"378 1303 QCURVE SMOOTH",
"331 1303 OFFCURVE",
"250 1231 OFFCURVE",
"232 1204 QCURVE",
"156 1296 LINE"
);
}
);
width = 1024;
}
);
unicode = 02DC;
},
{
glyphname = macron;
layers = (
{
layerId = "F265E254-A92B-4432-B734-C31CE1135299";
paths = (
{
closed = 1;
nodes = (
"826 1278 LINE",
"198 1278 LINE",
"198 1430 LINE",
"826 1430 LINE"
);
}
);
width = 1024;
}
);
unicode = 00AF;
},
{
glyphname = dieresis;
layers = (
{
layerId = "F265E254-A92B-4432-B734-C31CE1135299";
paths = (
{
closed = 1;
nodes = (
"187 1356 OFFCURVE",
"243 1418 OFFCURVE",
"296 1418 QCURVE SMOOTH",
"350 1418 OFFCURVE",
"406 1356 OFFCURVE",
"406 1311 QCURVE SMOOTH",
"406 1268 OFFCURVE",
"350 1207 OFFCURVE",
"296 1207 QCURVE SMOOTH",
"243 1207 OFFCURVE",
"187 1268 OFFCURVE",
"187 1311 QCURVE SMOOTH"
);
},
{
closed = 1;
nodes = (
"618 1354 OFFCURVE",
"673 1416 OFFCURVE",
"727 1416 QCURVE SMOOTH",
"780 1416 OFFCURVE",
"837 1354 OFFCURVE",
"837 1309 QCURVE SMOOTH",
"837 1266 OFFCURVE",
"780 1205 OFFCURVE",
"727 1205 QCURVE SMOOTH",
"673 1205 OFFCURVE",
"618 1266 OFFCURVE",
"618 1309 QCURVE SMOOTH"
);
}
);
width = 1024;
}
);
unicode = 00A8;
},
{
glyphname = dotaccent;
layers = (
{
layerId = "F265E254-A92B-4432-B734-C31CE1135299";
paths = (
{
closed = 1;
nodes = (
"392 1385 OFFCURVE",
"458 1457 OFFCURVE",
"512 1457 QCURVE SMOOTH",
"565 1457 OFFCURVE",
"632 1385 OFFCURVE",
"632 1341 QCURVE SMOOTH",
"632 1297 OFFCURVE",
"565 1226 OFFCURVE",
"512 1226 QCURVE SMOOTH",
"458 1226 OFFCURVE",
"392 1297 OFFCURVE",
"392 1341 QCURVE SMOOTH"
);
}
);
width = 1024;
}
);
unicode = 02D9;
},
{
glyphname = ring;
layers = (
{
layerId = "F265E254-A92B-4432-B734-C31CE1135299";
paths = (
{
closed = 1;
nodes = (
"286 1479 OFFCURVE",
"416 1607 OFFCURVE",
"512 1607 QCURVE SMOOTH",
"606 1607 OFFCURVE",
"738 1479 OFFCURVE",
"738 1389 QCURVE SMOOTH",
"738 1298 OFFCURVE",
"606 1175 OFFCURVE",
"512 1175 QCURVE SMOOTH",
"416 1175 OFFCURVE",
"286 1298 OFFCURVE",
"286 1389 QCURVE"
);
},
{
closed = 1;
nodes = (
"396 1345 OFFCURVE",
"461 1274 OFFCURVE",
"512 1274 QCURVE SMOOTH",
"563 1274 OFFCURVE",
"628 1343 OFFCURVE",
"628 1389 QCURVE SMOOTH",
"628 1435 OFFCURVE",
"563 1507 OFFCURVE",
"512 1507 QCURVE SMOOTH",
"461 1507 OFFCURVE",
"396 1435 OFFCURVE",
"396 1389 QCURVE"
);
}
);
width = 1024;
}
);
unicode = 02DA;
},
{
glyphname = cedilla;
layers = (
{
layerId = "F265E254-A92B-4432-B734-C31CE1135299";
paths = (
{
closed = 1;
nodes = (
"569 42 LINE",
"541 -53 LINE",
"598 -63 OFFCURVE",
"724 -139 OFFCURVE",
"724 -226 QCURVE SMOOTH",
"724 -319 OFFCURVE",
"550 -435 OFFCURVE",
"348 -435 QCURVE",
"341 -328 LINE",
"463 -328 OFFCURVE",
"542 -281 OFFCURVE",
"542 -228 QCURVE SMOOTH",
"542 -179 OFFCURVE",
"483 -142 OFFCURVE",
"399 -135 QCURVE",
"440 42 LINE"
);
}
);
width = 1024;
}
);
unicode = 00B8;
},
{
glyphname = ogonek;
layers = (
{
layerId = "F265E254-A92B-4432-B734-C31CE1135299";
paths = (
{
closed = 1;
nodes = (
"607 0 LINE",
"543 -48 OFFCURVE",
"436 -157 OFFCURVE",
"436 -222 QCURVE SMOOTH",
"436 -255 OFFCURVE",
"471 -295 OFFCURVE",
"514 -295 QCURVE SMOOTH",
"547 -295 OFFCURVE",
"599 -276 OFFCURVE",
"614 -268 QCURVE",
"628 -390 LINE",
"603 -405 OFFCURVE",
"526 -434 OFFCURVE",
"467 -434 QCURVE SMOOTH",
"386 -434 OFFCURVE",
"275 -336 OFFCURVE",
"275 -243 QCURVE SMOOTH",
"275 -163 OFFCURVE",
"397 -6 OFFCURVE",
"533 57 QCURVE"
);
}
);
width = 1024;
}
);
unicode = 02DB;
},
{
glyphname = copyright;
layers = (
{
guideLines = (
{
position = "{0, 901}";
},
{
position = "{0, 555}";
}
);
layerId = "F265E254-A92B-4432-B734-C31CE1135299";
paths = (
{
closed = 1;
nodes = (
"1342 546 LINE",
"1342 382 OFFCURVE",
"1104 205 OFFCURVE",
"883 205 QCURVE SMOOTH",
"685 205 OFFCURVE",
"429 464 OFFCURVE",
"429 664 QCURVE SMOOTH",
"429 703 LINE SMOOTH",
"429 907 OFFCURVE",
"694 1170 OFFCURVE",
"900 1170 QCURVE SMOOTH",
"1113 1170 OFFCURVE",
"1343 993 OFFCURVE",
"1343 829 QCURVE",
"1161 829 LINE",
"1161 914 OFFCURVE",
"1025 1006 OFFCURVE",
"899 1006 QCURVE SMOOTH",
"778 1006 OFFCURVE",
"622 860 OFFCURVE",
"622 747 QCURVE SMOOTH",
"622 621 LINE SMOOTH",
"622 508 OFFCURVE",
"783 362 OFFCURVE",
"908 362 QCURVE SMOOTH",
"1029 362 OFFCURVE",
"1160 457 OFFCURVE",
"1160 546 QCURVE"
);
},
{
closed = 1;
nodes = (
"196 389 OFFCURVE",
"592 4 OFFCURVE",
"898 4 QCURVE SMOOTH",
"1204 4 OFFCURVE",
"1599 389 OFFCURVE",
"1599 687 QCURVE SMOOTH",
"1599 984 OFFCURVE",
"1204 1367 OFFCURVE",
"898 1367 QCURVE SMOOTH",
"592 1367 OFFCURVE",
"196 984 OFFCURVE",
"196 687 QCURVE SMOOTH"
);
},
{
closed = 1;
nodes = (
"38 1050 OFFCURVE",
"522 1519 OFFCURVE",
"897 1519 QCURVE SMOOTH",
"1272 1519 OFFCURVE",
"1756 1050 OFFCURVE",
"1756 687 QCURVE SMOOTH",
"1756 323 OFFCURVE",
"1272 -147 OFFCURVE",
"897 -147 QCURVE SMOOTH",
"522 -147 OFFCURVE",
"38 323 OFFCURVE",
"38 687 QCURVE SMOOTH"
);
}
);
width = 1794;
}
);
leftKerningGroup = copyright;
rightKerningGroup = copyright;
unicode = 00A9;
userData = {
com.typemytype.robofont.guideline.magnetic.0Pjz0qKr8z = 5;
com.typemytype.robofont.guideline.magnetic.sJo8BlDiJ7 = 5;
};
},
{
glyphname = registered;
layers = (
{
layerId = "F265E254-A92B-4432-B734-C31CE1135299";
paths = (
{
closed = 1;
nodes = (
"38 1050 OFFCURVE",
"522 1519 OFFCURVE",
"897 1519 QCURVE SMOOTH",
"1272 1519 OFFCURVE",
"1756 1050 OFFCURVE",
"1756 687 QCURVE SMOOTH",
"1756 323 OFFCURVE",
"1272 -147 OFFCURVE",
"897 -147 QCURVE SMOOTH",
"522 -147 OFFCURVE",
"38 323 OFFCURVE",
"38 687 QCURVE SMOOTH"
);
},
{
closed = 1;
nodes = (
"196 392 OFFCURVE",
"592 10 OFFCURVE",
"898 10 QCURVE SMOOTH",
"1204 10 OFFCURVE",
"1599 392 OFFCURVE",
"1599 687 QCURVE SMOOTH",
"1599 981 OFFCURVE",
"1204 1361 OFFCURVE",
"898 1361 QCURVE SMOOTH",
"592 1361 OFFCURVE",
"196 981 OFFCURVE",
"196 687 QCURVE SMOOTH"
);
},
{
closed = 1;
nodes = (
"679 597 LINE",
"679 225 LINE",
"504 225 LINE",
"504 1158 LINE",
"891 1158 LINE SMOOTH",
"1121 1158 OFFCURVE",
"1327 1025 OFFCURVE",
"1327 877 QCURVE SMOOTH",
"1327 766 OFFCURVE",
"1214 643 OFFCURVE",
"1088 618 QCURVE",
"1116 595 OFFCURVE",
"1144 558 OFFCURVE",
"1163 530 QCURVE SMOOTH",
"1356 243 LINE",
"1356 225 LINE",
"1167 225 LINE",
"920 597 LINE"
);
},
{
closed = 1;
nodes = (
"679 1007 LINE",
"679 738 LINE",
"917 738 LINE SMOOTH",
"1038 738 OFFCURVE",
"1146 795 OFFCURVE",
"1146 859 QCURVE SMOOTH",
"1146 937 OFFCURVE",
"1026 1007 OFFCURVE",
"892 1007 QCURVE SMOOTH"
);
}
);
width = 1794;
}
);
leftKerningGroup = copyright;
rightKerningGroup = copyright;
unicode = 00AE;
},
{
glyphname = trademark;
layers = (
{
layerId = "F265E254-A92B-4432-B734-C31CE1135299";
paths = (
{
closed = 1;
nodes = (
"24 1446 LINE",
"784 1446 LINE",
"784 1288 LINE",
"496 1288 LINE",
"496 690 LINE",
"312 690 LINE",
"312 1288 LINE",
"24 1288 LINE"
);
},
{
closed = 1;
nodes = (
"910 1446 LINE",
"1094 1446 LINE",
"1368 866 LINE",
"1377 866 LINE",
"1656 1446 LINE",
"1840 1446 LINE",
"1840 690 LINE",
"1680 690 LINE",
"1680 1165 LINE",
"1667 1165 LINE",
"1446 690 LINE",
"1300 690 LINE",
"1090 1165 LINE",
"1077 1165 LINE",
"1077 690 LINE",
"910 690 LINE"
);
}
);
width = 2010;
}
);
unicode = 2122;
},
{
glyphname = degree;
layers = (
{
layerId = "F265E254-A92B-4432-B734-C31CE1135299";
paths = (
{
closed = 1;
nodes = (
"131 1323 OFFCURVE",
"282.269 1477 OFFCURVE",
"386 1477 QCURVE SMOOTH",
"488.985 1477 OFFCURVE",
"637 1322.97 OFFCURVE",
"637 1217 QCURVE SMOOTH",
"637 1110.284 OFFCURVE",
"488.985 960 OFFCURVE",
"386 960 QCURVE SMOOTH",
"282.269 960 OFFCURVE",
"131 1110 OFFCURVE",
"131 1217 QCURVE"
);
},
{
closed = 1;
nodes = (
"255 1162 OFFCURVE",
"332 1088 OFFCURVE",
"386 1088 QCURVE SMOOTH",
"440 1088 OFFCURVE",
"513 1162 OFFCURVE",
"513 1217 QCURVE SMOOTH",
"513 1273 OFFCURVE",
"440 1349 OFFCURVE",
"386 1349 QCURVE SMOOTH",
"332 1349 OFFCURVE",
"255 1273 OFFCURVE",
"255 1217 QCURVE"
);
}
);
width = 765;
}
);
unicode = 00B0;
},
{
glyphname = diagonalbarL;
layers = (
{
layerId = "F265E254-A92B-4432-B734-C31CE1135299";
paths = (
{
closed = 1;
nodes = (
"0 584 LINE",
"664 995 LINE",
"745 860 LINE",
"80 446 LINE"
);
}
);
width = 741;
}
);
},
{
glyphname = diagonalbarO;
layers = (
{
layerId = "F265E254-A92B-4432-B734-C31CE1135299";
paths = (
{
closed = 1;
nodes = (
"57 86 LINE",
"75 81 LINE",
"281 871 LINE",
"389 803 LINE",
"196 54 LINE",
"216 50 LINE",
"173 -109 LINE",
"3 -109 LINE"
);
},
{
closed = 1;
nodes = (
"623 1618 LINE",
"570 1424 LINE",
"549 1428 LINE",
"389 803 LINE",
"281 871 LINE",
"429 1455 LINE",
"409 1460 LINE",
"452 1618 LINE"
);
}
);
width = 623;
}
);
},
{
glyphname = diagonalbarl;
layers = (
{
layerId = "F265E254-A92B-4432-B734-C31CE1135299";
paths = (
{
closed = 1;
nodes = (
"0 614 LINE",
"275 807 LINE",
"540 1026 LINE",
"620 884 LINE",
"350 690 LINE",
"84 469 LINE"
);
}
);
width = 629;
}
);
},
{
glyphname = diagonalbaro;
layers = (
{
layerId = "F265E254-A92B-4432-B734-C31CE1135299";
paths = (
{
closed = 1;
nodes = (
"-4 89 LINE",
"14 84 LINE",
"215 584 LINE",
"314 514 LINE",
"131 55 LINE",
"151 51 LINE",
"77 -123 LINE",
"-88 -118 LINE"
);
},
{
closed = 1;
nodes = (
"589 1141 LINE",
"511 948 LINE",
"490 953 LINE",
"314 514 LINE",
"215 584 LINE",
"374 981 LINE",
"354 987 LINE",
"418 1144 LINE"
);
}
);
width = 512;
}
);
},
{
glyphname = engtail;
layers = (
{
layerId = "F265E254-A92B-4432-B734-C31CE1135299";
paths = (
{
closed = 1;
nodes = (
"552 190 LINE",
"552 -195 LINE SMOOTH",
"552 -295 OFFCURVE",
"401 -443 OFFCURVE",
"269 -443 QCURVE SMOOTH",
"197 -443 OFFCURVE",
"67 -381 OFFCURVE",
"27 -329 QCURVE",
"90 -254 LINE",
"132 -295 OFFCURVE",
"227 -325 OFFCURVE",
"268 -325 QCURVE SMOOTH",
"312 -325 OFFCURVE",
"376 -265 OFFCURVE",
"376 -165 QCURVE",
"376 -112 OFFCURVE",
"376 255 OFFCURVE",
"376 150 QCURVE",
"439 190 LINE"
);
}
);
width = 629;
}
);
},
{
glyphname = horizontalbarH;
layers = (
{
layerId = "F265E254-A92B-4432-B734-C31CE1135299";
paths = (
{
closed = 1;
nodes = (
"1220 1025 LINE",
"1220 1162 LINE",
"1452 1164 LINE",
"1442 1027 LINE"
);
},
{
closed = 1;
nodes = (
"6 1162 LINE",
"245 1162 LINE",
"245 1025 LINE",
"15 1025 LINE"
);
},
{
closed = 1;
nodes = (
"245 1152 LINE",
"1220 1152 LINE",
"1220 1035 LINE",
"245 1035 LINE"
);
}
);
width = 1458;
}
);
},
{
glyphname = horizontalbarlc;
layers = (
{
layerId = "F265E254-A92B-4432-B734-C31CE1135299";
paths = (
{
closed = 1;
nodes = (
"29 656 LINE",
"40 802 LINE",
"351 802 LINE",
"636 802 LINE",
"636 656 LINE",
"311 656 LINE"
);
}
);
width = 636;
}
);
},
{
glyphname = idotless;
layers = (
{
layerId = "F265E254-A92B-4432-B734-C31CE1135299";
paths = (
{
closed = 1;
nodes = (
"209 1052 LINE",
"398 1052 LINE",
"213 0 LINE",
"23 0 LINE"
);
}
);
width = 494;
}
);
leftKerningGroup = mnpr_LC;
rightKerningGroup = u_LC;
},
{
glyphname = jdotless;
layers = (
{
layerId = "F265E254-A92B-4432-B734-C31CE1135299";
paths = (
{
closed = 1;
nodes = (
"-328 -256 LINE",
"-306 -262 OFFCURVE",
"-222 -276 OFFCURVE",
"-188 -276 QCURVE SMOOTH",
"-112 -276 OFFCURVE",
"-14 -206 OFFCURVE",
"0 -126 QCURVE SMOOTH",
"209 1052 LINE",
"398 1052 LINE",
"197 -90 LINE SMOOTH",
"165 -270 OFFCURVE",
"-27 -436 OFFCURVE",
"-184 -436 QCURVE SMOOTH",
"-231 -436 OFFCURVE",
"-329 -418 OFFCURVE",
"-354 -410 QCURVE"
);
}
);
width = 494;
}
);
rightKerningGroup = j_LC;
},
{
glyphname = zerosuperior;
layers = (
{
layerId = "F265E254-A92B-4432-B734-C31CE1135299";
paths = (
{
closed = 1;
nodes = (
"75 1141 LINE SMOOTH",
"99 1296 OFFCURVE",
"359 1497 OFFCURVE",
"536 1497 QCURVE SMOOTH",
"713 1496 OFFCURVE",
"912 1294 OFFCURVE",
"888 1139 QCURVE SMOOTH",
"873 1035 LINE SMOOTH",
"849 880 OFFCURVE",
"590 679 OFFCURVE",
"413 679 QCURVE SMOOTH",
"235 680 OFFCURVE",
"36 882 OFFCURVE",
"60 1037 QCURVE SMOOTH"
);
},
{
closed = 1;
nodes = (
"222 947 OFFCURVE",
"335 832 OFFCURVE",
"436 832 QCURVE SMOOTH",
"536 831 OFFCURVE",
"683 946 OFFCURVE",
"697 1036 QCURVE SMOOTH",
"713 1140 LINE SMOOTH",
"726 1229 OFFCURVE",
"614 1344 OFFCURVE",
"513 1344 QCURVE SMOOTH",
"412 1345 OFFCURVE",
"265 1230 OFFCURVE",
"251 1140 QCURVE SMOOTH",
"235 1036 LINE SMOOTH"
);
}
);
width = 948;
}
);
},
{
glyphname = gravecomb.case;
layers = (
{
layerId = "F265E254-A92B-4432-B734-C31CE1135299";
paths = (
{
closed = 1;
nodes = (
"204 1874 LINE",
"376 1973 LINE",
"603 1634 LINE",
"468 1575 LINE"
);
}
);
width = 1024;
}
);
},
{
glyphname = acutecomb.case;
layers = (
{
layerId = "F265E254-A92B-4432-B734-C31CE1135299";
paths = (
{
closed = 1;
nodes = (
"611 1973 LINE",
"783 1874 LINE",
"519 1575 LINE",
"384 1634 LINE"
);
}
);
width = 1024;
}
);
},
{
glyphname = circumflexcomb.case;
layers = (
{
layerId = "F265E254-A92B-4432-B734-C31CE1135299";
paths = (
{
closed = 1;
nodes = (
"838 1635 LINE",
"671 1633 LINE",
"505 1817 LINE",
"345 1635 LINE",
"172 1635 LINE",
"429 1975 LINE",
"573 1975 LINE"
);
}
);
width = 1024;
}
);
},
{
glyphname = tildecomb.case;
layers = (
{
layerId = "F265E254-A92B-4432-B734-C31CE1135299";
paths = (
{
closed = 1;
nodes = (
"142 1831 OFFCURVE",
"293 1944 OFFCURVE",
"370 1944 QCURVE SMOOTH",
"416 1944 OFFCURVE",
"498 1914 OFFCURVE",
"540 1886 QCURVE SMOOTH",
"570 1868 OFFCURVE",
"667 1812 OFFCURVE",
"714 1812 QCURVE SMOOTH",
"760 1812 OFFCURVE",
"845 1869 OFFCURVE",
"871 1908 QCURVE",
"939 1823 LINE",
"897 1741 OFFCURVE",
"758 1652 OFFCURVE",
"695 1652 QCURVE SMOOTH",
"642 1652 OFFCURVE",
"535 1701 OFFCURVE",
"503 1723 QCURVE SMOOTH",
"467 1748 OFFCURVE",
"384 1786 OFFCURVE",
"351 1786 QCURVE SMOOTH",
"298 1786 OFFCURVE",
"200 1707 OFFCURVE",
"180 1677 QCURVE",
"105 1762 LINE"
);
}
);
width = 1024;
}
);
},
{
glyphname = macroncomb.case;
layers = (
{
layerId = "F265E254-A92B-4432-B734-C31CE1135299";
paths = (
{
closed = 1;
nodes = (
"216 1830 LINE",
"808 1830 LINE",
"808 1674 LINE",
"216 1674 LINE"
);
}
);
width = 1024;
}
);
},
{
glyphname = brevecomb.case;
layers = (
{
layerId = "F265E254-A92B-4432-B734-C31CE1135299";
paths = (
{
closed = 1;
nodes = (
"896 1906 LINE",
"857 1807 OFFCURVE",
"656 1640 OFFCURVE",
"512 1640 QCURVE SMOOTH",
"384 1640 OFFCURVE",
"177 1793 OFFCURVE",
"129 1907 QCURVE",
"229 1976 LINE",
"272 1913 OFFCURVE",
"417 1809 OFFCURVE",
"512 1809 QCURVE SMOOTH",
"614 1809 OFFCURVE",
"760 1908 OFFCURVE",
"803 1976 QCURVE"
);
}
);
width = 1024;
}
);
},
{
glyphname = dotaccentcomb.case;
layers = (
{
layerId = "F265E254-A92B-4432-B734-C31CE1135299";
paths = (
{
closed = 1;
nodes = (
"391 1849 OFFCURVE",
"453 1910 OFFCURVE",
"512 1910 QCURVE SMOOTH",
"567 1910 OFFCURVE",
"633 1845 OFFCURVE",
"633 1792 QCURVE SMOOTH",
"633 1735 OFFCURVE",
"571 1674 OFFCURVE",
"512 1674 QCURVE SMOOTH",
"457 1674 OFFCURVE",
"391 1739 OFFCURVE",
"391 1792 QCURVE SMOOTH"
);
}
);
width = 1024;
}
);
},
{
glyphname = dieresiscomb.case;
layers = (
{
layerId = "F265E254-A92B-4432-B734-C31CE1135299";
paths = (
{
closed = 1;
nodes = (
"166 1842 OFFCURVE",
"226 1901 OFFCURVE",
"282 1901 QCURVE SMOOTH",
"335 1901 OFFCURVE",
"398 1838 OFFCURVE",
"398 1787 QCURVE SMOOTH",
"398 1733 OFFCURVE",
"339 1674 OFFCURVE",
"282 1674 QCURVE SMOOTH",
"229 1674 OFFCURVE",
"166 1736 OFFCURVE",
"166 1787 QCURVE SMOOTH"
);
},
{
closed = 1;
nodes = (
"626 1842 OFFCURVE",
"686 1901 OFFCURVE",
"742 1901 QCURVE SMOOTH",
"795 1901 OFFCURVE",
"858 1838 OFFCURVE",
"858 1787 QCURVE SMOOTH",
"858 1733 OFFCURVE",
"799 1674 OFFCURVE",
"742 1674 QCURVE SMOOTH",
"689 1674 OFFCURVE",
"626 1736 OFFCURVE",
"626 1787 QCURVE SMOOTH"
);
}
);
width = 1024;
}
);
},
{
glyphname = hookabovecomb.case;
layers = (
{
layerId = "F265E254-A92B-4432-B734-C31CE1135299";
paths = (
{
closed = 1;
nodes = (
"374 1616 LINE SMOOTH",
"374 1668 OFFCURVE",
"433 1738 OFFCURVE",
"509 1749 QCURVE SMOOTH",
"565 1757 OFFCURVE",
"605 1789 OFFCURVE",
"605 1830 QCURVE SMOOTH",
"605 1869 OFFCURVE",
"546 1905 OFFCURVE",
"492 1905 QCURVE SMOOTH",
"428 1905 OFFCURVE",
"316 1872 OFFCURVE",
"306 1864 QCURVE",
"252 1989 LINE",
"287 2008 OFFCURVE",
"441 2049 OFFCURVE",
"523 2049 QCURVE SMOOTH",
"643 2049 OFFCURVE",
"768 1935 OFFCURVE",
"768 1839 QCURVE SMOOTH",
"768 1738 OFFCURVE",
"640 1619 OFFCURVE",
"497 1608 QCURVE",
"497 1577 LINE",
"374 1577 LINE"
);
}
);
width = 1024;
}
);
},
{
glyphname = ringcomb.case;
layers = (
{
layerId = "F265E254-A92B-4432-B734-C31CE1135299";
paths = (
{
closed = 1;
nodes = (
"273 1922 OFFCURVE",
"408 2051 OFFCURVE",
"512 2051 QCURVE SMOOTH",
"616 2051 OFFCURVE",
"751 1922 OFFCURVE",
"751 1822 QCURVE SMOOTH",
"751 1722 OFFCURVE",
"616 1593 OFFCURVE",
"512 1593 QCURVE",
"408 1593 OFFCURVE",
"273 1722 OFFCURVE",
"273 1822 QCURVE SMOOTH"
);
},
{
closed = 1;
nodes = (
"399 1771 OFFCURVE",
"460 1709 OFFCURVE",
"512 1709 QCURVE SMOOTH",
"567 1709 OFFCURVE",
"625 1767 OFFCURVE",
"625 1822 QCURVE SMOOTH",
"625 1873 OFFCURVE",
"564 1935 OFFCURVE",
"512 1935 QCURVE SMOOTH",
"457 1935 OFFCURVE",
"399 1877 OFFCURVE",
"399 1822 QCURVE SMOOTH"
);
}
);
width = 1024;
}
);
},
{
glyphname = caroncomb.case;
layers = (
{
layerId = "F265E254-A92B-4432-B734-C31CE1135299";
paths = (
{
closed = 1;
nodes = (
"172 1973 LINE",
"339 1975 LINE",
"505 1791 LINE",
"665 1973 LINE",
"838 1973 LINE",
"581 1633 LINE",
"437 1633 LINE"
);
}
);
width = 1024;
}
);
},
{
glyphname = breveinvertedcomb.case;
layers = (
{
layerId = "F265E254-A92B-4432-B734-C31CE1135299";
paths = (
{
closed = 1;
nodes = (
"129 1683 LINE",
"168 1782 OFFCURVE",
"369 1949 OFFCURVE",
"513 1949 QCURVE SMOOTH",
"641 1949 OFFCURVE",
"848 1796 OFFCURVE",
"896 1682 QCURVE",
"796 1613 LINE",
"753 1676 OFFCURVE",
"608 1780 OFFCURVE",
"513 1780 QCURVE SMOOTH",
"411 1780 OFFCURVE",
"265 1681 OFFCURVE",
"222 1613 QCURVE"
);
}
);
width = 1024;
}
);
},
{
glyphname = horncomb.case;
layers = (
{
layerId = "F265E254-A92B-4432-B734-C31CE1135299";
paths = (
{
closed = 1;
nodes = (
"455 1526 LINE SMOOTH",
"518 1526 OFFCURVE",
"593 1557 OFFCURVE",
"593 1614 QCURVE SMOOTH",
"593 1655 OFFCURVE",
"582 1728 OFFCURVE",
"573 1764 QCURVE",
"713 1764 LINE",
"730 1733 OFFCURVE",
"764 1623 OFFCURVE",
"764 1564 QCURVE SMOOTH",
"764 1476 OFFCURVE",
"626 1391 OFFCURVE",
"530 1391 QCURVE SMOOTH",
"484 1391 OFFCURVE",
"408 1403 OFFCURVE",
"382 1412 QCURVE",
"382 1526 LINE"
);
}
);
width = 1024;
}
);
},
{
glyphname = commaaccentcomb.case;
layers = (
{
layerId = "F265E254-A92B-4432-B734-C31CE1135299";
paths = (
{
closed = 1;
nodes = (
"362 -544 OFFCURVE",
"399 -375 OFFCURVE",
"431 -236 QCURVE",
"645 -234 LINE",
"508 -651 LINE",
"333 -648 LINE"
);
}
);
width = 1024;
}
);
},
{
glyphname = cedillacomb.case;
layers = (
{
layerId = "F265E254-A92B-4432-B734-C31CE1135299";
paths = (
{
closed = 1;
nodes = (
"569 32 LINE",
"541 -93 LINE",
"620 -107 OFFCURVE",
"744 -199 OFFCURVE",
"744 -276 QCURVE SMOOTH",
"744 -379 OFFCURVE",
"520 -505 OFFCURVE",
"318 -505 QCURVE",
"311 -369 LINE",
"419 -370 OFFCURVE",
"542 -331 OFFCURVE",
"542 -278 QCURVE SMOOTH",
"542 -229 OFFCURVE",
"473 -192 OFFCURVE",
"389 -185 QCURVE",
"430 32 LINE"
);
}
);
width = 1024;
}
);
},
{
glyphname = ogonekcomb.case;
layers = (
{
layerId = "F265E254-A92B-4432-B734-C31CE1135299";
paths = (
{
closed = 1;
nodes = (
"221 -217 OFFCURVE",
"349 -41 OFFCURVE",
"468 51 QCURVE",
"563 0 LINE",
"456 -104 OFFCURVE",
"393 -199 OFFCURVE",
"393 -244 QCURVE SMOOTH",
"393 -292 OFFCURVE",
"453 -347 OFFCURVE",
"505 -347 QCURVE SMOOTH",
"552 -347 OFFCURVE",
"684 -301 OFFCURVE",
"746 -254 QCURVE",
"803 -357 LINE",
"758 -418 OFFCURVE",
"582 -497 OFFCURVE",
"478 -497 QCURVE SMOOTH",
"373 -497 OFFCURVE",
"221 -384 OFFCURVE",
"221 -306 QCURVE SMOOTH"
);
}
);
width = 1024;
}
);
},
{
glyphname = acutecombstack.case;
layers = (
{
layerId = "F265E254-A92B-4432-B734-C31CE1135299";
paths = (
{
closed = 1;
nodes = (
"605 1941 LINE",
"721 1777 LINE",
"384 1605 LINE",
"302 1715 LINE"
);
}
);
width = 1024;
}
);
},
{
glyphname = brevecombstack.case;
layers = (
{
layerId = "F265E254-A92B-4432-B734-C31CE1135299";
paths = (
{
closed = 1;
nodes = (
"877 1844 LINE",
"840 1757 OFFCURVE",
"649 1610 OFFCURVE",
"512 1610 QCURVE SMOOTH",
"390 1610 OFFCURVE",
"194 1745 OFFCURVE",
"148 1845 QCURVE",
"258 1910 LINE",
"297 1856 OFFCURVE",
"427 1769 OFFCURVE",
"512 1769 QCURVE SMOOTH",
"604 1769 OFFCURVE",
"735 1852 OFFCURVE",
"774 1910 QCURVE"
);
}
);
width = 1024;
}
);
},
{
glyphname = circumflexcombstack.case;
layers = (
{
layerId = "F265E254-A92B-4432-B734-C31CE1135299";
paths = (
{
closed = 1;
nodes = (
"838 1585 LINE",
"676 1583 LINE",
"505 1722 LINE",
"340 1585 LINE",
"172 1585 LINE",
"429 1875 LINE",
"573 1875 LINE"
);
}
);
width = 1024;
}
);
},
{
glyphname = dieresiscombstack.case;
layers = (
{
layerId = "F265E254-A92B-4432-B734-C31CE1135299";
paths = (
{
closed = 1;
nodes = (
"166 1782 OFFCURVE",
"226 1841 OFFCURVE",
"282 1841 QCURVE SMOOTH",
"335 1841 OFFCURVE",
"398 1778 OFFCURVE",
"398 1727 QCURVE SMOOTH",
"398 1673 OFFCURVE",
"339 1614 OFFCURVE",
"282 1614 QCURVE SMOOTH",
"229 1614 OFFCURVE",
"166 1676 OFFCURVE",
"166 1727 QCURVE SMOOTH"
);
},
{
closed = 1;
nodes = (
"626 1782 OFFCURVE",
"686 1841 OFFCURVE",
"742 1841 QCURVE SMOOTH",
"795 1841 OFFCURVE",
"858 1778 OFFCURVE",
"858 1727 QCURVE SMOOTH",
"858 1673 OFFCURVE",
"799 1614 OFFCURVE",
"742 1614 QCURVE SMOOTH",
"689 1614 OFFCURVE",
"626 1676 OFFCURVE",
"626 1727 QCURVE SMOOTH"
);
}
);
width = 1024;
}
);
},
{
glyphname = dotaccentcombstack.case;
layers = (
{
layerId = "F265E254-A92B-4432-B734-C31CE1135299";
paths = (
{
closed = 1;
nodes = (
"391 1849 OFFCURVE",
"453 1910 OFFCURVE",
"512 1910 QCURVE SMOOTH",
"567 1910 OFFCURVE",
"633 1845 OFFCURVE",
"633 1792 QCURVE SMOOTH",
"633 1735 OFFCURVE",
"571 1674 OFFCURVE",
"512 1674 QCURVE SMOOTH",
"457 1674 OFFCURVE",
"391 1739 OFFCURVE",
"391 1792 QCURVE SMOOTH"
);
}
);
width = 1024;
}
);
},
{
glyphname = gravecombstack.case;
layers = (
{
layerId = "F265E254-A92B-4432-B734-C31CE1135299";
paths = (
{
closed = 1;
nodes = (
"257 1756 LINE",
"364 1919 LINE",
"718 1686 LINE",
"640 1570 LINE"
);
}
);
width = 1024;
}
);
},
{
glyphname = hookabovecombstack.case;
layers = (
{
layerId = "F265E254-A92B-4432-B734-C31CE1135299";
paths = (
{
closed = 1;
nodes = (
"360 1601 LINE SMOOTH",
"360 1646 OFFCURVE",
"412 1698 OFFCURVE",
"479 1707 QCURVE SMOOTH",
"530 1714 OFFCURVE",
"555 1742 OFFCURVE",
"555 1778 QCURVE SMOOTH",
"555 1812 OFFCURVE",
"513 1833 OFFCURVE",
"464 1833 QCURVE SMOOTH",
"408 1833 OFFCURVE",
"309 1804 OFFCURVE",
"300 1797 QCURVE",
"252 1916 LINE",
"283 1933 OFFCURVE",
"419 1968 OFFCURVE",
"493 1968 QCURVE SMOOTH",
"599 1968 OFFCURVE",
"709 1869 OFFCURVE",
"709 1785 QCURVE SMOOTH",
"709 1698 OFFCURVE",
"616 1607 OFFCURVE",
"509 1597 QCURVE",
"509 1554 LINE",
"360 1554 LINE"
);
}
);
width = 1024;
}
);
},
{
glyphname = macroncombstack.case;
layers = (
{
layerId = "F265E254-A92B-4432-B734-C31CE1135299";
paths = (
{
closed = 1;
nodes = (
"216 1830 LINE",
"808 1830 LINE",
"808 1674 LINE",
"216 1674 LINE"
);
}
);
width = 1024;
}
);
},
{
glyphname = tildecombstack.case;
layers = (
{
layerId = "F265E254-A92B-4432-B734-C31CE1135299";
paths = (
{
closed = 1;
nodes = (
"213 1848 OFFCURVE",
"337 1922 OFFCURVE",
"404 1922 QCURVE SMOOTH",
"439 1922 OFFCURVE",
"512 1900 OFFCURVE",
"548 1874 QCURVE SMOOTH",
"578 1852 OFFCURVE",
"644 1817 OFFCURVE",
"676 1817 QCURVE SMOOTH",
"716 1817 OFFCURVE",
"763 1857 OFFCURVE",
"784 1896 QCURVE",
"878 1805 LINE",
"846 1731 OFFCURVE",
"732 1657 OFFCURVE",
"667 1657 QCURVE SMOOTH",
"618 1657 OFFCURVE",
"536 1692 OFFCURVE",
"506 1712 QCURVE SMOOTH",
"475 1733 OFFCURVE",
"411 1770 OFFCURVE",
"387 1770 QCURVE SMOOTH",
"351 1770 OFFCURVE",
"290 1715 OFFCURVE",
"271 1685 QCURVE",
"173 1776 LINE"
);
}
);
width = 1024;
}
);
},
{
glyphname = caroncomb.alt;
layers = (
{
layerId = "F265E254-A92B-4432-B734-C31CE1135299";
paths = (
{
closed = 1;
nodes = (
"488 1481 LINE",
"678 1427 LINE",
"514 1057 LINE",
"386 1092 LINE"
);
}
);
width = 1024;
}
);
},
{
glyphname = dollar.rvrn;
layers = (
{
layerId = "F265E254-A92B-4432-B734-C31CE1135299";
paths = (
{
closed = 1;
nodes = (
"-34 425 LINE",
"154 425 LINE",
"152 413 LINE SMOOTH",
"131 292 OFFCURVE",
"309 162 OFFCURVE",
"490 162 QCURVE SMOOTH",
"666 162 OFFCURVE",
"876 253 OFFCURVE",
"894 353 QCURVE SMOOTH",
"910 458 OFFCURVE",
"795 597 OFFCURVE",
"516 671 QCURVE SMOOTH",
"302 728 OFFCURVE",
"105 946 OFFCURVE",
"132 1111 QCURVE SMOOTH",
"160 1265 OFFCURVE",
"457 1456 OFFCURVE",
"711 1456 QCURVE SMOOTH",
"957 1456 OFFCURVE",
"1210 1210 OFFCURVE",
"1182 1049 QCURVE SMOOTH",
"1180 1037 LINE",
"991 1037 LINE",
"993 1049 LINE SMOOTH",
"1012 1154 OFFCURVE",
"858 1294 OFFCURVE",
"685 1294 QCURVE SMOOTH",
"510 1294 OFFCURVE",
"335 1211 OFFCURVE",
"317 1111 QCURVE SMOOTH",
"303 1025 OFFCURVE",
"431 882 OFFCURVE",
"683 809 QCURVE SMOOTH",
"920 740 OFFCURVE",
"1109 530 OFFCURVE",
"1081 376 QCURVE SMOOTH",
"1052 189 OFFCURVE",
"722 0 OFFCURVE",
"464 0 QCURVE SMOOTH",
"206 0 OFFCURVE",
"-67 232 OFFCURVE",
"-35 413 QCURVE SMOOTH"
);
},
{
closed = 1;
nodes = (
"411 130 LINE",
"550 130 LINE",
"545 100 LINE",
"554 90 LINE",
"511 -150 LINE",
"358 -150 LINE"
);
},
{
closed = 1;
nodes = (
"641 1356 LINE",
"632 1366 LINE",
"666 1606 LINE",
"819 1606 LINE",
"773 1328 LINE",
"638 1328 LINE"
);
}
);
width = 1165;
}
);
},
{
glyphname = zero.prop;
layers = (
{
layerId = "F265E254-A92B-4432-B734-C31CE1135299";
paths = (
{
closed = 1;
nodes = (
"100 936 LINE SMOOTH",
"100 1185 OFFCURVE",
"384 1486 OFFCURVE",
"636 1486 QCURVE SMOOTH",
"886 1486 OFFCURVE",
"1173 1185 OFFCURVE",
"1173 936 QCURVE SMOOTH",
"1173 520 LINE SMOOTH",
"1173 269 OFFCURVE",
"886 -30 OFFCURVE",
"636 -30 QCURVE SMOOTH",
"384 -30 OFFCURVE",
"100 269 OFFCURVE",
"100 520 QCURVE SMOOTH"
);
},
{
closed = 1;
nodes = (
"304 342 OFFCURVE",
"466 134 OFFCURVE",
"636 134 QCURVE SMOOTH",
"806 134 OFFCURVE",
"970 342 OFFCURVE",
"970 510 QCURVE SMOOTH",
"970 946 LINE SMOOTH",
"970 1112 OFFCURVE",
"806 1322 OFFCURVE",
"636 1322 QCURVE SMOOTH",
"466 1322 OFFCURVE",
"304 1112 OFFCURVE",
"304 946 QCURVE SMOOTH",
"304 510 LINE SMOOTH"
);
}
);
width = 1273;
}
);
},
{
glyphname = one.prop;
layers = (
{
layerId = "F265E254-A92B-4432-B734-C31CE1135299";
paths = (
{
closed = 1;
nodes = (
"536 1248 LINE",
"98 1086 LINE",
"98 1276 LINE",
"694 1476 LINE",
"738 1476 LINE",
"738 0 LINE",
"536 0 LINE"
);
}
);
width = 1046;
}
);
},
{
glyphname = two.prop;
layers = (
{
layerId = "F265E254-A92B-4432-B734-C31CE1135299";
paths = (
{
closed = 1;
nodes = (
"101 146 LINE",
"716 710 LINE SMOOTH",
"820 807 OFFCURVE",
"955 982 OFFCURVE",
"955 1078 QCURVE SMOOTH",
"955 1176 OFFCURVE",
"790 1322 OFFCURVE",
"644 1322 QCURVE SMOOTH",
"491 1322 OFFCURVE",
"300 1159 OFFCURVE",
"300 1028 QCURVE SMOOTH",
"300 1018 LINE",
"100 1018 LINE",
"100 1028 LINE SMOOTH",
"100 1222 OFFCURVE",
"404 1486 OFFCURVE",
"644 1486 QCURVE SMOOTH",
"874 1486 OFFCURVE",
"1155 1248 OFFCURVE",
"1155 1088 QCURVE SMOOTH",
"1155 945 OFFCURVE",
"978 716 OFFCURVE",
"844 594 QCURVE SMOOTH",
"369 162 LINE",
"1199 162 LINE",
"1199 0 LINE",
"101 0 LINE"
);
}
);
width = 1273;
}
);
},
{
glyphname = three.prop;
layers = (
{
layerId = "F265E254-A92B-4432-B734-C31CE1135299";
paths = (
{
closed = 1;
nodes = (
"70 392 LINE",
"266 392 LINE",
"266 382 LINE SMOOTH",
"266 263 OFFCURVE",
"459 133 OFFCURVE",
"618 133 QCURVE SMOOTH",
"777 133 OFFCURVE",
"968 264 OFFCURVE",
"968 402 QCURVE SMOOTH",
"968 540 OFFCURVE",
"755 679 OFFCURVE",
"575 679 QCURVE SMOOTH",
"440 679 LINE",
"440 838 LINE",
"564 838 LINE SMOOTH",
"730 838 OFFCURVE",
"912 970 OFFCURVE",
"912 1089 QCURVE SMOOTH",
"912 1207 OFFCURVE",
"752 1323 OFFCURVE",
"618 1323 QCURVE SMOOTH",
"484 1323 OFFCURVE",
"311 1206 OFFCURVE",
"311 1098 QCURVE SMOOTH",
"311 1088 LINE",
"114 1088 LINE",
"114 1098 LINE SMOOTH",
"114 1259 OFFCURVE",
"399 1486 OFFCURVE",
"618 1486 QCURVE SMOOTH",
"836 1486 OFFCURVE",
"1114 1269 OFFCURVE",
"1114 1099 QCURVE SMOOTH",
"1114 1000 OFFCURVE",
"990 816 OFFCURVE",
"858 766 QCURVE",
"858 762 LINE",
"1000 730 OFFCURVE",
"1172 541 OFFCURVE",
"1172 402 QCURVE SMOOTH",
"1172 201 OFFCURVE",
"858 -30 OFFCURVE",
"618 -30 QCURVE SMOOTH",
"377 -30 OFFCURVE",
"70 201 OFFCURVE",
"70 382 QCURVE SMOOTH"
);
}
);
width = 1273;
}
);
},
{
glyphname = four.prop;
layers = (
{
layerId = "F265E254-A92B-4432-B734-C31CE1135299";
paths = (
{
closed = 1;
nodes = (
"808 398 LINE",
"808 450 LINE",
"808 1170 LINE",
"796 1170 LINE",
"262 504 LINE",
"843 504 LINE",
"930 504 LINE",
"1228 504 LINE",
"1228 341 LINE",
"22 341 LINE",
"22 474 LINE",
"812 1456 LINE",
"999 1456 LINE",
"999 0 LINE",
"808 0 LINE"
);
}
);
width = 1256;
}
);
},
{
glyphname = five.prop;
layers = (
{
layerId = "F265E254-A92B-4432-B734-C31CE1135299";
paths = (
{
closed = 1;
nodes = (
"90 377 LINE",
"284 377 LINE",
"284 367 LINE SMOOTH",
"284 258 OFFCURVE",
"472 133 OFFCURVE",
"629 133 QCURVE SMOOTH",
"785 133 OFFCURVE",
"986 308 OFFCURVE",
"986 465 QCURVE SMOOTH",
"986 623 OFFCURVE",
"785 788 OFFCURVE",
"628 788 QCURVE SMOOTH",
"526 788 OFFCURVE",
"371 722 OFFCURVE",
"300 658 QCURVE",
"146 728 LINE",
"220 1456 LINE",
"1100 1456 LINE",
"1100 1280 LINE",
"385 1280 LINE",
"341 860 LINE",
"398 894 OFFCURVE",
"566 952 OFFCURVE",
"666 952 QCURVE SMOOTH",
"882 952 OFFCURVE",
"1186 695 OFFCURVE",
"1186 465 QCURVE SMOOTH",
"1186 235 OFFCURVE",
"869 -30 OFFCURVE",
"629 -30 QCURVE SMOOTH",
"388 -30 OFFCURVE",
"90 196 OFFCURVE",
"90 367 QCURVE SMOOTH"
);
}
);
width = 1273;
}
);
},
{
glyphname = six.prop;
layers = (
{
layerId = "F265E254-A92B-4432-B734-C31CE1135299";
paths = (
{
closed = 1;
nodes = (
"50 644 LINE SMOOTH",
"50 1024 OFFCURVE",
"523 1486 OFFCURVE",
"960 1486 QCURVE SMOOTH",
"982 1486 LINE",
"982 1322 LINE",
"960 1322 LINE SMOOTH",
"630 1322 OFFCURVE",
"248 1001 OFFCURVE",
"248 654 QCURVE SMOOTH",
"248 604 LINE SMOOTH",
"248 347 OFFCURVE",
"469 133 OFFCURVE",
"636 133 QCURVE SMOOTH",
"805 133 OFFCURVE",
"991 307 OFFCURVE",
"991 464 QCURVE SMOOTH",
"991 622 OFFCURVE",
"805 794 OFFCURVE",
"636 794 QCURVE SMOOTH",
"481 794 OFFCURVE",
"242 622 OFFCURVE",
"242 464 QCURVE",
"168 464 LINE",
"168 685 OFFCURVE",
"448 957 OFFCURVE",
"682 957 QCURVE SMOOTH",
"912 957 OFFCURVE",
"1191 685 OFFCURVE",
"1191 464 QCURVE SMOOTH",
"1191 244 OFFCURVE",
"877 -30 OFFCURVE",
"637 -30 QCURVE SMOOTH",
"396 -30 OFFCURVE",
"50 274 OFFCURVE",
"50 614 QCURVE SMOOTH"
);
}
);
width = 1238;
}
);
},
{
glyphname = seven.prop;
layers = (
{
layerId = "F265E254-A92B-4432-B734-C31CE1135299";
paths = (
{
closed = 1;
nodes = (
"926 1292 LINE",
"72 1292 LINE",
"72 1456 LINE",
"1140 1456 LINE",
"1140 1345 LINE",
"548 0 LINE",
"340 0 LINE"
);
}
);
width = 1228;
}
);
},
{
glyphname = eight.prop;
layers = (
{
layerId = "F265E254-A92B-4432-B734-C31CE1135299";
paths = (
{
closed = 1;
nodes = (
"74 516 OFFCURVE",
"238 700 OFFCURVE",
"362 743 QCURVE",
"362 747 LINE",
"267 788 OFFCURVE",
"126 967 OFFCURVE",
"126 1087 QCURVE SMOOTH",
"126 1267 OFFCURVE",
"414 1486 OFFCURVE",
"617 1486 QCURVE SMOOTH",
"820 1486 OFFCURVE",
"1108 1267 OFFCURVE",
"1108 1087 QCURVE SMOOTH",
"1108 967 OFFCURVE",
"968 788 OFFCURVE",
"872 747 QCURVE",
"872 743 LINE",
"996 700 OFFCURVE",
"1161 516 OFFCURVE",
"1161 386 QCURVE SMOOTH",
"1161 188 OFFCURVE",
"842 -30 OFFCURVE",
"617 -30 QCURVE SMOOTH",
"392 -30 OFFCURVE",
"74 188 OFFCURVE",
"74 386 QCURVE SMOOTH"
);
},
{
closed = 1;
nodes = (
"272 279 OFFCURVE",
"465 132 OFFCURVE",
"617 132 QCURVE SMOOTH",
"770 132 OFFCURVE",
"963 278 OFFCURVE",
"963 397 QCURVE SMOOTH",
"963 515 OFFCURVE",
"770 664 OFFCURVE",
"617 664 QCURVE SMOOTH",
"465 664 OFFCURVE",
"272 516 OFFCURVE",
"272 397 QCURVE SMOOTH"
);
},
{
closed = 1;
nodes = (
"320 968 OFFCURVE",
"488 826 OFFCURVE",
"617 826 QCURVE SMOOTH",
"747 826 OFFCURVE",
"914 968 OFFCURVE",
"914 1076 QCURVE SMOOTH",
"914 1184 OFFCURVE",
"747 1324 OFFCURVE",
"617 1324 QCURVE SMOOTH",
"488 1324 OFFCURVE",
"320 1184 OFFCURVE",
"320 1076 QCURVE SMOOTH"
);
}
);
width = 1253;
}
);
},
{
glyphname = nine.prop;
layers = (
{
layerId = "F265E254-A92B-4432-B734-C31CE1135299";
paths = (
{
closed = 1;
nodes = (
"47 1218 OFFCURVE",
"361 1486 OFFCURVE",
"601 1486 QCURVE SMOOTH",
"841 1486 OFFCURVE",
"1188 1182 OFFCURVE",
"1188 842 QCURVE SMOOTH",
"1188 812 LINE SMOOTH",
"1188 432 OFFCURVE",
"715 -30 OFFCURVE",
"278 -30 QCURVE SMOOTH",
"255 -30 LINE",
"255 134 LINE",
"278 134 LINE SMOOTH",
"608 134 OFFCURVE",
"989 455 OFFCURVE",
"989 802 QCURVE SMOOTH",
"989 852 LINE SMOOTH",
"989 1109 OFFCURVE",
"769 1323 OFFCURVE",
"601 1323 QCURVE SMOOTH",
"432 1323 OFFCURVE",
"247 1154 OFFCURVE",
"247 1002 QCURVE SMOOTH",
"247 849 OFFCURVE",
"432 682 OFFCURVE",
"601 682 QCURVE SMOOTH",
"757 682 OFFCURVE",
"995 849 OFFCURVE",
"995 1002 QCURVE",
"1070 1002 LINE",
"1070 785 OFFCURVE",
"789 519 OFFCURVE",
"555 519 QCURVE SMOOTH",
"328 519 OFFCURVE",
"47 786 OFFCURVE",
"47 1002 QCURVE SMOOTH"
);
}
);
width = 1238;
}
);
},
{
glyphname = .notdef;
layers = (
{
layerId = "F265E254-A92B-4432-B734-C31CE1135299";
paths = (
{
closed = 1;
nodes = (
"127 1456 LINE",
"127 1402 LINE",
"777 1402 LINE",
"777 1456 LINE"
);
},
{
closed = 1;
nodes = (
"100 1456 LINE",
"100 0 LINE",
"154 0 LINE",
"154 1456 LINE"
);
},
{
closed = 1;
nodes = (
"808 0 LINE",
"754 0 LINE",
"754 1456 LINE",
"808 1456 LINE"
);
},
{
closed = 1;
nodes = (
"127 54 LINE",
"127 0 LINE",
"777 0 LINE",
"777 54 LINE"
);
},
{
closed = 1;
nodes = (
"184 30 LINE",
"126 30 LINE",
"719 1426 LINE",
"777 1426 LINE"
);
},
{
closed = 1;
nodes = (
"777 30 LINE",
"184 1426 LINE",
"126 1426 LINE",
"719 30 LINE"
);
}
